<svg width="399" height="148" viewBox="0 0 399 148" fill="none" xmlns="http://www.w3.org/2000/svg">
<rect width="384" height="139" rx="27.3669" fill="white"/>
<path d="M33.0243 29.1875C31.9463 29.1875 30.9753 29.3746 30.1112 29.7487C29.256 30.114 28.5255 30.6485 27.9197 31.3522C27.3228 32.0471 26.864 32.889 26.5433 33.8778C26.2226 34.8666 26.0623 35.9802 26.0623 37.2185C26.0623 38.8576 26.3162 40.283 26.8239 41.4946C27.3406 42.6972 28.1068 43.6281 29.1223 44.2874C30.1468 44.9466 31.4252 45.2762 32.9574 45.2762C33.8305 45.2762 34.65 45.2049 35.4162 45.0624C36.1912 44.911 36.944 44.7239 37.6745 44.5012V46.4789C36.9618 46.7461 36.2135 46.9421 35.4295 47.0668C34.6456 47.2004 33.7147 47.2673 32.6367 47.2673C30.6501 47.2673 28.9887 46.8575 27.6524 46.0379C26.3251 45.2094 25.3273 44.0424 24.6592 42.5368C24 41.0313 23.6703 39.2541 23.6703 37.2051C23.6703 35.7263 23.8752 34.3767 24.285 33.1562C24.7037 31.9268 25.3095 30.8667 26.1024 29.9759C26.9041 29.085 27.8841 28.3991 29.0422 27.918C30.2092 27.4281 31.5454 27.1831 33.051 27.1831C34.0398 27.1831 34.993 27.2811 35.9106 27.4771C36.8282 27.673 37.6567 27.9537 38.3961 28.3189L37.4874 30.2431C36.8638 29.9581 36.1779 29.7131 35.4295 29.5082C34.6901 29.2944 33.8884 29.1875 33.0243 29.1875ZM54.2042 39.6505C54.2042 40.8531 54.0483 41.9266 53.7365 42.8709C53.4247 43.8152 52.9748 44.6125 52.3868 45.2628C51.7989 45.9132 51.0862 46.412 50.2488 46.7595C49.4203 47.098 48.4805 47.2673 47.4293 47.2673C46.4493 47.2673 45.5496 47.098 44.73 46.7595C43.9193 46.412 43.2156 45.9132 42.6187 45.2628C42.0307 44.6125 41.5719 43.8152 41.2423 42.8709C40.9216 41.9266 40.7613 40.8531 40.7613 39.6505C40.7613 38.047 41.033 36.684 41.5764 35.5615C42.1198 34.4301 42.8949 33.5705 43.9015 32.9825C44.9171 32.3856 46.1242 32.0872 47.5228 32.0872C48.8591 32.0872 50.0261 32.3856 51.0238 32.9825C52.0305 33.5794 52.81 34.4435 53.3623 35.5749C53.9236 36.6973 54.2042 38.0559 54.2042 39.6505ZM43.0597 39.6505C43.0597 40.8264 43.2156 41.8464 43.5274 42.7106C43.8392 43.5747 44.3202 44.2428 44.9705 44.715C45.6208 45.1871 46.4582 45.4232 47.4827 45.4232C48.4983 45.4232 49.3312 45.1871 49.9816 44.715C50.6408 44.2428 51.1263 43.5747 51.4381 42.7106C51.7499 41.8464 51.9058 40.8264 51.9058 39.6505C51.9058 38.4835 51.7499 37.4768 51.4381 36.6305C51.1263 35.7753 50.6452 35.1161 49.9949 34.6528C49.3446 34.1896 48.5027 33.958 47.4694 33.958C45.946 33.958 44.828 34.4613 44.1153 35.468C43.4115 36.4746 43.0597 37.8688 43.0597 39.6505ZM73.9409 32.0872C75.5534 32.0872 76.7694 32.5103 77.5889 33.3567C78.4085 34.1941 78.8183 35.5437 78.8183 37.4056V47H76.6268V37.5125C76.6268 36.3276 76.3685 35.4412 75.8518 34.8533C75.344 34.2564 74.5868 33.958 73.5801 33.958C72.1637 33.958 71.1347 34.3678 70.4933 35.1873C69.8519 36.0069 69.5312 37.214 69.5312 38.8086V47H67.3264V37.5125C67.3264 36.7196 67.2106 36.0604 66.9789 35.5348C66.7562 35.0092 66.4177 34.6172 65.9634 34.3589C65.5179 34.0916 64.9523 33.958 64.2663 33.958C63.2953 33.958 62.5158 34.1584 61.9278 34.5593C61.3399 34.9602 60.9123 35.5571 60.645 36.3499C60.3867 37.1339 60.2575 38.1004 60.2575 39.2496V47H58.0393V32.3545H59.8299L60.1639 34.4257H60.2842C60.5782 33.9179 60.9479 33.4903 61.3933 33.1429C61.8387 32.7954 62.3376 32.5326 62.8899 32.3545C63.4423 32.1763 64.0302 32.0872 64.6538 32.0872C65.7674 32.0872 66.6983 32.2965 67.4466 32.7152C68.2039 33.125 68.7517 33.7531 69.0903 34.5994H69.2105C69.6916 33.7531 70.3508 33.125 71.1882 32.7152C72.0256 32.2965 72.9432 32.0872 73.9409 32.0872ZM90.2568 32.0872C92.0831 32.0872 93.5396 32.7152 94.6264 33.9713C95.7133 35.2274 96.2567 37.116 96.2567 39.6371C96.2567 41.303 96.0072 42.7017 95.5084 43.833C95.0095 44.9644 94.3057 45.8196 93.3971 46.3987C92.4973 46.9777 91.4327 47.2673 90.2034 47.2673C89.4283 47.2673 88.7468 47.1648 88.1589 46.9599C87.5709 46.755 87.0676 46.4789 86.6489 46.1314C86.2302 45.784 85.8827 45.4054 85.6066 44.9956H85.4462C85.473 45.343 85.5041 45.7617 85.5398 46.2517C85.5843 46.7417 85.6066 47.1693 85.6066 47.5345V53.5477H83.375V32.3545H85.2057L85.4997 34.5192H85.6066C85.8917 34.0738 86.2391 33.6685 86.6489 33.3032C87.0587 32.929 87.5575 32.6351 88.1455 32.4213C88.7424 32.1986 89.4461 32.0872 90.2568 32.0872ZM89.8693 33.958C88.8537 33.958 88.0341 34.154 87.4106 34.5459C86.7959 34.9379 86.346 35.5259 86.0609 36.3098C85.7758 37.0849 85.6244 38.0603 85.6066 39.2363V39.6639C85.6066 40.9021 85.7402 41.9489 86.0075 42.8041C86.2836 43.6593 86.7335 44.3096 87.3571 44.7551C87.9896 45.2005 88.8359 45.4232 89.896 45.4232C90.8047 45.4232 91.5619 45.1782 92.1677 44.6882C92.7735 44.1983 93.2233 43.5168 93.5173 42.6438C93.8202 41.7618 93.9717 40.7507 93.9717 39.6104C93.9717 37.8822 93.6331 36.5103 92.9561 35.4947C92.2879 34.4702 91.259 33.958 89.8693 33.958ZM102.363 47H100.132V26.2076H102.363V47ZM109.272 32.3545V47H107.054V32.3545H109.272ZM108.19 26.8757C108.555 26.8757 108.867 26.996 109.125 27.2365C109.392 27.4681 109.526 27.8334 109.526 28.3323C109.526 28.8222 109.392 29.1875 109.125 29.428C108.867 29.6685 108.555 29.7888 108.19 29.7888C107.807 29.7888 107.486 29.6685 107.227 29.428C106.978 29.1875 106.853 28.8222 106.853 28.3323C106.853 27.8334 106.978 27.4681 107.227 27.2365C107.486 26.996 107.807 26.8757 108.19 26.8757ZM119.454 32.1139C121.2 32.1139 122.497 32.5059 123.343 33.2898C124.189 34.0738 124.612 35.3254 124.612 37.0448V47H122.995L122.568 44.8352H122.461C122.051 45.3697 121.624 45.8196 121.178 46.1849C120.733 46.5412 120.216 46.8129 119.628 47C119.049 47.1782 118.336 47.2673 117.49 47.2673C116.599 47.2673 115.806 47.1114 115.111 46.7996C114.426 46.4878 113.882 46.0156 113.481 45.3831C113.089 44.7506 112.893 43.9488 112.893 42.9778C112.893 41.5168 113.472 40.3944 114.63 39.6104C115.789 38.8265 117.552 38.3989 119.922 38.3276L122.448 38.2207V37.3254C122.448 36.0604 122.176 35.174 121.632 34.6662C121.089 34.1584 120.323 33.9045 119.334 33.9045C118.568 33.9045 117.837 34.0159 117.143 34.2386C116.448 34.4613 115.789 34.7241 115.165 35.027L114.483 33.3433C115.143 33.0048 115.9 32.7152 116.755 32.4747C117.61 32.2342 118.51 32.1139 119.454 32.1139ZM122.421 39.7841L120.189 39.8777C118.363 39.9489 117.076 40.2474 116.327 40.773C115.579 41.2986 115.205 42.0424 115.205 43.0045C115.205 43.8419 115.459 44.4611 115.967 44.862C116.474 45.2628 117.147 45.4633 117.984 45.4633C119.285 45.4633 120.35 45.1025 121.178 44.3809C122.007 43.6593 122.421 42.5769 122.421 41.1338V39.7841ZM136.118 32.0872C137.855 32.0872 139.169 32.5148 140.06 33.37C140.951 34.2163 141.396 35.5793 141.396 37.459V47H139.204V37.606C139.204 36.3855 138.924 35.4724 138.363 34.8666C137.81 34.2609 136.96 33.958 135.81 33.958C134.189 33.958 133.049 34.4168 132.389 35.3343C131.73 36.2519 131.401 37.5837 131.401 39.3298V47H129.182V32.3545H130.973L131.307 34.4658H131.427C131.739 33.9491 132.136 33.517 132.617 33.1696C133.098 32.8132 133.637 32.546 134.234 32.3678C134.83 32.1807 135.458 32.0872 136.118 32.0872ZM150.696 45.4499C151.062 45.4499 151.436 45.4187 151.819 45.3564C152.202 45.294 152.514 45.2183 152.754 45.1292V46.853C152.496 46.9688 152.135 47.0668 151.672 47.147C151.218 47.2272 150.772 47.2673 150.336 47.2673C149.561 47.2673 148.857 47.1336 148.224 46.8664C147.592 46.5902 147.084 46.127 146.701 45.4766C146.327 44.8263 146.14 43.9266 146.14 42.7774V34.0916H144.055V33.0092L146.153 32.1406L147.035 28.9603H148.371V32.3545H152.661V34.0916H148.371V42.7106C148.371 43.6281 148.581 44.3141 148.999 44.7684C149.427 45.2228 149.993 45.4499 150.696 45.4499ZM169.712 32.0872C171.538 32.0872 172.994 32.7152 174.081 33.9713C175.168 35.2274 175.711 37.116 175.711 39.6371C175.711 41.303 175.462 42.7017 174.963 43.833C174.464 44.9644 173.761 45.8196 172.852 46.3987C171.952 46.9777 170.888 47.2673 169.658 47.2673C168.883 47.2673 168.202 47.1648 167.614 46.9599C167.026 46.755 166.522 46.4789 166.104 46.1314C165.685 45.784 165.338 45.4054 165.061 44.9956H164.901C164.928 45.343 164.959 45.7617 164.995 46.2517C165.039 46.7417 165.061 47.1693 165.061 47.5345V53.5477H162.83V32.3545H164.66L164.954 34.5192H165.061C165.346 34.0738 165.694 33.6685 166.104 33.3032C166.513 32.929 167.012 32.6351 167.6 32.4213C168.197 32.1986 168.901 32.0872 169.712 32.0872ZM169.324 33.958C168.309 33.958 167.489 34.154 166.865 34.5459C166.251 34.9379 165.801 35.5259 165.516 36.3098C165.231 37.0849 165.079 38.0603 165.061 39.2363V39.6639C165.061 40.9021 165.195 41.9489 165.462 42.8041C165.738 43.6593 166.188 44.3096 166.812 44.7551C167.444 45.2005 168.291 45.4232 169.351 45.4232C170.259 45.4232 171.017 45.1782 171.622 44.6882C172.228 44.1983 172.678 43.5168 172.972 42.6438C173.275 41.7618 173.426 40.7507 173.426 39.6104C173.426 37.8822 173.088 36.5103 172.411 35.4947C171.743 34.4702 170.714 33.958 169.324 33.958ZM186.241 32.0872C186.535 32.0872 186.843 32.105 187.163 32.1406C187.484 32.1674 187.769 32.2075 188.019 32.2609L187.738 34.3188C187.497 34.2564 187.23 34.2074 186.936 34.1718C186.642 34.1361 186.366 34.1183 186.108 34.1183C185.52 34.1183 184.963 34.2386 184.437 34.4791C183.921 34.7107 183.466 35.0493 183.074 35.4947C182.682 35.9312 182.375 36.4613 182.152 37.0849C181.93 37.6995 181.818 38.3855 181.818 39.1427V47H179.587V32.3545H181.431L181.671 35.0537H181.765C182.068 34.5103 182.433 34.0159 182.861 33.5705C183.288 33.1161 183.783 32.7553 184.344 32.4881C184.914 32.2208 185.546 32.0872 186.241 32.0872ZM203.412 39.6505C203.412 40.8531 203.256 41.9266 202.945 42.8709C202.633 43.8152 202.183 44.6125 201.595 45.2628C201.007 45.9132 200.294 46.412 199.457 46.7595C198.629 47.098 197.689 47.2673 196.637 47.2673C195.658 47.2673 194.758 47.098 193.938 46.7595C193.128 46.412 192.424 45.9132 191.827 45.2628C191.239 44.6125 190.78 43.8152 190.451 42.8709C190.13 41.9266 189.969 40.8531 189.969 39.6505C189.969 38.047 190.241 36.684 190.785 35.5615C191.328 34.4301 192.103 33.5705 193.11 32.9825C194.125 32.3856 195.332 32.0872 196.731 32.0872C198.067 32.0872 199.234 32.3856 200.232 32.9825C201.239 33.5794 202.018 34.4435 202.571 35.5749C203.132 36.6973 203.412 38.0559 203.412 39.6505ZM192.268 39.6505C192.268 40.8264 192.424 41.8464 192.736 42.7106C193.047 43.5747 193.528 44.2428 194.179 44.715C194.829 45.1871 195.666 45.4232 196.691 45.4232C197.707 45.4232 198.539 45.1871 199.19 44.715C199.849 44.2428 200.335 43.5747 200.646 42.7106C200.958 41.8464 201.114 40.8264 201.114 39.6505C201.114 38.4835 200.958 37.4768 200.646 36.6305C200.335 35.7753 199.853 35.1161 199.203 34.6528C198.553 34.1896 197.711 33.958 196.678 33.958C195.154 33.958 194.036 34.4613 193.324 35.468C192.62 36.4746 192.268 37.8688 192.268 39.6505ZM212.459 47.2673C210.606 47.2673 209.136 46.6348 208.049 45.3697C206.971 44.1047 206.432 42.2251 206.432 39.7307C206.432 37.2096 206.985 35.3076 208.089 34.0248C209.194 32.7331 210.664 32.0872 212.499 32.0872C213.274 32.0872 213.951 32.1896 214.53 32.3945C215.109 32.5994 215.608 32.8756 216.027 33.223C216.446 33.5615 216.797 33.9491 217.082 34.3856H217.243C217.207 34.1094 217.172 33.7308 217.136 33.2498C217.1 32.7687 217.082 32.3767 217.082 32.0738V26.2076H219.301V47H217.51L217.176 44.9154H217.082C216.806 45.3519 216.454 45.7484 216.027 46.1047C215.608 46.461 215.105 46.7461 214.517 46.9599C213.938 47.1648 213.252 47.2673 212.459 47.2673ZM212.806 45.4232C214.374 45.4232 215.483 44.9778 216.134 44.0869C216.784 43.1961 217.109 41.8732 217.109 40.1182V39.7173C217.109 37.8554 216.797 36.4256 216.174 35.4279C215.559 34.4301 214.437 33.9313 212.806 33.9313C211.443 33.9313 210.423 34.4569 209.746 35.5081C209.069 36.5503 208.731 37.9757 208.731 39.7841C208.731 41.5836 209.065 42.9734 209.733 43.9533C210.41 44.9332 211.434 45.4232 212.806 45.4232ZM236.098 32.3545V47H234.28L233.96 44.9421H233.839C233.536 45.4499 233.144 45.8775 232.663 46.225C232.182 46.5724 231.639 46.8307 231.033 47C230.436 47.1782 229.799 47.2673 229.122 47.2673C227.964 47.2673 226.993 47.0802 226.209 46.706C225.425 46.3319 224.833 45.7528 224.432 44.9689C224.04 44.1849 223.844 43.1783 223.844 41.9489V32.3545H226.089V41.7885C226.089 43.009 226.365 43.9221 226.917 44.5279C227.47 45.1248 228.312 45.4232 229.443 45.4232C230.53 45.4232 231.394 45.2183 232.035 44.8085C232.686 44.3987 233.153 43.7974 233.438 43.0045C233.724 42.2028 233.866 41.2228 233.866 40.0647V32.3545H236.098ZM246.654 47.2673C245.336 47.2673 244.173 46.9955 243.167 46.4521C242.16 45.9087 241.376 45.0802 240.815 43.9667C240.253 42.8531 239.973 41.45 239.973 39.7574C239.973 37.9846 240.267 36.537 240.855 35.4145C241.452 34.2831 242.271 33.4457 243.313 32.9023C244.356 32.3589 245.541 32.0872 246.868 32.0872C247.598 32.0872 248.302 32.1629 248.979 32.3144C249.665 32.4569 250.226 32.6395 250.663 32.8622L249.995 34.7197C249.549 34.5415 249.033 34.3811 248.445 34.2386C247.866 34.0961 247.322 34.0248 246.815 34.0248C245.799 34.0248 244.953 34.243 244.276 34.6796C243.607 35.1161 243.104 35.7575 242.766 36.6038C242.436 37.4501 242.271 38.4924 242.271 39.7307C242.271 40.9155 242.432 41.9266 242.752 42.764C243.082 43.6014 243.567 44.2428 244.209 44.6882C244.859 45.1248 245.67 45.343 246.641 45.343C247.416 45.343 248.115 45.2628 248.739 45.1025C249.362 44.9332 249.928 44.7372 250.436 44.5145V46.4922C249.946 46.7417 249.398 46.9332 248.792 47.0668C248.195 47.2004 247.483 47.2673 246.654 47.2673ZM258.641 45.4499C259.006 45.4499 259.38 45.4187 259.763 45.3564C260.146 45.294 260.458 45.2183 260.698 45.1292V46.853C260.44 46.9688 260.079 47.0668 259.616 47.147C259.162 47.2272 258.716 47.2673 258.28 47.2673C257.505 47.2673 256.801 47.1336 256.168 46.8664C255.536 46.5902 255.028 46.127 254.645 45.4766C254.271 44.8263 254.084 43.9266 254.084 42.7774V34.0916H251.999V33.0092L254.097 32.1406L254.979 28.9603H256.315V32.3545H260.605V34.0916H256.315V42.7106C256.315 43.6281 256.525 44.3141 256.943 44.7684C257.371 45.2228 257.937 45.4499 258.641 45.4499ZM273.139 42.9912C273.139 43.9266 272.903 44.715 272.431 45.3564C271.968 45.9889 271.3 46.4655 270.426 46.7862C269.562 47.1069 268.529 47.2673 267.326 47.2673C266.302 47.2673 265.415 47.1871 264.667 47.0267C263.919 46.8664 263.264 46.6392 262.703 46.3452V44.3007C263.3 44.5947 264.012 44.862 264.841 45.1025C265.669 45.343 266.516 45.4633 267.38 45.4633C268.645 45.4633 269.562 45.2584 270.132 44.8486C270.703 44.4388 270.988 43.882 270.988 43.1783C270.988 42.7774 270.872 42.4255 270.64 42.1226C270.418 41.8108 270.039 41.5124 269.504 41.2273C268.97 40.9333 268.231 40.6126 267.286 40.2652C266.351 39.9088 265.54 39.557 264.854 39.2095C264.177 38.8532 263.652 38.4211 263.277 37.9133C262.912 37.4056 262.73 36.7463 262.73 35.9357C262.73 34.6974 263.228 33.7486 264.226 33.0894C265.233 32.4213 266.551 32.0872 268.182 32.0872C269.063 32.0872 269.888 32.1763 270.654 32.3545C271.429 32.5237 272.15 32.7553 272.818 33.0493L272.07 34.8266C271.464 34.5682 270.818 34.35 270.132 34.1718C269.447 33.9936 268.747 33.9045 268.035 33.9045C267.01 33.9045 266.222 34.0738 265.669 34.4123C265.126 34.7508 264.854 35.2141 264.854 35.802C264.854 36.2564 264.979 36.6305 265.228 36.9245C265.487 37.2185 265.897 37.4946 266.458 37.753C267.019 38.0113 267.758 38.3142 268.676 38.6617C269.594 39.0002 270.386 39.3521 271.055 39.7173C271.723 40.0737 272.235 40.5102 272.591 41.0269C272.956 41.5346 273.139 42.1894 273.139 42.9912Z" fill="#808080"/>
<path d="M24.0957 121.521V105.892H25.1968V120.516H32.6372V121.521H24.0957ZM44.685 115.695C44.685 116.593 44.5746 117.412 44.3536 118.153C44.1327 118.887 43.8049 119.522 43.3701 120.056C42.9354 120.591 42.3938 121.004 41.7452 121.296C41.1038 121.588 40.3555 121.734 39.5003 121.734C38.6878 121.734 37.9645 121.592 37.3302 121.307C36.6959 121.015 36.1578 120.601 35.716 120.067C35.2812 119.532 34.9498 118.898 34.7218 118.164C34.4937 117.423 34.3797 116.6 34.3797 115.695C34.3797 114.447 34.5864 113.375 34.9997 112.477C35.4202 111.572 36.0188 110.88 36.7957 110.403C37.5796 109.918 38.5168 109.676 39.6072 109.676C40.7332 109.676 41.6704 109.933 42.4187 110.446C43.1741 110.952 43.7407 111.657 44.1184 112.562C44.4962 113.467 44.685 114.511 44.685 115.695ZM35.4915 115.695C35.4915 116.714 35.6376 117.605 35.9298 118.367C36.222 119.13 36.6638 119.725 37.2553 120.152C37.854 120.58 38.6094 120.794 39.5217 120.794C40.4553 120.794 41.2214 120.58 41.8201 120.152C42.4187 119.725 42.8606 119.126 43.1456 118.356C43.4307 117.587 43.5732 116.699 43.5732 115.695C43.5732 114.718 43.4378 113.849 43.167 113.086C42.8962 112.324 42.4686 111.725 41.8842 111.29C41.2998 110.848 40.5372 110.627 39.5965 110.627C38.2495 110.627 37.2268 111.076 36.5284 111.974C35.8371 112.872 35.4915 114.112 35.4915 115.695ZM52.5209 109.697C52.8274 109.697 53.116 109.715 53.3868 109.751C53.6577 109.786 53.9107 109.836 54.1458 109.9L53.9748 110.895C53.7396 110.831 53.5009 110.784 53.2586 110.756C53.0162 110.72 52.7561 110.702 52.4782 110.702C51.9294 110.702 51.4377 110.806 51.0029 111.012C50.5753 111.219 50.2118 111.515 49.9125 111.9C49.6132 112.284 49.3851 112.748 49.2284 113.289C49.0716 113.831 48.9932 114.437 48.9932 115.107V121.521H47.9028V109.9H48.8328L48.9397 112.092H49.0039C49.182 111.643 49.4315 111.24 49.7522 110.884C50.08 110.52 50.4755 110.232 50.9388 110.018C51.402 109.804 51.9294 109.697 52.5209 109.697ZM60.8272 109.676C61.8178 109.676 62.641 109.908 63.2966 110.371C63.9594 110.834 64.4512 111.468 64.7719 112.274C65.0997 113.079 65.2636 114.002 65.2636 115.042V115.823H56.8718C56.8718 117.419 57.2389 118.645 57.9729 119.5C58.7141 120.355 59.7724 120.783 61.1479 120.783C61.8677 120.783 62.4913 120.726 63.0187 120.612C63.5532 120.491 64.1447 120.288 64.7933 120.003V120.997C64.2231 121.253 63.653 121.439 63.0828 121.553C62.5127 121.674 61.857 121.734 61.1158 121.734C59.9399 121.734 58.9529 121.492 58.1547 121.008C57.3636 120.516 56.7649 119.825 56.3587 118.934C55.9596 118.043 55.7601 117.002 55.7601 115.812C55.7601 114.65 55.9525 113.606 56.3373 112.68C56.7293 111.753 57.2994 111.023 58.0478 110.488C58.8032 109.947 59.7297 109.676 60.8272 109.676ZM60.8165 110.606C59.7047 110.606 58.8032 110.977 58.1119 111.718C57.4277 112.452 57.0251 113.514 56.9039 114.903H64.1412C64.1412 114.055 64.02 113.307 63.7777 112.659C63.5354 112.01 63.1683 111.508 62.6766 111.151C62.192 110.788 61.5719 110.606 60.8165 110.606ZM80.4544 109.676C81.5733 109.676 82.457 110 83.1055 110.649C83.7541 111.297 84.0783 112.32 84.0783 113.717V121.521H83.02V113.76C83.02 112.683 82.7741 111.892 82.2824 111.386C81.7906 110.88 81.1421 110.627 80.3368 110.627C79.2321 110.627 78.3662 110.952 77.7391 111.6C77.119 112.242 76.809 113.254 76.809 114.636V121.521H75.74V113.76C75.74 113.04 75.626 112.452 75.3979 111.996C75.177 111.532 74.867 111.19 74.4679 110.969C74.0688 110.741 73.5984 110.627 73.0568 110.627C72.337 110.627 71.7134 110.777 71.186 111.076C70.6586 111.369 70.2524 111.825 69.9673 112.445C69.6822 113.058 69.5397 113.838 69.5397 114.786V121.521H68.46V109.9H69.3366L69.4969 111.803H69.5611C69.7535 111.426 70.0101 111.076 70.3308 110.756C70.6515 110.435 71.047 110.175 71.5174 109.975C71.9949 109.776 72.5543 109.676 73.1957 109.676C74.0296 109.676 74.7351 109.865 75.3124 110.243C75.8968 110.613 76.303 111.165 76.5311 111.9H76.6059C76.9195 111.201 77.4041 110.656 78.0598 110.264C78.7226 109.872 79.5208 109.676 80.4544 109.676ZM94.5761 109.9V121.521H93.4964V109.9H94.5761ZM94.0523 105.603C94.3231 105.603 94.5227 105.685 94.6509 105.849C94.7792 106.006 94.8434 106.219 94.8434 106.49C94.8434 106.761 94.7792 106.975 94.6509 107.132C94.5227 107.288 94.3231 107.367 94.0523 107.367C93.7957 107.367 93.6033 107.288 93.475 107.132C93.3467 106.975 93.2826 106.761 93.2826 106.49C93.2826 106.219 93.3467 106.006 93.475 105.849C93.6033 105.685 93.7957 105.603 94.0523 105.603ZM103.609 109.676C105.106 109.676 106.264 110.178 107.084 111.183C107.91 112.188 108.324 113.671 108.324 115.63C108.324 116.942 108.128 118.054 107.736 118.966C107.344 119.871 106.784 120.559 106.057 121.029C105.338 121.499 104.472 121.734 103.46 121.734C102.761 121.734 102.152 121.631 101.632 121.424C101.118 121.211 100.691 120.926 100.349 120.569C100.007 120.206 99.743 119.807 99.5577 119.372H99.4829C99.5043 119.778 99.5221 120.202 99.5364 120.644C99.5506 121.086 99.5577 121.503 99.5577 121.895V126.663H98.4673V109.9H99.3653L99.4936 112.22H99.5577C99.7502 111.778 100.021 111.361 100.37 110.969C100.719 110.578 101.161 110.264 101.696 110.029C102.23 109.794 102.868 109.676 103.609 109.676ZM103.47 110.627C102.594 110.627 101.863 110.82 101.279 111.205C100.702 111.582 100.27 112.138 99.9853 112.872C99.7074 113.599 99.5649 114.49 99.5577 115.545V115.727C99.5577 116.86 99.6967 117.804 99.9746 118.56C100.26 119.308 100.684 119.867 101.247 120.238C101.817 120.608 102.522 120.794 103.363 120.794C104.19 120.794 104.889 120.591 105.459 120.184C106.029 119.778 106.464 119.19 106.763 118.421C107.062 117.651 107.212 116.717 107.212 115.62C107.212 113.988 106.898 112.748 106.271 111.9C105.651 111.051 104.718 110.627 103.47 110.627ZM118.768 118.474C118.768 119.165 118.593 119.757 118.244 120.249C117.902 120.733 117.4 121.104 116.737 121.36C116.074 121.61 115.258 121.734 114.289 121.734C113.483 121.734 112.764 121.663 112.129 121.521C111.495 121.378 110.964 121.204 110.537 120.997V119.928C111.071 120.192 111.663 120.405 112.311 120.569C112.96 120.733 113.626 120.815 114.31 120.815C115.507 120.815 116.37 120.612 116.897 120.206C117.425 119.8 117.688 119.244 117.688 118.538C117.688 118.075 117.556 117.694 117.293 117.394C117.036 117.088 116.666 116.824 116.181 116.603C115.696 116.382 115.112 116.158 114.428 115.93C113.715 115.687 113.081 115.449 112.525 115.213C111.976 114.971 111.545 114.654 111.231 114.262C110.918 113.863 110.761 113.321 110.761 112.637C110.761 111.704 111.135 110.977 111.884 110.456C112.632 109.936 113.637 109.676 114.898 109.676C115.597 109.676 116.245 109.744 116.844 109.879C117.45 110.007 117.998 110.175 118.49 110.382L118.105 111.301C117.663 111.094 117.154 110.927 116.577 110.798C115.999 110.67 115.422 110.606 114.845 110.606C113.897 110.606 113.156 110.773 112.621 111.108C112.087 111.443 111.819 111.935 111.819 112.584C111.819 113.083 111.948 113.475 112.204 113.76C112.461 114.038 112.828 114.273 113.305 114.465C113.783 114.65 114.349 114.857 115.005 115.085C115.682 115.32 116.306 115.566 116.876 115.823C117.453 116.079 117.913 116.411 118.255 116.817C118.597 117.223 118.768 117.776 118.768 118.474ZM130.73 109.9V121.521H129.854L129.693 119.425H129.629C129.43 119.853 129.148 120.241 128.785 120.591C128.421 120.94 127.976 121.218 127.448 121.424C126.921 121.631 126.308 121.734 125.61 121.734C124.719 121.734 123.971 121.581 123.365 121.275C122.766 120.961 122.314 120.491 122.007 119.864C121.701 119.237 121.547 118.453 121.547 117.512V109.9H122.627V117.405C122.627 118.567 122.887 119.422 123.408 119.971C123.935 120.519 124.705 120.794 125.717 120.794C126.572 120.794 127.288 120.63 127.865 120.302C128.45 119.974 128.892 119.479 129.191 118.816C129.497 118.146 129.651 117.312 129.651 116.315V109.9H130.73ZM146.627 109.676C147.746 109.676 148.629 110 149.278 110.649C149.926 111.297 150.251 112.32 150.251 113.717V121.521H149.192V113.76C149.192 112.683 148.946 111.892 148.455 111.386C147.963 110.88 147.314 110.627 146.509 110.627C145.404 110.627 144.538 110.952 143.911 111.6C143.291 112.242 142.981 113.254 142.981 114.636V121.521H141.912V113.76C141.912 113.04 141.798 112.452 141.57 111.996C141.349 111.532 141.039 111.19 140.64 110.969C140.241 110.741 139.771 110.627 139.229 110.627C138.509 110.627 137.886 110.777 137.358 111.076C136.831 111.369 136.425 111.825 136.14 112.445C135.854 113.058 135.712 113.838 135.712 114.786V121.521H134.632V109.9H135.509L135.669 111.803H135.733C135.926 111.426 136.182 111.076 136.503 110.756C136.824 110.435 137.219 110.175 137.69 109.975C138.167 109.776 138.727 109.676 139.368 109.676C140.202 109.676 140.907 109.865 141.485 110.243C142.069 110.613 142.475 111.165 142.703 111.9H142.778C143.092 111.201 143.576 110.656 144.232 110.264C144.895 109.872 145.693 109.676 146.627 109.676Z" fill="black"/>
<circle opacity="0.5" cx="326.978" cy="75.8007" r="46.5237" stroke="black" stroke-width="9.12229"/>
<path d="M275.221 70.3697C274.262 80.7095 276.477 91.0961 281.571 100.145C286.664 109.194 294.395 116.477 303.732 121.021C313.069 125.565 323.569 127.156 333.833 125.582C344.097 124.008 353.638 119.343 361.184 112.208C368.729 105.074 373.922 95.8102 376.069 85.6503C378.216 75.4905 377.216 64.9176 373.202 55.3406C369.187 45.7635 362.35 37.6373 353.6 32.0447C344.851 26.452 334.605 23.6587 324.227 24.0369L324.623 34.8832C332.795 34.5854 340.864 36.7853 347.755 41.1897C354.646 45.5941 360.03 51.9938 363.192 59.5361C366.353 67.0784 367.141 75.4049 365.45 83.4062C363.759 91.4075 359.67 98.7034 353.727 104.322C347.785 109.94 340.271 113.614 332.188 114.854C324.104 116.094 315.835 114.841 308.481 111.262C301.128 107.683 295.04 101.948 291.029 94.8215C287.017 87.6949 285.273 79.5151 286.029 71.3721L275.221 70.3697Z" fill="#32EB66"/>
<path d="M342.584 73.9283V75.5C342.582 79.1839 341.389 82.7684 339.183 85.7189C336.977 88.6695 333.877 90.828 330.344 91.8725C326.811 92.917 323.036 92.7916 319.58 91.5149C316.124 90.2382 313.174 87.8787 311.169 84.7883C309.164 81.6979 308.212 78.0421 308.454 74.3662C308.696 70.6903 310.121 67.1912 312.514 64.3908C314.908 61.5904 318.142 59.6387 321.735 58.8269C325.329 58.015 329.088 58.3865 332.453 59.8858" stroke="#32EB66" stroke-width="4" stroke-linecap="round" stroke-linejoin="round"/>
<path d="M342.583 61.8333L325.5 78.9337L320.375 73.8087" stroke="#32EB66" stroke-width="4" stroke-linecap="round" stroke-linejoin="round"/>
</svg>
