<svg width="345" height="145" viewBox="0 0 345 145" fill="none" xmlns="http://www.w3.org/2000/svg">
<rect width="337.525" height="138.659" rx="27.3669" fill="white"/>
<path d="M35.4434 47.2446H24.5661V27.7083H35.4434V29.7127H26.8378V36.0332H34.9489V38.0109H26.8378V45.2402H35.4434V47.2446ZM46.0935 32.3318C46.3874 32.3318 46.6948 32.3496 47.0155 32.3852C47.3362 32.4119 47.6213 32.452 47.8707 32.5055L47.5901 34.5633C47.3496 34.501 47.0823 34.452 46.7883 34.4163C46.4943 34.3807 46.2182 34.3629 45.9598 34.3629C45.3719 34.3629 44.8151 34.4832 44.2895 34.7237C43.7728 34.9553 43.3185 35.2938 42.9265 35.7393C42.5345 36.1758 42.2272 36.7058 42.0045 37.3294C41.7817 37.9441 41.6704 38.6301 41.6704 39.3873V47.2446H39.4388V32.599H41.2829L41.5234 35.2983H41.6169C41.9198 34.7549 42.2851 34.2605 42.7127 33.815C43.1403 33.3607 43.6347 32.9999 44.1959 32.7326C44.7661 32.4654 45.3986 32.3318 46.0935 32.3318ZM57.2914 32.3318C57.5854 32.3318 57.8927 32.3496 58.2134 32.3852C58.5342 32.4119 58.8192 32.452 59.0687 32.5055L58.788 34.5633C58.5475 34.501 58.2803 34.452 57.9863 34.4163C57.6923 34.3807 57.4161 34.3629 57.1578 34.3629C56.5698 34.3629 56.0131 34.4832 55.4875 34.7237C54.9708 34.9553 54.5164 35.2938 54.1245 35.7393C53.7325 36.1758 53.4251 36.7058 53.2024 37.3294C52.9797 37.9441 52.8684 38.6301 52.8684 39.3873V47.2446H50.6368V32.599H52.4808L52.7214 35.2983H52.8149C53.1178 34.7549 53.483 34.2605 53.9107 33.815C54.3383 33.3607 54.8327 32.9999 55.3939 32.7326C55.9641 32.4654 56.5966 32.3318 57.2914 32.3318ZM74.4625 39.8951C74.4625 41.0977 74.3066 42.1712 73.9948 43.1155C73.683 44.0598 73.2332 44.8571 72.6452 45.5074C72.0572 46.1577 71.3446 46.6566 70.5072 47.004C69.6787 47.3426 68.7388 47.5118 67.6876 47.5118C66.7077 47.5118 65.8079 47.3426 64.9884 47.004C64.1777 46.6566 63.4739 46.1577 62.877 45.5074C62.2891 44.8571 61.8303 44.0598 61.5007 43.1155C61.18 42.1712 61.0196 41.0977 61.0196 39.8951C61.0196 38.2915 61.2913 36.9285 61.8348 35.8061C62.3782 34.6747 63.1532 33.815 64.1599 33.2271C65.1754 32.6302 66.3825 32.3318 67.7812 32.3318C69.1174 32.3318 70.2844 32.6302 71.2822 33.2271C72.2889 33.8239 73.0684 34.6881 73.6207 35.8194C74.1819 36.9419 74.4625 38.3004 74.4625 39.8951ZM63.318 39.8951C63.318 41.071 63.4739 42.091 63.7857 42.9551C64.0975 43.8193 64.5786 44.4874 65.2289 44.9595C65.8792 45.4317 66.7166 45.6678 67.7411 45.6678C68.7566 45.6678 69.5896 45.4317 70.2399 44.9595C70.8991 44.4874 71.3846 43.8193 71.6964 42.9551C72.0082 42.091 72.1641 41.071 72.1641 39.8951C72.1641 38.7281 72.0082 37.7214 71.6964 36.8751C71.3846 36.0199 70.9036 35.3606 70.2533 34.8974C69.6029 34.4342 68.7611 34.2025 67.7277 34.2025C66.2044 34.2025 65.0863 34.7059 64.3737 35.7125C63.6699 36.7192 63.318 38.1134 63.318 39.8951ZM84.9523 32.3318C85.2462 32.3318 85.5536 32.3496 85.8743 32.3852C86.195 32.4119 86.4801 32.452 86.7295 32.5055L86.4489 34.5633C86.2084 34.501 85.9411 34.452 85.6471 34.4163C85.3532 34.3807 85.077 34.3629 84.8186 34.3629C84.2307 34.3629 83.6739 34.4832 83.1483 34.7237C82.6316 34.9553 82.1773 35.2938 81.7853 35.7393C81.3933 36.1758 81.086 36.7058 80.8633 37.3294C80.6406 37.9441 80.5292 38.6301 80.5292 39.3873V47.2446H78.2976V32.599H80.1417L80.3822 35.2983H80.4758C80.7786 34.7549 81.1439 34.2605 81.5715 33.815C81.9991 33.3607 82.4935 32.9999 83.0548 32.7326C83.6249 32.4654 84.2574 32.3318 84.9523 32.3318ZM98.9698 43.2357C98.9698 44.1711 98.7337 44.9595 98.2615 45.601C97.7983 46.2335 97.1302 46.7101 96.2571 47.0308C95.393 47.3515 94.3596 47.5118 93.157 47.5118C92.1325 47.5118 91.2461 47.4316 90.4978 47.2713C89.7495 47.1109 89.0947 46.8838 88.5335 46.5898V44.5453C89.1303 44.8393 89.843 45.1065 90.6715 45.3471C91.5 45.5876 92.3463 45.7079 93.2104 45.7079C94.4754 45.7079 95.393 45.503 95.9632 45.0932C96.5333 44.6834 96.8184 44.1266 96.8184 43.4228C96.8184 43.0219 96.7026 42.6701 96.4709 42.3672C96.2482 42.0554 95.8696 41.7569 95.3351 41.4719C94.8006 41.1779 94.0612 40.8572 93.1169 40.5098C92.1815 40.1534 91.3708 39.8015 90.6849 39.4541C90.0078 39.0978 89.4822 38.6657 89.1081 38.1579C88.7428 37.6501 88.5602 36.9909 88.5602 36.1802C88.5602 34.9419 89.0591 33.9932 90.0568 33.334C91.0635 32.6658 92.3819 32.3318 94.0122 32.3318C94.8941 32.3318 95.7182 32.4208 96.4843 32.599C97.2593 32.7683 97.9809 32.9999 98.6491 33.2939L97.9008 35.0711C97.295 34.8128 96.6491 34.5945 95.9632 34.4163C95.2772 34.2382 94.5779 34.1491 93.8652 34.1491C92.8407 34.1491 92.0523 34.3184 91.5 34.6569C90.9566 34.9954 90.6849 35.4586 90.6849 36.0466C90.6849 36.5009 90.8096 36.8751 91.059 37.1691C91.3174 37.4631 91.7272 37.7392 92.2884 37.9976C92.8496 38.2559 93.589 38.5588 94.5066 38.9062C95.4242 39.2447 96.217 39.5966 96.8852 39.9619C97.5533 40.3182 98.0656 40.7547 98.4219 41.2714C98.7871 41.7792 98.9698 42.434 98.9698 43.2357Z" fill="#808080"/>
<path d="M24.0957 121.521V105.892H25.1968V120.516H32.6372V121.521H24.0957ZM44.685 115.695C44.685 116.593 44.5746 117.412 44.3536 118.153C44.1327 118.887 43.8049 119.522 43.3701 120.056C42.9354 120.591 42.3938 121.004 41.7452 121.296C41.1038 121.588 40.3555 121.735 39.5003 121.735C38.6878 121.735 37.9645 121.592 37.3302 121.307C36.6959 121.015 36.1578 120.601 35.716 120.067C35.2812 119.532 34.9498 118.898 34.7218 118.164C34.4937 117.423 34.3797 116.6 34.3797 115.695C34.3797 114.447 34.5864 113.375 34.9997 112.477C35.4202 111.572 36.0188 110.88 36.7957 110.403C37.5796 109.918 38.5168 109.676 39.6072 109.676C40.7332 109.676 41.6704 109.933 42.4187 110.446C43.1741 110.952 43.7407 111.657 44.1184 112.562C44.4962 113.467 44.685 114.512 44.685 115.695ZM35.4915 115.695C35.4915 116.714 35.6376 117.605 35.9298 118.367C36.222 119.13 36.6638 119.725 37.2553 120.152C37.854 120.58 38.6094 120.794 39.5217 120.794C40.4553 120.794 41.2214 120.58 41.8201 120.152C42.4187 119.725 42.8606 119.126 43.1456 118.356C43.4307 117.587 43.5732 116.699 43.5732 115.695C43.5732 114.718 43.4378 113.849 43.167 113.086C42.8962 112.324 42.4686 111.725 41.8842 111.29C41.2998 110.848 40.5372 110.627 39.5965 110.627C38.2495 110.627 37.2268 111.076 36.5284 111.974C35.8371 112.872 35.4915 114.112 35.4915 115.695ZM52.5209 109.697C52.8274 109.697 53.116 109.715 53.3868 109.751C53.6577 109.786 53.9107 109.836 54.1458 109.901L53.9748 110.895C53.7396 110.831 53.5009 110.784 53.2586 110.756C53.0162 110.72 52.7561 110.702 52.4782 110.702C51.9294 110.702 51.4377 110.806 51.0029 111.012C50.5753 111.219 50.2118 111.515 49.9125 111.9C49.6132 112.284 49.3851 112.748 49.2284 113.289C49.0716 113.831 48.9932 114.437 48.9932 115.107V121.521H47.9028V109.901H48.8328L48.9397 112.092H49.0039C49.182 111.643 49.4315 111.24 49.7522 110.884C50.08 110.521 50.4755 110.232 50.9388 110.018C51.402 109.804 51.9294 109.697 52.5209 109.697ZM60.8272 109.676C61.8178 109.676 62.641 109.908 63.2966 110.371C63.9594 110.834 64.4512 111.468 64.7719 112.274C65.0997 113.079 65.2636 114.002 65.2636 115.043V115.823H56.8718C56.8718 117.419 57.2389 118.645 57.9729 119.5C58.7141 120.356 59.7724 120.783 61.1479 120.783C61.8677 120.783 62.4913 120.726 63.0187 120.612C63.5532 120.491 64.1447 120.288 64.7933 120.003V120.997C64.2231 121.253 63.653 121.439 63.0828 121.553C62.5127 121.674 61.857 121.735 61.1158 121.735C59.9399 121.735 58.9529 121.492 58.1547 121.008C57.3636 120.516 56.7649 119.825 56.3587 118.934C55.9596 118.043 55.7601 117.002 55.7601 115.812C55.7601 114.651 55.9525 113.606 56.3373 112.68C56.7293 111.753 57.2994 111.023 58.0478 110.488C58.8032 109.947 59.7297 109.676 60.8272 109.676ZM60.8165 110.606C59.7047 110.606 58.8032 110.977 58.1119 111.718C57.4277 112.452 57.0251 113.514 56.9039 114.904H64.1412C64.1412 114.055 64.02 113.307 63.7777 112.659C63.5354 112.01 63.1683 111.508 62.6766 111.151C62.192 110.788 61.5719 110.606 60.8165 110.606ZM80.4544 109.676C81.5733 109.676 82.457 110 83.1055 110.649C83.7541 111.297 84.0783 112.32 84.0783 113.717V121.521H83.02V113.76C83.02 112.684 82.7741 111.892 82.2824 111.386C81.7906 110.88 81.1421 110.627 80.3368 110.627C79.2321 110.627 78.3662 110.952 77.7391 111.6C77.119 112.242 76.809 113.254 76.809 114.636V121.521H75.74V113.76C75.74 113.04 75.626 112.452 75.3979 111.996C75.177 111.533 74.867 111.19 74.4679 110.97C74.0688 110.741 73.5984 110.627 73.0568 110.627C72.337 110.627 71.7134 110.777 71.186 111.076C70.6586 111.369 70.2524 111.825 69.9673 112.445C69.6822 113.058 69.5397 113.838 69.5397 114.786V121.521H68.46V109.901H69.3366L69.4969 111.803H69.5611C69.7535 111.426 70.0101 111.076 70.3308 110.756C70.6515 110.435 71.047 110.175 71.5174 109.975C71.9949 109.776 72.5543 109.676 73.1957 109.676C74.0296 109.676 74.7351 109.865 75.3124 110.243C75.8968 110.613 76.303 111.166 76.5311 111.9H76.6059C76.9195 111.201 77.4041 110.656 78.0598 110.264C78.7226 109.872 79.5208 109.676 80.4544 109.676ZM94.5761 109.901V121.521H93.4964V109.901H94.5761ZM94.0523 105.603C94.3231 105.603 94.5227 105.685 94.6509 105.849C94.7792 106.006 94.8434 106.22 94.8434 106.49C94.8434 106.761 94.7792 106.975 94.6509 107.132C94.5227 107.289 94.3231 107.367 94.0523 107.367C93.7957 107.367 93.6033 107.289 93.475 107.132C93.3467 106.975 93.2826 106.761 93.2826 106.49C93.2826 106.22 93.3467 106.006 93.475 105.849C93.6033 105.685 93.7957 105.603 94.0523 105.603ZM103.609 109.676C105.106 109.676 106.264 110.178 107.084 111.183C107.91 112.188 108.324 113.671 108.324 115.63C108.324 116.942 108.128 118.054 107.736 118.966C107.344 119.871 106.784 120.559 106.057 121.029C105.338 121.499 104.472 121.735 103.46 121.735C102.761 121.735 102.152 121.631 101.632 121.425C101.118 121.211 100.691 120.926 100.349 120.569C100.007 120.206 99.743 119.807 99.5577 119.372H99.4829C99.5043 119.778 99.5221 120.202 99.5364 120.644C99.5506 121.086 99.5577 121.503 99.5577 121.895V126.663H98.4673V109.901H99.3653L99.4936 112.22H99.5577C99.7502 111.778 100.021 111.362 100.37 110.97C100.719 110.578 101.161 110.264 101.696 110.029C102.23 109.794 102.868 109.676 103.609 109.676ZM103.47 110.627C102.594 110.627 101.863 110.82 101.279 111.205C100.702 111.582 100.27 112.138 99.9853 112.872C99.7074 113.599 99.5649 114.49 99.5577 115.545V115.727C99.5577 116.86 99.6967 117.804 99.9746 118.56C100.26 119.308 100.684 119.867 101.247 120.238C101.817 120.609 102.522 120.794 103.363 120.794C104.19 120.794 104.889 120.591 105.459 120.184C106.029 119.778 106.464 119.19 106.763 118.421C107.062 117.651 107.212 116.717 107.212 115.62C107.212 113.988 106.898 112.748 106.271 111.9C105.651 111.051 104.718 110.627 103.47 110.627ZM118.768 118.474C118.768 119.165 118.593 119.757 118.244 120.249C117.902 120.733 117.4 121.104 116.737 121.36C116.074 121.61 115.258 121.735 114.289 121.735C113.483 121.735 112.764 121.663 112.129 121.521C111.495 121.378 110.964 121.204 110.537 120.997V119.928C111.071 120.192 111.663 120.405 112.311 120.569C112.96 120.733 113.626 120.815 114.31 120.815C115.507 120.815 116.37 120.612 116.897 120.206C117.425 119.8 117.688 119.244 117.688 118.538C117.688 118.075 117.556 117.694 117.293 117.394C117.036 117.088 116.666 116.824 116.181 116.603C115.696 116.382 115.112 116.158 114.428 115.93C113.715 115.687 113.081 115.449 112.525 115.214C111.976 114.971 111.545 114.654 111.231 114.262C110.918 113.863 110.761 113.321 110.761 112.637C110.761 111.704 111.135 110.977 111.884 110.456C112.632 109.936 113.637 109.676 114.898 109.676C115.597 109.676 116.245 109.744 116.844 109.879C117.45 110.007 117.998 110.175 118.49 110.382L118.105 111.301C117.663 111.094 117.154 110.927 116.577 110.798C115.999 110.67 115.422 110.606 114.845 110.606C113.897 110.606 113.156 110.774 112.621 111.109C112.087 111.443 111.819 111.935 111.819 112.584C111.819 113.083 111.948 113.475 112.204 113.76C112.461 114.038 112.828 114.273 113.305 114.465C113.783 114.651 114.349 114.857 115.005 115.085C115.682 115.32 116.306 115.566 116.876 115.823C117.453 116.079 117.913 116.411 118.255 116.817C118.597 117.223 118.768 117.776 118.768 118.474ZM130.73 109.901V121.521H129.854L129.693 119.425H129.629C129.43 119.853 129.148 120.241 128.785 120.591C128.421 120.94 127.976 121.218 127.448 121.425C126.921 121.631 126.308 121.735 125.61 121.735C124.719 121.735 123.971 121.581 123.365 121.275C122.766 120.961 122.314 120.491 122.007 119.864C121.701 119.237 121.547 118.453 121.547 117.512V109.901H122.627V117.405C122.627 118.567 122.887 119.422 123.408 119.971C123.935 120.519 124.705 120.794 125.717 120.794C126.572 120.794 127.288 120.63 127.865 120.302C128.45 119.974 128.892 119.479 129.191 118.816C129.497 118.146 129.651 117.312 129.651 116.315V109.901H130.73ZM146.627 109.676C147.746 109.676 148.629 110 149.278 110.649C149.926 111.297 150.251 112.32 150.251 113.717V121.521H149.192V113.76C149.192 112.684 148.946 111.892 148.455 111.386C147.963 110.88 147.314 110.627 146.509 110.627C145.404 110.627 144.538 110.952 143.911 111.6C143.291 112.242 142.981 113.254 142.981 114.636V121.521H141.912V113.76C141.912 113.04 141.798 112.452 141.57 111.996C141.349 111.533 141.039 111.19 140.64 110.97C140.241 110.741 139.771 110.627 139.229 110.627C138.509 110.627 137.886 110.777 137.358 111.076C136.831 111.369 136.425 111.825 136.14 112.445C135.854 113.058 135.712 113.838 135.712 114.786V121.521H134.632V109.901H135.509L135.669 111.803H135.733C135.926 111.426 136.182 111.076 136.503 110.756C136.824 110.435 137.219 110.175 137.69 109.975C138.167 109.776 138.727 109.676 139.368 109.676C140.202 109.676 140.907 109.865 141.485 110.243C142.069 110.613 142.475 111.166 142.703 111.9H142.778C143.092 111.201 143.576 110.656 144.232 110.264C144.895 109.872 145.693 109.676 146.627 109.676Z" fill="black"/>
<circle opacity="0.5" cx="273.669" cy="73.625" r="46.5237" stroke="black" stroke-width="9.12229"/>
<path d="M221.912 68.194C220.953 78.5338 223.168 88.9204 228.261 97.9696C233.355 107.019 241.085 114.301 250.422 118.845C259.759 123.39 270.259 124.981 280.524 123.406C290.788 121.832 300.328 117.167 307.874 110.033C315.42 102.899 320.612 93.6345 322.759 83.4747C324.906 73.3148 323.906 62.7419 319.892 53.1649C315.878 43.5879 309.04 35.4616 300.291 29.869C291.541 24.2764 281.295 21.483 270.918 21.8612L271.313 32.7076C279.486 32.4097 287.555 34.6096 294.446 39.014C301.336 43.4184 306.721 49.8182 309.882 57.3604C313.043 64.9027 313.831 73.2293 312.14 81.2305C310.449 89.2318 306.36 96.5277 300.418 102.146C294.475 107.764 286.961 111.438 278.878 112.678C270.795 113.918 262.525 112.665 255.172 109.086C247.819 105.507 241.731 99.7725 237.719 92.6459C233.708 85.5193 231.964 77.3394 232.719 69.1964L221.912 68.194Z" fill="#F4324A"/>
<path d="M267.799 57.5204L254.423 79.851C254.147 80.3286 254.002 80.87 254 81.4216C253.998 81.9731 254.141 82.5154 254.414 82.9945C254.688 83.4736 255.081 83.8729 255.557 84.1526C256.032 84.4323 256.572 84.5826 257.124 84.5887H283.876C284.428 84.5826 284.968 84.4323 285.443 84.1526C285.919 83.8729 286.312 83.4736 286.586 82.9945C286.859 82.5154 287.002 81.9731 287 81.4216C286.998 80.87 286.853 80.3286 286.577 79.851L273.201 57.5204C272.919 57.0563 272.523 56.6725 272.05 56.4062C271.577 56.1399 271.043 56 270.5 56C269.957 56 269.423 56.1399 268.95 56.4062C268.477 56.6725 268.081 57.0563 267.799 57.5204V57.5204Z" stroke="#E22828" stroke-width="4" stroke-linecap="round" stroke-linejoin="round"/>
<path d="M270.5 65.6378V71.9547" stroke="#E22828" stroke-width="4" stroke-linecap="round" stroke-linejoin="round"/>
<path d="M270.5 78.2717H270.516" stroke="#E22828" stroke-width="4" stroke-linecap="round" stroke-linejoin="round"/>
</svg>
