<svg width="473" height="453" viewBox="0 0 473 453" fill="none" xmlns="http://www.w3.org/2000/svg">
<path d="M69 220.468C-23 273.548 -23 359.608 69 412.688C161 465.768 310 465.768 401.93 412.688C493.86 359.608 493.86 273.548 401.93 220.468C310 167.388 160.89 167.388 69 220.468Z" fill="#FAFAFA"/>
<path d="M402.88 429.618C441.518 429.618 472.84 411.535 472.84 389.228C472.84 366.922 441.518 348.838 402.88 348.838C364.242 348.838 332.92 366.922 332.92 389.228C332.92 411.535 364.242 429.618 402.88 429.618Z" fill="#E0E0E0"/>
<path d="M216.78 311.738L39.69 413.928C37.93 414.928 37.93 416.598 39.69 417.618L63.27 431.208C64.2597 431.706 65.3522 431.965 66.46 431.965C67.5678 431.965 68.6603 431.706 69.65 431.208L246.75 328.998C248.51 327.998 248.51 326.328 246.75 325.308L223.17 311.728C222.178 311.232 221.083 310.974 219.974 310.976C218.864 310.978 217.771 311.239 216.78 311.738Z" fill="#E0E0E0"/>
<path d="M49.19 421.618L60.33 415.208C60.33 415.208 66.97 387.638 64.33 362.828C60.62 327.958 37.66 314.828 28.93 317.828C20.2 320.828 17.67 330.998 32.12 351.758C40.63 363.998 51.1 389.518 49.19 421.618Z" fill="#1A41E7"/>
<g opacity="0.65">
<path d="M49.19 421.618L60.33 415.208C60.33 415.208 66.97 387.638 64.33 362.828C60.62 327.958 37.66 314.828 28.93 317.828C20.2 320.828 17.67 330.998 32.12 351.758C40.63 363.998 51.1 389.518 49.19 421.618Z" fill="white"/>
</g>
<path d="M53.81 408.068H53.7C53.6004 408.051 53.5052 408.015 53.4199 407.961C53.3346 407.907 53.261 407.836 53.2033 407.753C53.1455 407.671 53.1049 407.577 53.0837 407.478C53.0626 407.38 53.0613 407.278 53.08 407.178C59.19 375.008 47.96 338.858 34.08 323.818C34.0083 323.747 33.9515 323.662 33.9127 323.568C33.8739 323.475 33.8539 323.375 33.8539 323.273C33.8539 323.172 33.8739 323.072 33.9127 322.978C33.9515 322.885 34.0083 322.8 34.08 322.728C34.2262 322.583 34.4239 322.501 34.63 322.501C34.8361 322.501 35.0338 322.583 35.18 322.728C49.35 337.998 60.8 374.778 54.6 407.418C54.5728 407.606 54.4768 407.776 54.3307 407.896C54.1846 408.016 53.999 408.078 53.81 408.068Z" fill="white"/>
<path d="M21.13 437.808C19.47 438.658 15.04 434.868 13.8 433.948C11.6995 432.339 10.0469 430.218 9 427.788C7.79955 425.021 7.49193 421.948 8.12 418.998C8.4478 417.447 8.88216 415.92 9.42 414.428C9.92 412.958 10.42 411.428 10.94 410.008C11.5306 408.586 11.8298 407.059 11.82 405.518C11.58 402.428 8.97 400.138 6.59 398.158C3.95 395.968 1.24 393.158 1.44 389.428C1.59 386.578 3.2 384.008 5.08 381.858C6.96 379.708 9.16 377.858 10.87 375.558C12.1902 374 12.9414 372.04 13 369.998C12.9185 368.71 12.5784 367.452 12 366.298C10.82 363.828 9.21 361.538 8.44 358.908C7.67 356.278 7.96 353.078 10.07 351.328C11.8 349.888 14.27 349.808 16.51 350.068C18.5913 350.438 20.5691 351.249 22.31 352.448C28 355.998 31 363.118 37.06 365.938C39.41 367.028 42.06 367.368 44.5 368.158C46.94 368.948 49.5 370.358 50.5 372.728C52.5 377.408 48.03 382.818 49.39 387.728C50.59 392.088 54.68 393.938 56.82 397.918C57.6919 399.672 57.9759 401.66 57.63 403.588C57.2671 406.872 56.3044 410.062 54.79 412.998C53.0906 415.996 51.2105 418.888 49.16 421.658C49.16 421.658 21.42 437.678 21.13 437.808Z" fill="#1A41E7"/>
<g opacity="0.3">
<path d="M21.13 437.808C19.47 438.658 15.04 434.868 13.8 433.948C11.6995 432.339 10.0469 430.218 9 427.788C7.79955 425.021 7.49193 421.948 8.12 418.998C8.4478 417.447 8.88216 415.92 9.42 414.428C9.92 412.958 10.42 411.428 10.94 410.008C11.5306 408.586 11.8298 407.059 11.82 405.518C11.58 402.428 8.97 400.138 6.59 398.158C3.95 395.968 1.24 393.158 1.44 389.428C1.59 386.578 3.2 384.008 5.08 381.858C6.96 379.708 9.16 377.858 10.87 375.558C12.1902 374 12.9414 372.04 13 369.998C12.9185 368.71 12.5784 367.452 12 366.298C10.82 363.828 9.21 361.538 8.44 358.908C7.67 356.278 7.96 353.078 10.07 351.328C11.8 349.888 14.27 349.808 16.51 350.068C18.5913 350.438 20.5691 351.249 22.31 352.448C28 355.998 31 363.118 37.06 365.938C39.41 367.028 42.06 367.368 44.5 368.158C46.94 368.948 49.5 370.358 50.5 372.728C52.5 377.408 48.03 382.818 49.39 387.728C50.59 392.088 54.68 393.938 56.82 397.918C57.6919 399.672 57.9759 401.66 57.63 403.588C57.2671 406.872 56.3044 410.062 54.79 412.998C53.0906 415.996 51.2105 418.888 49.16 421.658C49.16 421.658 21.42 437.678 21.13 437.808Z" fill="white"/>
</g>
<path d="M37.27 429.398C37.1758 429.393 37.0836 429.369 36.9987 429.328C36.9138 429.287 36.8379 429.23 36.7756 429.159C36.7132 429.088 36.6655 429.006 36.6354 428.916C36.6052 428.827 36.5932 428.732 36.6 428.638C39.26 399.708 27.22 367.008 17.75 357.208C17.6365 357.072 17.578 356.899 17.586 356.722C17.594 356.544 17.6679 356.377 17.7932 356.252C17.9185 356.126 18.0862 356.052 18.2632 356.044C18.4403 356.036 18.6139 356.095 18.75 356.208C28.41 366.208 40.75 399.448 38 428.788C37.9733 428.961 37.8844 429.119 37.7501 429.231C37.6157 429.343 37.445 429.403 37.27 429.398Z" fill="white"/>
<path d="M34.42 393.728H34.21C25.01 390.338 13.42 389.208 13.31 389.208C13.2158 389.202 13.1237 389.177 13.0393 389.135C12.9549 389.092 12.8797 389.034 12.8183 388.962C12.7568 388.89 12.7103 388.807 12.6814 388.717C12.6525 388.627 12.6418 388.532 12.65 388.438C12.6603 388.254 12.7428 388.082 12.8794 387.958C13.0161 387.835 13.196 387.77 13.38 387.778H13.44C13.56 387.778 25.33 388.898 34.68 392.308C34.7716 392.339 34.8562 392.387 34.9289 392.45C35.0017 392.514 35.0612 392.591 35.104 392.677C35.1468 392.764 35.172 392.858 35.1781 392.954C35.1843 393.05 35.1714 393.147 35.14 393.238C35.0903 393.394 34.9886 393.527 34.852 393.617C34.7154 393.706 34.5523 393.745 34.39 393.728H34.42Z" fill="white"/>
<path d="M234.09 0.758291L63.87 98.9183C62.9424 99.5203 62.1706 100.333 61.6179 101.291C61.0652 102.249 60.7472 103.324 60.69 104.428V416.508C60.7498 417.612 61.0701 418.685 61.6245 419.641C62.179 420.597 62.9519 421.408 63.88 422.008L64.52 422.378C65.5097 422.876 66.6022 423.135 67.71 423.135C68.8178 423.135 69.9103 422.876 70.9 422.378L241.12 324.078C242.049 323.475 242.822 322.661 243.374 321.701C243.927 320.741 244.244 319.664 244.3 318.558V6.61829C244.24 5.51481 243.92 4.44116 243.365 3.48521C242.811 2.52926 242.038 1.71816 241.11 1.11829L240.46 0.748291C239.471 0.254488 238.38 -0.00172719 237.274 8.76267e-06C236.168 0.00174471 235.078 0.261384 234.09 0.758291Z" fill="#1A41E7"/>
<path opacity="0.45" d="M234.09 0.758291L63.87 98.9183C62.9424 99.5203 62.1706 100.333 61.6179 101.291C61.0652 102.249 60.7472 103.324 60.69 104.428V416.508C60.7498 417.612 61.0701 418.685 61.6245 419.641C62.179 420.597 62.9519 421.408 63.88 422.008L64.52 422.378C65.5097 422.876 66.6022 423.135 67.71 423.135C68.8178 423.135 69.9103 422.876 70.9 422.378L241.12 324.078C242.049 323.475 242.822 322.661 243.374 321.701C243.927 320.741 244.244 319.664 244.3 318.558V6.61829C244.24 5.51481 243.92 4.44116 243.365 3.48521C242.811 2.52926 242.038 1.71816 241.11 1.11829L240.46 0.748291C239.471 0.254488 238.38 -0.00172719 237.274 8.76267e-06C236.168 0.00174471 235.078 0.261384 234.09 0.758291Z" fill="black"/>
<path d="M244.3 318.788C244.3 321.588 242.3 323.368 239.9 324.788L72.11 421.638C69.69 423.038 67.71 421.908 67.71 419.098V109.828C67.7051 108.285 68.1075 106.768 68.8765 105.43C69.6456 104.092 70.7541 102.981 72.09 102.208L239.9 5.33829C240.346 5.07977 240.852 4.94337 241.367 4.94285C241.882 4.94233 242.389 5.0777 242.835 5.33531C243.281 5.59292 243.652 5.96366 243.909 6.41013C244.166 6.8566 244.301 7.36302 244.3 7.87829V318.788Z" fill="#1A41E7"/>
<path opacity="0.3" d="M244.3 318.788C244.3 321.588 242.3 323.368 239.9 324.788L72.11 421.638C69.69 423.038 67.71 421.908 67.71 419.098V109.828C67.7051 108.285 68.1075 106.768 68.8765 105.43C69.6456 104.092 70.7541 102.981 72.09 102.208L239.9 5.33829C240.346 5.07977 240.852 4.94337 241.367 4.94285C241.882 4.94233 242.389 5.0777 242.835 5.33531C243.281 5.59292 243.652 5.96366 243.909 6.41013C244.166 6.8566 244.301 7.36302 244.3 7.87829V318.788Z" fill="black"/>
<path d="M244.3 6.61829V7.86829C244.294 7.35476 244.154 6.85163 243.895 6.40868C243.635 5.96573 243.264 5.59831 242.818 5.34275C242.373 5.08719 241.868 4.95235 241.355 4.95156C240.841 4.95078 240.336 5.08409 239.89 5.33829L72.09 102.208C70.7574 102.971 69.6526 104.076 68.89 105.408V105.508L61.62 101.308C62.1656 100.32 62.9537 99.4876 63.91 98.8883L234.09 0.758291C235.079 0.2652 236.17 0.00854683 237.275 0.00854683C238.38 0.00854683 239.471 0.2652 240.46 0.758291L241.11 1.12829C242.037 1.72718 242.809 2.5367 243.363 3.4908C243.918 4.44489 244.239 5.51653 244.3 6.61829Z" fill="#1A41E7"/>
<path opacity="0.2" d="M244.3 6.61829V7.86829C244.294 7.35476 244.154 6.85163 243.895 6.40868C243.635 5.96573 243.264 5.59831 242.818 5.34275C242.373 5.08719 241.868 4.95235 241.355 4.95156C240.841 4.95078 240.336 5.08409 239.89 5.33829L72.09 102.208C70.7574 102.971 69.6526 104.076 68.89 105.408V105.508L61.62 101.308C62.1656 100.32 62.9537 99.4876 63.91 98.8883L234.09 0.758291C235.079 0.2652 236.17 0.00854683 237.275 0.00854683C238.38 0.00854683 239.471 0.2652 240.46 0.758291L241.11 1.12829C242.037 1.72718 242.809 2.5367 243.363 3.4908C243.918 4.44489 244.239 5.51653 244.3 6.61829Z" fill="black"/>
<path opacity="0.25" d="M240.15 305.898C240.15 308.778 238.15 310.618 235.62 312.058L77 403.618C74.5 405.058 72.46 403.898 72.46 400.998V126.058C72.4542 124.465 72.8714 122.899 73.6691 121.52C74.4667 120.141 75.6162 118.998 77 118.208L235.62 26.6483C236.078 26.3764 236.601 26.2316 237.134 26.2287C237.667 26.2258 238.191 26.3649 238.652 26.6317C239.114 26.8985 239.496 27.2835 239.759 27.7468C240.022 28.2102 240.157 28.7354 240.15 29.2683V305.898Z" fill="black"/>
<path d="M76.56 121.678L234.56 30.4483C234.98 30.2357 235.444 30.1249 235.915 30.1249C236.386 30.1249 236.85 30.2357 237.27 30.4483L238.79 31.3283C239.184 31.5866 239.511 31.9339 239.745 32.3422C239.98 32.7504 240.115 33.2081 240.14 33.6783V309.888C240.114 310.357 239.978 310.812 239.743 311.219C239.509 311.625 239.182 311.971 238.79 312.228L80.79 403.458C80.37 403.671 79.9058 403.782 79.435 403.782C78.9642 403.782 78.5 403.671 78.08 403.458L76.55 402.578C76.1556 402.317 75.8286 401.966 75.5957 401.554C75.3628 401.142 75.2306 400.681 75.21 400.208V123.998C75.2394 123.533 75.3767 123.082 75.6111 122.679C75.8454 122.276 76.1703 121.934 76.56 121.678Z" fill="#F5F5F5"/>
<path d="M80.47 403.608C80.3091 403.671 80.1413 403.715 79.97 403.738H79.71C79.4375 403.768 79.1625 403.768 78.89 403.738C78.7188 403.715 78.5509 403.671 78.39 403.608L78.09 403.458L76.57 402.588C76.1705 402.328 75.8388 401.977 75.6023 401.563C75.3658 401.149 75.2313 400.684 75.21 400.208V123.998C75.2213 123.527 75.3595 123.068 75.61 122.668L79.84 125.098C79.5994 125.506 79.462 125.966 79.44 126.438V402.678C79.42 403.418 79.88 403.778 80.47 403.608Z" fill="#E0E0E0"/>
<path d="M238.8 31.3283L237.28 30.4483C236.86 30.2357 236.396 30.1249 235.925 30.1249C235.454 30.1249 234.99 30.2357 234.57 30.4483L76.57 121.678C76.1803 121.934 75.8554 122.276 75.6211 122.679C75.3867 123.082 75.2494 123.533 75.22 123.998V141.058L79.42 143.518L240.15 50.7483V33.6783C240.125 33.2081 239.99 32.7504 239.755 32.3422C239.521 31.9339 239.194 31.5866 238.8 31.3283Z" fill="#1A41E7"/>
<path opacity="0.4" d="M238.8 31.3283L237.28 30.4483C236.86 30.2357 236.396 30.1249 235.925 30.1249C235.454 30.1249 234.99 30.2357 234.57 30.4483L76.57 121.678C76.1803 121.934 75.8554 122.276 75.6211 122.679C75.3867 123.082 75.2494 123.533 75.22 123.998V141.058L79.42 143.518L240.15 50.7483V33.6783C240.125 33.2081 239.99 32.7504 239.755 32.3422C239.521 31.9339 239.194 31.5866 238.8 31.3283Z" fill="white"/>
<path d="M240.1 33.2683C239.94 32.7183 239.42 32.5383 238.8 32.8883L80.8 124.118C80.3849 124.358 80.0401 124.703 79.8 125.118L75.57 122.678C75.8101 122.263 76.1549 121.918 76.57 121.678L234.57 30.4583C234.987 30.2418 235.45 30.1288 235.92 30.1288C236.39 30.1288 236.853 30.2418 237.27 30.4583L238.8 31.3283C239.135 31.5483 239.423 31.8334 239.647 32.1666C239.87 32.4998 240.024 32.8744 240.1 33.2683Z" fill="#1A41E7"/>
<path opacity="0.6" d="M240.1 33.2683C239.94 32.7183 239.42 32.5383 238.8 32.8883L80.8 124.118C80.3849 124.358 80.0401 124.703 79.8 125.118L75.57 122.678C75.8101 122.263 76.1549 121.918 76.57 121.678L234.57 30.4583C234.987 30.2418 235.45 30.1288 235.92 30.1288C236.39 30.1288 236.853 30.2418 237.27 30.4583L238.8 31.3283C239.135 31.5483 239.423 31.8334 239.647 32.1666C239.87 32.4998 240.024 32.8744 240.1 33.2683Z" fill="white"/>
<path d="M75.21 123.998V141.098L79.42 143.538V126.458C79.442 125.989 79.5794 125.532 79.82 125.128L75.59 122.688C75.3561 123.086 75.2255 123.537 75.21 123.998Z" fill="#1A41E7"/>
<g opacity="0.25">
<path d="M203.6 41.8783V55.4583C203.511 57.3087 202.981 59.111 202.053 60.7149C201.126 62.3187 199.829 63.6776 198.27 64.6783L172 79.8583C170.7 80.6083 170 82.1083 169.18 83.6783C168.662 84.8682 167.99 85.9845 167.18 86.9983C165.18 89.3183 160.68 91.7283 157.54 92.7383C156.514 93.0722 155.459 93.3132 154.39 93.4583C153.99 93.5283 153.55 93.5883 153.09 93.6383C150.23 94.0283 146.65 94.5083 144.56 95.7283L113.79 113.478C112.983 113.978 112.059 114.258 111.11 114.288C110.478 114.299 109.856 114.136 109.31 113.818C108.649 113.392 108.114 112.796 107.762 112.092C107.411 111.388 107.254 110.603 107.31 109.818V96.2083C107.399 94.3627 107.926 92.5647 108.848 90.9632C109.769 89.3617 111.059 88.0026 112.61 86.9983L123 80.9983C123.042 80.9683 123.09 80.9478 123.14 80.9383C123.273 80.8844 123.415 80.8573 123.558 80.8583C123.701 80.8593 123.842 80.8885 123.974 80.9442C124.106 80.9999 124.226 81.081 124.326 81.183C124.427 81.2849 124.506 81.4057 124.56 81.5383C124.653 81.7576 124.67 82.0016 124.608 82.2317C124.546 82.4617 124.41 82.6646 124.22 82.8083C124.192 82.8514 124.149 82.8833 124.1 82.8983L113.77 88.8983C112.551 89.7103 111.536 90.792 110.802 92.0597C110.068 93.3274 109.637 94.7469 109.54 96.2083V109.798C109.424 110.197 109.444 110.623 109.6 111.008C109.755 111.394 110.035 111.715 110.395 111.922C110.755 112.129 111.175 112.208 111.585 112.148C111.996 112.087 112.375 111.89 112.66 111.588L143.47 93.8183C145.94 92.3883 149.75 91.8783 152.81 91.4683L154.09 91.2883C155.041 91.1572 155.978 90.9396 156.89 90.6383C159.68 89.7583 163.83 87.4983 165.53 85.5583C166.223 84.6874 166.798 83.7292 167.24 82.7083C168.14 80.8983 169.06 79.0383 170.94 77.9583L197.23 62.7783C198.452 61.969 199.471 60.8882 200.207 59.6201C200.942 58.3521 201.374 56.9311 201.47 55.4683V41.8783C201.584 41.4789 201.562 41.0528 201.406 40.6677C201.25 40.2827 200.969 39.961 200.609 39.7539C200.249 39.5468 199.83 39.4663 199.419 39.525C199.007 39.5838 198.628 39.7786 198.34 40.0783L189.34 45.2083C189.038 44.5336 188.658 43.8961 188.21 43.3083L197.21 38.1283C197.838 37.6353 198.599 37.3415 199.396 37.2848C200.192 37.228 200.987 37.411 201.679 37.81C202.371 38.209 202.927 38.8059 203.276 39.5238C203.626 40.2417 203.753 41.0478 203.64 41.8383L203.6 41.8783Z" fill="black"/>
</g>
<path d="M184.42 42.1283C184.865 41.9216 185.357 41.8367 185.845 41.8824C186.334 41.9281 186.801 42.1027 187.2 42.3883C188.345 43.1348 189.296 44.1423 189.976 45.3278C190.655 46.5134 191.044 47.8433 191.11 49.2083C191.169 49.6922 191.097 50.183 190.901 50.6297C190.706 51.0763 190.395 51.4626 190 51.7483L127.62 87.7483L122 78.1783L184.42 42.1283Z" fill="#37474F"/>
<path d="M124.82 82.9983L190 45.3283C189.342 44.1288 188.388 43.1169 187.23 42.3883C187.1 42.3183 186.98 42.2783 186.85 42.2183L122.71 79.2183L124.82 82.9983Z" fill="#455A64"/>
<path d="M124.82 78.4183C122.66 77.1683 120.91 78.1783 120.91 80.6683C120.983 82.0248 121.375 83.345 122.054 84.5214C122.734 85.6979 123.681 86.6972 124.82 87.4383C126.98 88.6883 128.73 87.6783 128.73 85.1783C128.657 83.8231 128.265 82.5043 127.585 81.3295C126.906 80.1547 125.958 79.1572 124.82 78.4183Z" fill="#263238"/>
<path d="M204.71 42.8383V56.4283C204.626 58.2753 204.102 60.0756 203.182 61.6793C202.262 63.283 200.972 64.6437 199.42 65.6483L173.13 80.8183C171.83 81.5683 171.13 83.0683 170.31 84.6483C169.792 85.8382 169.12 86.9545 168.31 87.9683C166.31 90.2783 161.81 92.6983 158.67 93.6983C157.642 94.0404 156.584 94.2848 155.51 94.4283C155.12 94.4983 154.68 94.5483 154.22 94.6083C151.36 94.9883 147.78 95.4783 145.69 96.6883L114.92 114.448C114.114 114.95 113.189 115.226 112.24 115.248C111.61 115.257 110.989 115.099 110.44 114.788C109.772 114.357 109.233 113.753 108.881 113.04C108.528 112.326 108.376 111.531 108.44 110.738V97.2083C108.53 95.3605 109.059 93.5608 109.984 91.9589C110.91 90.357 112.204 88.9991 113.76 87.9983L124.1 81.9983H124.24C124.484 81.8851 124.762 81.8673 125.019 81.9482C125.276 82.0292 125.493 82.2031 125.628 82.4359C125.763 82.6688 125.806 82.9437 125.75 83.2068C125.693 83.4699 125.539 83.7022 125.32 83.8583C125.293 83.9046 125.25 83.94 125.2 83.9583L114.87 89.9583C113.646 90.7664 112.625 91.8468 111.888 93.115C111.151 94.3831 110.717 95.8046 110.62 97.2683V110.848C110.48 111.319 110.532 111.826 110.764 112.259C110.996 112.692 111.39 113.015 111.86 113.158C112.19 113.258 112.541 113.263 112.873 113.172C113.205 113.082 113.506 112.901 113.74 112.648L144.51 94.8783C146.98 93.4583 150.8 92.9383 153.86 92.5283C154.287 92.5002 154.711 92.4434 155.13 92.3583C156.084 92.2271 157.025 92.0096 157.94 91.7083C160.73 90.8183 164.87 88.5583 166.58 86.6183C167.272 85.7509 167.847 84.796 168.29 83.7783C169.19 81.9683 170.11 80.0983 171.99 79.0183L198.28 63.8483C199.499 63.0369 200.513 61.9551 201.245 60.6871C201.977 59.4192 202.407 57.9994 202.5 56.5383V42.8383C202.62 42.4389 202.602 42.0106 202.448 41.6228C202.295 41.2351 202.014 40.9107 201.653 40.7022C201.292 40.4938 200.871 40.4135 200.458 40.4746C200.045 40.5356 199.666 40.7342 199.38 41.0383L190.38 46.2083C190.078 45.5336 189.698 44.8961 189.25 44.3083L198.25 39.1283C198.877 38.6363 199.638 38.343 200.433 38.2861C201.228 38.2292 202.022 38.4112 202.713 38.8089C203.404 39.2066 203.961 39.8017 204.311 40.5179C204.662 41.234 204.79 42.0386 204.68 42.8283L204.71 42.8383Z" fill="#455A64"/>
<g opacity="0.2">
<path d="M91.81 174.878L242 88.1383C242.63 87.7783 243.15 88.0683 243.15 88.8083V124.638C243.13 125.039 243.015 125.429 242.815 125.776C242.615 126.124 242.336 126.419 242 126.638L91.81 213.368C91.18 213.738 90.67 213.438 90.67 212.708V176.868C90.693 176.471 90.8079 176.084 91.0057 175.739C91.2035 175.394 91.4789 175.099 91.81 174.878Z" fill="black"/>
</g>
<path d="M250 92.8883C249.776 92.8128 249.538 92.7897 249.304 92.8209C249.07 92.8522 248.846 92.9368 248.65 93.0683L100.18 178.808C99.5945 179.195 99.1083 179.715 98.7609 180.324C98.4134 180.934 98.2144 181.617 98.18 182.318V216.318C98.1551 216.562 98.1925 216.809 98.2887 217.034C98.3849 217.26 98.5367 217.457 98.73 217.608C98.38 217.388 95.32 215.608 94.95 215.428C94.7482 215.281 94.5885 215.084 94.4867 214.856C94.385 214.628 94.3447 214.377 94.37 214.128V180.128C94.4068 179.428 94.6067 178.746 94.954 178.136C95.3012 177.527 95.7862 177.007 96.37 176.618L244.79 90.8783C244.998 90.7291 245.241 90.6376 245.496 90.613C245.751 90.5884 246.007 90.6316 246.24 90.7383C246.58 90.9383 249.24 92.4483 250 92.8883Z" fill="#1A41E7"/>
<g opacity="0.2">
<path d="M250 92.8883C249.28 92.4483 246.62 90.8883 246.29 90.7383C246.057 90.6316 245.801 90.5884 245.546 90.613C245.291 90.6376 245.048 90.7291 244.84 90.8783L96.42 176.618C95.824 176.99 95.3347 177.511 95 178.128L98.8 180.328C99.1401 179.709 99.6322 179.186 100.23 178.808L248.65 93.0683C248.847 92.9382 249.07 92.8544 249.304 92.8232C249.538 92.792 249.776 92.8143 250 92.8883Z" fill="white"/>
</g>
<path d="M100.18 178.808L248.61 93.0683C249.73 92.4283 250.61 92.9483 250.61 94.2383V128.238C250.576 128.938 250.378 129.62 250.03 130.228C249.682 130.837 249.196 131.354 248.61 131.738L100.18 217.468C99.06 218.118 98.18 217.588 98.18 216.298V182.298C98.2206 181.601 98.4223 180.924 98.7694 180.318C99.1164 179.712 99.5993 179.196 100.18 178.808Z" fill="#FAFAFA"/>
<path d="M98.75 180.328L94.95 178.128C94.5848 178.734 94.3784 179.422 94.35 180.128V214.128C94.3247 214.377 94.365 214.628 94.4667 214.856C94.5685 215.084 94.7282 215.281 94.93 215.428C95.3 215.648 98.36 217.428 98.71 217.608C98.5167 217.457 98.3649 217.26 98.2687 217.034C98.1725 216.809 98.1351 216.562 98.16 216.318V182.318C98.1836 181.615 98.3867 180.93 98.75 180.328Z" fill="#1A41E7"/>
<path opacity="0.15" d="M98.75 180.328L94.95 178.128C94.5848 178.734 94.3784 179.422 94.35 180.128V214.128C94.3247 214.377 94.365 214.628 94.4667 214.856C94.5685 215.084 94.7282 215.281 94.93 215.428C95.3 215.648 98.36 217.428 98.71 217.608C98.5167 217.457 98.3649 217.26 98.2687 217.034C98.1725 216.809 98.1351 216.562 98.16 216.318V182.318C98.1836 181.615 98.3867 180.93 98.75 180.328Z" fill="black"/>
<path d="M249.51 93.7283C249.69 93.7283 249.7 94.1883 249.7 94.2383V128.238C249.662 128.776 249.502 129.298 249.231 129.764C248.961 130.23 248.588 130.628 248.14 130.928L99.71 216.658C99.5799 216.748 99.4276 216.8 99.27 216.808C99.09 216.808 99.09 216.348 99.09 216.298V182.298C99.1295 181.76 99.2904 181.237 99.5606 180.77C99.8307 180.302 100.203 179.902 100.65 179.598L249.08 93.8683C249.209 93.7824 249.356 93.7276 249.51 93.7083V93.7283ZM249.51 92.7783C249.193 92.7955 248.884 92.8881 248.61 93.0483L100.18 178.808C99.5961 179.197 99.1112 179.717 98.764 180.326C98.4167 180.936 98.2167 181.618 98.18 182.318V216.318C98.18 217.238 98.64 217.768 99.3 217.768C99.6235 217.761 99.9386 217.664 100.21 217.488L248.64 131.748C249.226 131.364 249.712 130.847 250.06 130.238C250.408 129.63 250.606 128.948 250.64 128.248V94.2483C250.64 93.3383 250.19 92.8083 249.52 92.8083L249.51 92.7783Z" fill="#1A41E7"/>
<path d="M126.75 175.878C128.75 177.038 130.01 179.538 130.01 183.088C130.01 190.198 125.01 198.838 118.87 202.388C115.79 204.168 113.01 204.388 110.99 203.168L107.42 201.168C105.42 200.008 104.15 197.508 104.15 193.958C104.15 186.848 109.15 178.208 115.3 174.648C118.37 172.878 121.16 172.708 123.18 173.868L126.75 175.878Z" fill="#1A41E7"/>
<path opacity="0.2" d="M126.75 175.878C128.75 177.038 130.01 179.538 130.01 183.088C130.01 190.198 125.01 198.838 118.87 202.388C115.79 204.168 113.01 204.388 110.99 203.168L107.42 201.168C105.42 200.008 104.15 197.508 104.15 193.958C104.15 186.848 109.15 178.208 115.3 174.648C118.37 172.878 121.16 172.708 123.18 173.868L126.75 175.878Z" fill="black"/>
<path d="M118.87 202.388C115.79 204.168 113.01 204.388 110.99 203.168C108.97 201.948 107.73 199.508 107.73 195.958C107.73 188.848 112.73 180.208 118.87 176.658C121.95 174.878 124.73 174.708 126.75 175.878C128.77 177.048 130.01 179.538 130.01 183.088C130 190.208 125 198.838 118.87 202.388Z" fill="#1A41E7"/>
<path d="M124.79 184.508L120.07 187.208V180.918C120.07 180.038 119.53 179.628 118.87 180.008C118.506 180.271 118.208 180.614 118 181.012C117.791 181.409 117.678 181.85 117.67 182.298V188.598L113 191.318C112.636 191.583 112.339 191.929 112.131 192.328C111.922 192.727 111.809 193.168 111.8 193.618C111.8 194.498 112.34 194.908 113 194.518L117.72 191.798V198.088C117.72 198.968 118.26 199.378 118.92 198.998C119.286 198.738 119.585 198.394 119.794 197.997C120.002 197.599 120.114 197.157 120.12 196.708V190.408L124.84 187.688C125.207 187.426 125.506 187.081 125.715 186.682C125.923 186.282 126.035 185.839 126.04 185.388C126 184.528 125.42 184.118 124.79 184.508Z" fill="#FAFAFA"/>
<path d="M137.68 172.898L242.2 112.528C242.958 111.984 243.579 111.27 244.013 110.444C244.447 109.618 244.682 108.701 244.7 107.768C244.7 105.928 243.58 105.078 242.2 105.878L137.68 166.208C136.924 166.754 136.305 167.468 135.873 168.294C135.44 169.12 135.207 170.036 135.19 170.968C135.19 172.848 136.31 173.688 137.68 172.898ZM242.2 119.898L137.68 180.208C136.922 180.755 136.303 181.47 135.87 182.299C135.438 183.127 135.205 184.044 135.19 184.978C135.19 186.818 136.31 187.658 137.68 186.858L242.2 126.498C242.96 125.953 243.581 125.238 244.015 124.41C244.449 123.581 244.684 122.663 244.7 121.728C244.7 119.928 243.58 119.078 242.2 119.878V119.898Z" fill="#E0E0E0"/>
<g opacity="0.2">
<path d="M91.81 229.458L242 142.718C242.63 142.348 243.15 142.648 243.15 143.378V179.208C243.13 179.609 243.015 179.999 242.815 180.346C242.615 180.694 242.336 180.989 242 181.208L91.81 267.998C91.18 268.358 90.67 268.068 90.67 267.328V231.448C90.693 231.051 90.8079 230.664 91.0057 230.319C91.2035 229.974 91.4789 229.679 91.81 229.458Z" fill="black"/>
</g>
<path d="M250 147.458C249.775 147.384 249.537 147.363 249.303 147.396C249.069 147.429 248.845 147.515 248.65 147.648L100.18 233.388C99.5945 233.775 99.1083 234.295 98.7609 234.904C98.4134 235.514 98.2144 236.197 98.18 236.898V270.898C98.1551 271.142 98.1925 271.389 98.2887 271.614C98.3849 271.84 98.5367 272.037 98.73 272.188C98.38 271.958 95.32 270.188 94.95 270.008C94.7482 269.861 94.5885 269.664 94.4867 269.436C94.385 269.207 94.3447 268.957 94.37 268.708V234.708C94.4044 234.007 94.6034 233.324 94.9509 232.714C95.2983 232.105 95.7845 231.585 96.37 231.198L244.79 145.448C244.999 145.301 245.243 145.211 245.497 145.188C245.752 145.165 246.008 145.21 246.24 145.318C246.58 145.518 249.24 146.998 250 147.458Z" fill="#1A41E7"/>
<g opacity="0.2">
<path d="M250 147.458C249.28 147.018 246.62 145.518 246.29 145.318C246.058 145.21 245.802 145.165 245.548 145.188C245.293 145.211 245.049 145.301 244.84 145.448L96.42 231.208C95.824 231.58 95.3347 232.101 95 232.718L98.8 234.908C99.1432 234.294 99.6348 233.774 100.23 233.398L248.66 147.658C248.854 147.526 249.075 147.44 249.307 147.405C249.539 147.371 249.776 147.389 250 147.458Z" fill="white"/>
</g>
<path d="M100.18 233.388L248.61 147.648C249.73 147.008 250.61 147.528 250.61 148.818V182.818C250.576 183.519 250.378 184.203 250.03 184.813C249.683 185.423 249.196 185.942 248.61 186.328L100.18 272.048C99.06 272.688 98.18 272.168 98.18 270.878V236.878C98.219 236.181 98.4201 235.503 98.7673 234.897C99.1145 234.291 99.5982 233.774 100.18 233.388Z" fill="#FAFAFA"/>
<path d="M98.75 234.898L95 232.708C94.6348 233.314 94.4285 234.002 94.4 234.708V268.708C94.3747 268.957 94.415 269.208 94.5168 269.436C94.6185 269.664 94.7782 269.861 94.98 270.008C95.35 270.228 98.41 272.008 98.76 272.188C98.5667 272.037 98.4149 271.84 98.3187 271.614C98.2225 271.389 98.1851 271.142 98.21 270.898V236.898C98.2198 236.197 98.4054 235.509 98.75 234.898Z" fill="#1A41E7"/>
<path opacity="0.15" d="M98.75 234.898L95 232.708C94.6348 233.314 94.4285 234.002 94.4 234.708V268.708C94.3747 268.957 94.415 269.208 94.5168 269.436C94.6185 269.664 94.7782 269.861 94.98 270.008C95.35 270.228 98.41 272.008 98.76 272.188C98.5667 272.037 98.4149 271.84 98.3187 271.614C98.2225 271.389 98.1851 271.142 98.21 270.898V236.898C98.2198 236.197 98.4054 235.509 98.75 234.898Z" fill="black"/>
<path d="M249.51 148.308C249.69 148.308 249.7 148.768 249.7 148.818V182.818C249.663 183.358 249.504 183.881 249.233 184.349C248.963 184.817 248.589 185.217 248.14 185.518L99.71 271.208C99.5799 271.298 99.4276 271.35 99.27 271.358C99.09 271.358 99.09 270.898 99.09 270.848V236.848C99.1295 236.31 99.2904 235.787 99.5606 235.32C99.8307 234.852 100.203 234.452 100.65 234.148L249.08 148.408C249.211 148.329 249.358 148.278 249.51 148.258V148.308ZM249.51 147.318C249.19 147.33 248.88 147.427 248.61 147.598L100.18 233.388C99.5945 233.775 99.1083 234.295 98.7608 234.904C98.4134 235.514 98.2144 236.197 98.18 236.898V270.898C98.18 271.808 98.64 272.338 99.3 272.338C99.6226 272.335 99.9378 272.241 100.21 272.068L248.61 186.308C249.196 185.922 249.683 185.403 250.03 184.793C250.378 184.183 250.576 183.499 250.61 182.798V148.798C250.61 147.878 250.16 147.348 249.49 147.348L249.51 147.318Z" fill="#1A41E7"/>
<path d="M126.75 230.448C128.75 231.618 130.01 234.108 130.01 237.668C130.01 244.768 125.01 253.418 118.87 256.968C115.79 258.748 113.01 258.908 110.99 257.748L107.42 255.698C105.42 254.528 104.15 252.038 104.15 248.478C104.15 241.378 109.15 232.728 115.3 229.178C118.37 227.398 121.16 227.238 123.18 228.398L126.75 230.448Z" fill="#1A41E7"/>
<path opacity="0.2" d="M126.75 230.448C128.75 231.618 130.01 234.108 130.01 237.668C130.01 244.768 125.01 253.418 118.87 256.968C115.79 258.748 113.01 258.908 110.99 257.748L107.42 255.698C105.42 254.528 104.15 252.038 104.15 248.478C104.15 241.378 109.15 232.728 115.3 229.178C118.37 227.398 121.16 227.238 123.18 228.398L126.75 230.448Z" fill="black"/>
<path d="M118.87 256.998C115.79 258.778 113.01 258.938 110.99 257.778C108.97 256.618 107.73 254.118 107.73 250.568C107.73 243.458 112.73 234.818 118.87 231.258C121.95 229.488 124.73 229.318 126.75 230.478C128.77 231.638 130.01 234.138 130.01 237.698C130 244.768 125 253.418 118.87 256.998Z" fill="#1A41E7"/>
<path d="M124.79 239.078L120.07 241.808V235.518C120.07 234.628 119.53 234.228 118.87 234.608C118.506 234.871 118.208 235.214 118 235.612C117.791 236.009 117.678 236.45 117.67 236.898V243.208L113 245.938C112.636 246.201 112.338 246.544 112.13 246.942C111.921 247.339 111.809 247.78 111.8 248.228C111.8 249.118 112.34 249.518 113 249.138L117.72 246.408V252.708C117.72 253.588 118.26 253.998 118.92 253.608C119.286 253.348 119.585 253.004 119.794 252.607C120.002 252.209 120.114 251.767 120.12 251.318V244.998L124.84 242.268C125.196 242.005 125.486 241.664 125.687 241.27C125.888 240.876 125.995 240.441 126 239.998C126 239.108 125.42 238.698 124.79 239.078Z" fill="#FAFAFA"/>
<path d="M137.68 227.468L242.2 167.108C242.96 166.563 243.581 165.848 244.015 165.02C244.449 164.191 244.684 163.273 244.7 162.338C244.7 160.508 243.58 159.658 242.2 160.458L137.68 220.818C136.922 221.365 136.303 222.08 135.87 222.909C135.438 223.737 135.205 224.654 135.19 225.588C135.19 227.418 136.31 228.268 137.68 227.468ZM242.2 174.468L137.68 234.818C136.922 235.365 136.303 236.08 135.87 236.909C135.438 237.737 135.205 238.654 135.19 239.588C135.19 241.418 136.31 242.268 137.68 241.468L242.2 181.098C242.958 180.554 243.579 179.84 244.013 179.014C244.447 178.188 244.682 177.271 244.7 176.338C244.7 174.498 243.58 173.658 242.2 174.448V174.468Z" fill="#E0E0E0"/>
<g opacity="0.2">
<path d="M91.81 283.998L242 197.298C242.63 196.928 243.15 197.228 243.15 197.958V233.788C243.131 234.189 243.017 234.58 242.817 234.928C242.617 235.275 242.337 235.571 242 235.788L91.81 322.518C91.18 322.888 90.67 322.588 90.67 321.858V285.998C90.6883 285.599 90.8012 285.209 90.9993 284.861C91.1975 284.513 91.4753 284.218 91.81 283.998Z" fill="black"/>
</g>
<path d="M250 201.998C249.776 201.922 249.537 201.899 249.302 201.932C249.068 201.965 248.844 202.053 248.65 202.188L100.18 287.998C99.5945 288.385 99.1083 288.905 98.7609 289.514C98.4134 290.124 98.2144 290.807 98.18 291.508V325.508C98.1551 325.752 98.1925 325.999 98.2887 326.224C98.3849 326.45 98.5367 326.647 98.73 326.798C98.38 326.578 95.32 324.848 94.95 324.618C94.7482 324.471 94.5885 324.274 94.4867 324.046C94.385 323.818 94.3447 323.567 94.37 323.318V289.318C94.4068 288.618 94.6067 287.936 94.954 287.326C95.3012 286.717 95.7862 286.197 96.37 285.808L244.79 199.998C244.997 199.846 245.241 199.753 245.497 199.73C245.753 199.707 246.01 199.755 246.24 199.868C246.58 200.088 249.24 201.598 250 201.998Z" fill="#1A41E7"/>
<g opacity="0.2">
<path d="M250 201.998C249.28 201.558 246.62 199.998 246.29 199.858C246.06 199.745 245.803 199.697 245.547 199.72C245.291 199.743 245.047 199.836 244.84 199.988L96.42 285.768C95.8285 286.146 95.3404 286.665 95 287.278L98.8 289.478C99.1401 288.859 99.6322 288.336 100.23 287.958L248.62 202.208C248.816 202.065 249.044 201.971 249.284 201.934C249.525 201.898 249.77 201.92 250 201.998Z" fill="white"/>
</g>
<path d="M100.18 287.998L248.61 202.248C249.73 201.598 250.61 202.128 250.61 203.418V237.418C250.576 238.119 250.378 238.803 250.03 239.413C249.683 240.023 249.196 240.542 248.61 240.928L100.18 326.618C99.06 327.268 98.18 326.748 98.18 325.448V291.448C98.2266 290.758 98.4312 290.088 98.778 289.49C99.1248 288.892 99.6045 288.382 100.18 287.998Z" fill="#FAFAFA"/>
<path d="M98.75 289.478L94.95 287.278C94.5848 287.884 94.3784 288.572 94.35 289.278V323.278C94.3247 323.527 94.365 323.778 94.4667 324.006C94.5685 324.234 94.7282 324.431 94.93 324.578C95.3 324.808 98.36 326.578 98.71 326.758C98.5167 326.607 98.3649 326.41 98.2687 326.184C98.1725 325.959 98.1351 325.712 98.16 325.468V291.468C98.1836 290.765 98.3867 290.08 98.75 289.478Z" fill="#1A41E7"/>
<path opacity="0.15" d="M98.75 289.478L94.95 287.278C94.5848 287.884 94.3784 288.572 94.35 289.278V323.278C94.3247 323.527 94.365 323.778 94.4667 324.006C94.5685 324.234 94.7282 324.431 94.93 324.578C95.3 324.808 98.36 326.578 98.71 326.758C98.5167 326.607 98.3649 326.41 98.2687 326.184C98.1725 325.959 98.1351 325.712 98.16 325.468V291.468C98.1836 290.765 98.3867 290.08 98.75 289.478Z" fill="black"/>
<path d="M249.51 202.888C249.69 202.888 249.7 203.348 249.7 203.398V237.398C249.663 237.938 249.504 238.461 249.233 238.929C248.963 239.397 248.589 239.797 248.14 240.098L99.71 325.808C99.5807 325.901 99.4285 325.956 99.27 325.968C99.09 325.968 99.09 325.508 99.09 325.448V291.448C99.1281 290.911 99.2885 290.389 99.5588 289.923C99.8292 289.457 100.202 289.058 100.65 288.758L249.08 202.998C249.207 202.911 249.356 202.859 249.51 202.848V202.888ZM249.51 201.908C249.19 201.92 248.88 202.017 248.61 202.188L100.18 287.998C99.5961 288.387 99.1112 288.907 98.764 289.516C98.4167 290.126 98.2167 290.808 98.18 291.508V325.508C98.18 326.428 98.64 326.958 99.3 326.958C99.6235 326.951 99.9386 326.854 100.21 326.678L248.64 240.948C249.226 240.562 249.713 240.043 250.06 239.433C250.408 238.823 250.606 238.139 250.64 237.438V203.438C250.64 202.518 250.19 201.988 249.52 201.988L249.51 201.908Z" fill="#1A41E7"/>
<path d="M126.75 284.998C128.75 286.158 130.01 288.658 130.01 292.208C130.01 299.318 125.01 307.958 118.87 311.518C115.79 313.288 113.01 313.458 110.99 312.298L107.42 310.248C105.42 309.078 104.15 306.578 104.15 303.028C104.15 295.918 109.15 287.278 115.3 283.728C118.37 281.948 121.16 281.778 123.18 282.948L126.75 284.998Z" fill="#1A41E7"/>
<path opacity="0.2" d="M126.75 284.998C128.75 286.158 130.01 288.658 130.01 292.208C130.01 299.318 125.01 307.958 118.87 311.518C115.79 313.288 113.01 313.458 110.99 312.298L107.42 310.248C105.42 309.078 104.15 306.578 104.15 303.028C104.15 295.918 109.15 287.278 115.3 283.728C118.37 281.948 121.16 281.778 123.18 282.948L126.75 284.998Z" fill="black"/>
<path d="M118.87 311.548C115.79 313.318 113.01 313.488 110.99 312.328C108.97 311.168 107.73 308.668 107.73 305.108C107.73 297.998 112.73 289.358 118.87 285.808C121.95 284.028 124.73 283.808 126.75 285.028C128.77 286.248 130.01 288.688 130.01 292.238C130 299.348 125 307.998 118.87 311.548Z" fill="#1A41E7"/>
<path d="M124.79 293.658L120.07 296.378V290.088C120.07 289.208 119.53 288.798 118.87 289.178C118.506 289.443 118.209 289.789 118.001 290.188C117.792 290.587 117.679 291.028 117.67 291.478V297.768L113 300.498C112.634 300.759 112.335 301.102 112.126 301.5C111.918 301.898 111.806 302.339 111.8 302.788C111.8 303.668 112.34 304.078 113 303.698L117.72 300.968V307.258C117.72 308.148 118.26 308.548 118.92 308.168C119.286 307.908 119.585 307.564 119.794 307.167C120.002 306.769 120.114 306.327 120.12 305.878V299.578L124.84 296.858C125.206 296.598 125.505 296.254 125.714 295.857C125.922 295.459 126.034 295.017 126.04 294.568C126 293.678 125.42 293.278 124.79 293.658Z" fill="#FAFAFA"/>
<path d="M137.68 282.048L242.2 221.678C242.958 221.134 243.579 220.42 244.013 219.594C244.447 218.768 244.682 217.851 244.7 216.918C244.7 215.078 243.58 214.238 242.2 215.028L137.68 275.398C136.924 275.944 136.305 276.658 135.873 277.484C135.44 278.31 135.207 279.226 135.19 280.158C135.19 281.998 136.31 282.838 137.68 282.048ZM242.2 229.048L137.68 289.398C136.924 289.944 136.305 290.658 135.873 291.484C135.44 292.31 135.207 293.226 135.19 294.158C135.19 295.998 136.31 296.838 137.68 296.048L242.2 235.678C242.958 235.134 243.579 234.42 244.013 233.594C244.447 232.768 244.682 231.851 244.7 230.918C244.7 229.078 243.58 228.208 242.2 229.028V229.048Z" fill="#E0E0E0"/>
<g opacity="0.2">
<path d="M91.81 338.608L242 251.868C242.63 251.508 243.15 251.798 243.15 252.528V288.368C243.13 288.769 243.015 289.159 242.815 289.506C242.615 289.854 242.336 290.149 242 290.368L91.81 377.098C91.18 377.468 90.67 377.168 90.67 376.438V340.598C90.693 340.201 90.8079 339.814 91.0057 339.469C91.2035 339.124 91.4789 338.829 91.81 338.608Z" fill="black"/>
</g>
<path d="M250 256.618C249.777 256.54 249.538 256.516 249.304 256.547C249.069 256.579 248.845 256.665 248.65 256.798L100.18 342.538C99.5945 342.925 99.1083 343.445 98.7609 344.054C98.4134 344.664 98.2144 345.347 98.18 346.048V380.048C98.1551 380.292 98.1925 380.539 98.2887 380.764C98.3849 380.99 98.5367 381.187 98.73 381.338C98.38 381.118 95.32 379.338 94.95 379.158C94.7482 379.011 94.5885 378.814 94.4867 378.586C94.385 378.358 94.3447 378.107 94.37 377.858V343.858C94.4068 343.158 94.6067 342.476 94.954 341.866C95.3012 341.257 95.7862 340.737 96.37 340.348L244.8 254.608C245.008 254.459 245.251 254.368 245.506 254.343C245.761 254.318 246.017 254.362 246.25 254.468L250 256.618Z" fill="#1A41E7"/>
<g opacity="0.2">
<path d="M250 256.618C249.28 256.178 246.62 254.618 246.29 254.468C246.057 254.362 245.801 254.318 245.546 254.343C245.291 254.368 245.048 254.459 244.84 254.608L96.42 340.348C95.824 340.72 95.3347 341.241 95 341.858L98.8 344.058C99.1401 343.439 99.6322 342.916 100.23 342.538L248.65 256.798C248.846 256.665 249.069 256.58 249.304 256.549C249.538 256.517 249.776 256.541 250 256.618Z" fill="white"/>
</g>
<path d="M100.18 342.538L248.61 256.798C249.73 256.158 250.61 256.678 250.61 257.968V291.968C250.578 292.67 250.38 293.354 250.032 293.964C249.685 294.574 249.197 295.093 248.61 295.478L100.18 381.208C99.06 381.858 98.18 381.328 98.18 380.038V345.998C98.2266 345.307 98.4311 344.636 98.7778 344.036C99.1245 343.436 99.6042 342.924 100.18 342.538Z" fill="#FAFAFA"/>
<path d="M98.75 344.058L94.95 341.858C94.5848 342.464 94.3784 343.152 94.35 343.858V377.858C94.3247 378.107 94.365 378.358 94.4667 378.586C94.5685 378.814 94.7282 379.011 94.93 379.158C95.3 379.378 98.36 381.158 98.71 381.338C98.5167 381.187 98.3649 380.99 98.2687 380.764C98.1725 380.539 98.1351 380.292 98.16 380.048V346.048C98.1781 345.345 98.3816 344.658 98.75 344.058Z" fill="#1A41E7"/>
<path opacity="0.15" d="M98.75 344.058L94.95 341.858C94.5848 342.464 94.3784 343.152 94.35 343.858V377.858C94.3247 378.107 94.365 378.358 94.4667 378.586C94.5685 378.814 94.7282 379.011 94.93 379.158C95.3 379.378 98.36 381.158 98.71 381.338C98.5167 381.187 98.3649 380.99 98.2687 380.764C98.1725 380.539 98.1351 380.292 98.16 380.048V346.048C98.1781 345.345 98.3816 344.658 98.75 344.058Z" fill="black"/>
<path d="M249.51 257.458C249.69 257.458 249.7 257.918 249.7 257.968V291.968C249.663 292.508 249.504 293.031 249.233 293.499C248.963 293.967 248.589 294.367 248.14 294.668L99.71 380.388C99.5799 380.478 99.4276 380.53 99.27 380.538C99.09 380.538 99.09 380.078 99.09 380.028V345.998C99.1295 345.46 99.2904 344.937 99.5606 344.47C99.8307 344.002 100.203 343.602 100.65 343.298L249.08 257.578C249.211 257.499 249.358 257.448 249.51 257.428V257.458ZM249.51 256.498C249.193 256.516 248.884 256.608 248.61 256.768L100.18 342.538C99.5961 342.927 99.1112 343.447 98.764 344.056C98.4167 344.666 98.2167 345.348 98.18 346.048V380.048C98.18 380.968 98.64 381.498 99.3 381.498C99.6235 381.491 99.9386 381.394 100.21 381.218L248.64 295.478C249.227 295.093 249.715 294.574 250.062 293.964C250.41 293.354 250.608 292.67 250.64 291.968V257.998C250.64 257.088 250.19 256.558 249.52 256.558L249.51 256.498Z" fill="#1A41E7"/>
<path d="M126.75 339.608C128.75 340.768 130.01 343.268 130.01 346.818C130.01 353.928 125.01 362.568 118.87 366.118C115.79 367.898 113.01 368.068 110.99 366.898L107.42 364.898C105.42 363.738 104.15 361.238 104.15 357.688C104.15 350.578 109.15 341.938 115.3 338.378C118.37 336.608 121.16 336.438 123.18 337.598L126.75 339.608Z" fill="#1A41E7"/>
<path opacity="0.2" d="M126.75 339.608C128.75 340.768 130.01 343.268 130.01 346.818C130.01 353.928 125.01 362.568 118.87 366.118C115.79 367.898 113.01 368.068 110.99 366.898L107.42 364.898C105.42 363.738 104.15 361.238 104.15 357.688C104.15 350.578 109.15 341.938 115.3 338.378C118.37 336.608 121.16 336.438 123.18 337.598L126.75 339.608Z" fill="black"/>
<path d="M118.87 366.118C115.79 367.898 113.01 368.068 110.99 366.898C108.97 365.728 107.73 363.238 107.73 359.688C107.73 352.578 112.73 343.938 118.87 340.388C121.95 338.608 124.73 338.438 126.75 339.598C128.77 340.758 130.01 343.268 130.01 346.818C130 353.928 125 362.568 118.87 366.118Z" fill="#1A41E7"/>
<path d="M124.79 348.208L120.07 350.928V344.638C120.07 343.748 119.53 343.348 118.87 343.728C118.506 343.991 118.208 344.334 118 344.732C117.791 345.129 117.678 345.57 117.67 346.018V352.318L113 354.998C112.636 355.261 112.338 355.604 112.13 356.002C111.921 356.399 111.809 356.84 111.8 357.288C111.8 358.178 112.34 358.578 113 358.198L117.72 355.478V361.768C117.72 362.648 118.26 363.058 118.92 362.678C119.287 362.416 119.586 362.071 119.795 361.672C120.003 361.272 120.115 360.829 120.12 360.378V354.168L124.84 351.448C125.207 351.186 125.506 350.841 125.715 350.442C125.923 350.042 126.035 349.599 126.04 349.148C126 348.258 125.42 347.848 124.79 348.208Z" fill="#FAFAFA"/>
<path d="M137.68 336.628L242.2 276.258C242.96 275.713 243.581 274.998 244.015 274.17C244.449 273.341 244.684 272.423 244.7 271.488C244.7 269.658 243.58 268.808 242.2 269.608L137.68 329.998C136.924 330.544 136.305 331.258 135.873 332.084C135.44 332.91 135.207 333.826 135.19 334.758C135.19 336.578 136.31 337.418 137.68 336.628ZM242.2 283.628L137.68 343.998C136.922 344.545 136.303 345.26 135.87 346.089C135.438 346.917 135.205 347.834 135.19 348.768C135.19 350.598 136.31 351.448 137.68 350.648L242.2 290.258C242.96 289.713 243.581 288.998 244.015 288.17C244.449 287.341 244.684 286.423 244.7 285.488C244.7 283.658 243.58 282.808 242.2 283.608V283.628Z" fill="#E0E0E0"/>
<path d="M276.84 356.248L283.66 360.178L294.89 353.698V226.518L302.38 222.198L289.54 212.328L282.71 208.388L269.36 233.388L276.18 237.328L276.84 236.938V356.248Z" fill="#1A41E7"/>
<path opacity="0.8" d="M276.84 356.248L283.66 360.178L294.89 353.698V226.518L302.38 222.198L289.54 212.328L282.71 208.388L269.36 233.388L276.18 237.328L276.84 236.938V356.248Z" fill="white"/>
<path d="M283.66 360.178L294.89 353.698V226.518L302.38 222.198L289.54 212.328L276.18 237.328L283.66 233.008V360.178Z" fill="#1A41E7"/>
<path opacity="0.7" d="M283.66 360.178L294.89 353.698V226.518L302.38 222.198L289.54 212.328L276.18 237.328L283.66 233.008V360.178Z" fill="white"/>
<path d="M276.84 356.248L283.66 360.178V233.008L276.84 236.938V356.248Z" fill="#1A41E7"/>
<path opacity="0.5" d="M276.84 356.248L283.66 360.178V233.008L276.84 236.938V356.248Z" fill="white"/>
<path d="M308.76 339.758L313.87 342.708L322.29 337.848V263.748L327.9 260.508L318.27 253.108L313.16 250.158L303.15 268.888L308.26 271.838L308.76 271.558V339.758Z" fill="#F5F5F5"/>
<path d="M313.87 342.708L322.29 337.848V263.748L327.9 260.508L318.27 253.108L308.26 271.838L313.87 268.598V342.708Z" fill="#EBEBEB"/>
<path d="M308.76 339.758L313.87 342.708V268.598L308.76 271.558V339.758Z" fill="#E0E0E0"/>
<path d="M421.17 347.878C421.17 347.878 426.06 348.788 428.79 352.418C431.52 356.048 437.52 366.878 438.72 368.098C438.003 369.258 437.028 370.237 435.87 370.958L432.62 367.118C431.81 366.418 430.49 364.688 430.47 366.908C430.45 369.128 430.69 371.198 430.93 375.498C431.07 378.108 431.93 383.278 427.34 388.198C423.04 392.798 417.92 395.868 414.79 396.248C412.92 396.468 408.73 395.988 409.01 392.248C409.17 390.248 411.68 382.858 412.07 379.248C412.46 375.638 421.17 347.878 421.17 347.878Z" fill="#263238"/>
<path d="M421.91 348.918C421.3 348.108 419.4 344.718 418.48 343.148C417.56 341.578 413.77 333.288 409.1 320.568C403.1 304.188 392.75 291.978 389.6 285.808C386.06 279.082 383.125 272.054 380.83 264.808L367.42 273.348L350.07 272.648C349.84 275.218 350.82 278.648 352.67 282.718L352.72 282.818C352.89 283.188 353.07 283.568 353.25 283.938C356.95 291.628 363.35 300.938 370.51 310.408L370.69 310.638L370.94 310.968C377.84 320.108 385.44 329.408 392.08 337.468V337.278C399.21 345.908 404.97 352.918 407.01 356.408C412.96 366.638 412.01 376.508 411.96 381.898C411.96 385.258 414.53 385.958 418.11 383.098C420.51 381.159 422.467 378.727 423.847 375.967C425.227 373.206 425.999 370.182 426.11 367.098C426.42 354.128 425.42 353.608 421.91 348.918Z" fill="#FFBDA7"/>
<path d="M350.15 177.828C348.79 188.278 347.45 197.988 346.28 225.668C345.28 248.938 344.28 261.408 346.03 272.888C346.65 276.978 348.76 281.758 352.75 287.758C365.23 306.578 389.69 336.118 389.69 336.118C389.69 336.118 395.15 335.938 401.69 330.398C405.502 327.049 407.838 322.33 408.19 317.268C408.19 317.268 407.49 312.938 397.19 295.578C386.89 278.218 385.33 259.278 385.33 259.278L390.94 184.848C375.27 186.528 357.53 183.778 350.15 177.828Z" fill="#455A64"/>
<path d="M401.69 330.398C405.502 327.049 407.838 322.33 408.19 317.268C408.19 317.268 407.49 312.938 397.19 295.578C386.89 278.218 385.33 259.278 385.33 259.278L389.63 202.278C377.34 200.518 360.23 200.948 360.23 200.948C360.01 209.098 361.89 219.148 373.33 225.038C373.33 225.038 371.75 265.098 371.64 276.808C371.56 285.748 374.37 308.448 375.71 318.718C383.49 328.588 389.71 336.098 389.71 336.098C389.71 336.098 395.15 335.938 401.69 330.398Z" fill="#37474F"/>
<path d="M399.27 371.508C401.46 373.864 402.834 376.862 403.19 380.058C403.51 384.938 402.64 398.248 402.98 400.058C401.745 400.696 400.37 401.016 398.98 400.988L398.35 395.608C398.05 394.508 398.18 393.608 396.96 395.608C395.74 397.608 394.72 399.848 392.82 402.758C391.31 405.058 389.18 410.508 382.65 412.278C376.54 413.928 369.5 413.138 366.65 411.648C364.96 410.758 361.93 409.348 364.19 406.158C365.4 404.458 372.19 397.638 374.47 394.618C376.75 391.598 399.27 371.508 399.27 371.508Z" fill="#263238"/>
<path d="M382.78 370.998C383.36 358.268 372.64 299.778 376.46 272.488L410.66 272.828C408.644 280.733 407.286 288.79 406.6 296.918C405.88 304.338 407.9 321.418 404.02 339.748C401.02 353.988 399.69 363.748 399.6 365.668C399.51 367.588 399.26 371.798 399.33 372.888C399.74 379.188 398.7 382.748 391.58 392.568C390.2 394.468 386.86 400.628 377.58 401.628C373.02 402.128 371.2 399.978 373.08 396.958C376.06 392.118 382.2 383.718 382.78 370.998Z" fill="#FFBDA7"/>
<path d="M406.6 296.908C406.47 299.798 406.6 302.678 406.67 305.568C406.74 308.458 406.82 311.348 406.83 314.248C406.862 320.047 406.528 325.842 405.83 331.598C405.47 334.478 404.93 337.328 404.35 340.158L402.59 348.618C402.01 351.438 401.47 354.268 400.97 357.108C400.45 359.948 399.97 362.788 399.6 365.658C400.082 359.895 400.86 354.161 401.93 348.478C402.93 342.768 404.32 337.178 404.93 331.478C405.33 328.638 405.57 325.758 405.78 322.888C405.99 320.018 406.04 317.128 406.13 314.248C406.22 311.368 406.2 308.478 406.21 305.588C406.18 302.69 406.31 299.792 406.6 296.908Z" fill="#F0997A"/>
<path d="M350.15 177.828C350.15 177.828 354.15 191.308 358.51 203.508C362.34 214.108 369.51 220.008 376.99 222.388C376.99 222.388 375.14 270.298 374.56 276.968C373.98 283.638 375.85 307.768 377.45 323.638C379.05 339.508 379.56 344.938 379.56 344.938C379.56 344.938 382.89 348.468 392.1 348.508C401.31 348.548 404.18 344.578 404.18 344.578C404.18 344.578 409.77 326.118 409.82 311.688C409.82 303.428 408.04 299.348 409.46 291.138C410.88 282.928 421.65 246.278 423.33 228.958C425.01 211.638 421.96 196.488 409.81 178.958C397.1 187.818 361.93 186.128 350.15 177.828Z" fill="#455A64"/>
<path d="M404.59 181.738C411.17 190.828 420.72 209.648 414.47 236.918C412.69 244.678 410.933 252.172 409.2 259.398C405.2 276.398 402 289.738 401.62 294.838C401.493 297.709 401.667 300.584 402.14 303.418C403.146 310.108 403.234 316.905 402.4 323.618C401.4 332.328 399.8 341.498 398.67 347.698C399.05 347.588 399.42 347.478 399.76 347.348C400.89 341.148 402.39 332.228 403.41 323.738C404.26 316.942 404.169 310.06 403.14 303.288C402.69 300.522 402.519 297.718 402.63 294.918C403.01 289.918 406.18 276.538 410.19 259.638C411.91 252.388 413.68 244.908 415.46 237.148C421.75 209.678 412.23 190.638 405.55 181.328L404.59 181.738Z" fill="#37474F"/>
<path d="M349.9 174.928C359.938 179.118 370.666 181.41 381.54 181.688C400.84 181.898 410 175.868 410 175.868C410.1 178.047 410.739 180.167 411.86 182.038C411.86 182.038 400.78 188.688 381.6 188.118C362.42 187.548 349.68 180.998 349.68 180.998C349.949 178.987 350.023 176.954 349.9 174.928Z" fill="#37474F"/>
<path d="M368.9 115.448C360.9 116.888 357.08 119.378 351.07 129.018C345.06 138.658 326.87 164.268 326.87 164.268C326.87 164.268 330.97 174.638 345.87 177.328C352.87 167.328 366.6 147.648 366.6 147.648L368.9 115.448Z" fill="#1A41E7"/>
<path opacity="0.3" d="M368.9 115.448C360.9 116.888 357.08 119.378 351.07 129.018C345.06 138.658 326.87 164.268 326.87 164.268C326.87 164.268 330.97 174.638 345.87 177.328C352.87 167.328 366.6 147.648 366.6 147.648L368.9 115.448Z" fill="black"/>
<path d="M412.52 172.508C412.52 174.578 417.78 184.978 420.66 196.198C403.4 218.448 352.3 206.308 348.56 193.788C349.36 178.908 350.05 141.338 353.31 134.538C356.931 127.132 362.32 120.73 369 115.898C372.602 115.2 376.241 114.716 379.9 114.448C385.342 113.888 390.834 114.029 396.24 114.868C401.08 115.608 409.03 117.708 409.03 117.708C412.03 120.268 420.46 131.058 418.51 144.058C417.58 149.998 412.5 157.818 412.52 172.508Z" fill="#FAFAFA"/>
<path d="M398.07 114.108L398 115.938C398 115.938 390.78 134.298 390.54 149.188C390.3 164.078 395.11 222.278 395.11 222.278C395.11 222.278 407.31 220.708 414.11 217.538L414.58 203.458L417.74 216.208C417.74 216.208 421.85 214.918 423.96 211.868C423.96 206.358 422.55 194.868 417.74 182.678C412.93 170.488 412.74 168.258 416.1 156.178C419.46 144.098 422.2 138.478 418.21 129.798C414.22 121.118 409.55 117.208 409.55 117.208L398.07 114.108Z" fill="#1A41E7"/>
<path d="M377.71 114.108L377.65 116.258C373.149 120.986 368.954 125.997 365.09 131.258C359.14 139.448 359.26 142.728 356.84 155.468C354.42 168.208 353.52 210.708 353.52 210.708C351.058 210.046 348.641 209.231 346.28 208.268C346.28 208.268 347.79 183.268 348.34 174.668C348.89 166.068 349.68 146.428 350.95 140.788C352.22 135.148 351.86 133.868 356.72 127.248C360.212 122.777 364.312 118.816 368.9 115.478L377.71 114.108Z" fill="#1A41E7"/>
<path d="M368.57 185.908C368.09 184.508 363.92 181.908 363.01 179.058C362.48 177.388 363.58 174.968 365.36 176.628C369.09 180.118 371.82 180.628 374.27 182.328" fill="#FFBDA7"/>
<path d="M274.42 159.728C273.5 162.868 276.01 169.408 280.1 170.618C278.649 172.474 277.563 174.588 276.9 176.848C275.56 181.398 278.62 187.248 284.9 189.098L333 203.208L339.89 205.328L355.89 150.808L348.96 148.808C348.96 148.808 341.49 125.448 341.16 121.938C340.83 118.428 346.16 104.938 346.89 102.458C347.62 99.9783 335.97 95.4583 329.52 103.458C323.07 111.458 320.52 118.908 320.24 128.038L291.18 119.488C285.04 117.688 280.87 122.608 279.85 126.058C279.333 127.755 279.265 129.557 279.655 131.287C280.044 133.017 280.876 134.617 282.07 135.928C280.174 135.928 278.333 136.565 276.843 137.737C275.352 138.908 274.298 140.546 273.85 142.388C273.271 144.442 273.398 146.63 274.21 148.602C275.023 150.575 276.473 152.218 278.33 153.268C278.33 153.268 275.81 154.998 274.42 159.728Z" fill="#FAFAFA"/>
<path d="M346.9 102.528C347.64 100.008 335.98 95.5283 329.53 103.528C323.08 111.528 320.53 118.978 320.25 128.108L320.61 128.608L325.78 130.068C330.16 101.998 341.36 101.048 346.9 102.528Z" fill="#E0E0E0"/>
<path d="M356.325 149.351L337.718 212.612L358.671 218.774L377.277 155.514L356.325 149.351Z" fill="#1A41E7"/>
<path opacity="0.2" d="M356.325 149.351L337.718 212.612L358.671 218.774L377.277 155.514L356.325 149.351Z" fill="black"/>
<path d="M278.34 153.368C278.34 153.368 275.81 155.018 274.43 159.728C274.361 159.977 274.311 160.232 274.28 160.488C273.88 163.808 276.28 169.488 280.1 170.618C278.649 172.474 277.563 174.588 276.9 176.848C276.771 177.307 276.68 177.775 276.63 178.248C276.2 182.528 279.25 187.438 284.9 189.098L294.56 191.938C288.9 190.278 285.86 185.368 286.28 181.088C286.33 180.612 286.421 180.14 286.55 179.678C287.213 177.421 288.299 175.31 289.75 173.458C285.97 172.338 283.53 166.648 283.93 163.318C283.961 163.065 284.011 162.814 284.08 162.568C285.46 157.858 288 156.208 288 156.208C286.143 155.158 284.691 153.516 283.877 151.543C283.063 149.571 282.934 147.383 283.51 145.328L283.57 145.178C284.041 143.372 285.097 141.773 286.574 140.632C288.05 139.49 289.864 138.87 291.73 138.868C290.54 137.554 289.711 135.955 289.322 134.225C288.933 132.496 288.998 130.695 289.51 128.998C289.57 128.798 289.64 128.598 289.72 128.378C291.03 124.998 295.07 120.738 300.84 122.428L291.19 119.598C285.41 117.898 281.37 122.158 280.07 125.538C279.99 125.758 279.92 125.958 279.86 126.158C279.343 127.855 279.275 129.657 279.665 131.387C280.054 133.117 280.886 134.717 282.08 136.028C280.213 136.031 278.399 136.651 276.921 137.793C275.443 138.934 274.385 140.532 273.91 142.338L273.86 142.488C273.281 144.542 273.408 146.73 274.22 148.702C275.033 150.675 276.483 152.318 278.34 153.368Z" fill="#E0E0E0"/>
<path d="M332.87 203.608L284.8 189.458C281.87 188.647 279.347 186.776 277.72 184.208C277.017 183.117 276.549 181.89 276.345 180.608C276.142 179.325 276.209 178.014 276.54 176.758C277.17 174.623 278.165 172.614 279.48 170.818C277.469 169.836 275.889 168.149 275.04 166.078C273.997 164.104 273.645 161.836 274.04 159.638C274.641 157.275 275.891 155.127 277.65 153.438C275.882 152.281 274.526 150.593 273.776 148.616C273.027 146.64 272.923 144.477 273.48 142.438C273.924 140.652 274.912 139.047 276.308 137.847C277.703 136.647 279.437 135.91 281.27 135.738C280.215 134.397 279.501 132.821 279.19 131.144C278.878 129.466 278.978 127.739 279.48 126.108C280.178 123.931 281.533 122.023 283.36 120.648C284.473 119.804 285.772 119.239 287.148 119C288.525 118.762 289.938 118.857 291.27 119.278L319.87 127.688C320.26 118.288 323.07 110.988 329.21 103.368C333.79 97.6783 341.33 97.9883 345.21 100.018C346.76 100.828 347.5 101.798 347.21 102.678C347.03 103.298 346.58 104.548 346.02 106.128C344.35 110.778 341.25 119.438 341.5 122.018C341.81 125.278 348.5 146.368 349.22 148.618L356.32 150.618L340.12 205.828L332.87 203.608ZM348.67 149.208L348.61 149.018C348.3 148.018 341.12 125.578 340.79 122.018C340.53 119.268 343.55 110.838 345.35 105.808C345.92 104.228 346.35 102.988 346.54 102.398C346.73 101.808 346.01 101.208 344.88 100.618C341.22 98.7083 334.14 98.4283 329.82 103.778C323.68 111.388 320.93 118.678 320.63 128.128V128.618L291.1 119.938C289.88 119.551 288.584 119.463 287.323 119.68C286.061 119.898 284.87 120.415 283.85 121.188C282.161 122.469 280.902 124.234 280.24 126.248C279.742 127.883 279.677 129.619 280.053 131.286C280.428 132.953 281.23 134.494 282.38 135.758L283 136.428H282.08C280.265 136.418 278.5 137.024 277.075 138.149C275.65 139.274 274.651 140.85 274.24 142.618C273.689 144.589 273.814 146.687 274.593 148.579C275.372 150.47 276.761 152.047 278.54 153.058L279.1 153.358L278.57 153.708C278.57 153.708 276.13 155.358 274.81 159.858C274.46 161.875 274.791 163.95 275.75 165.758C276.85 168.118 278.49 169.758 280.23 170.268L280.78 170.438L280.41 170.878C279.002 172.699 277.941 174.763 277.28 176.968C276.982 178.123 276.927 179.327 277.118 180.505C277.309 181.682 277.742 182.807 278.39 183.808C279.908 186.229 282.277 187.995 285.03 188.758L333.11 202.898L339.63 204.898L355.42 151.108L348.67 149.208Z" fill="#455A64"/>
<path opacity="0.2" d="M347.029 180.977L337.726 212.607L358.679 218.77L367.982 187.139L347.029 180.977Z" fill="black"/>
<path d="M353.65 208.408C353.826 207.809 353.82 207.171 353.634 206.575C353.447 205.979 353.088 205.451 352.602 205.059C352.116 204.667 351.524 204.428 350.902 204.371C350.28 204.315 349.655 204.445 349.107 204.743C348.558 205.042 348.11 205.497 347.82 206.05C347.53 206.603 347.41 207.229 347.475 207.851C347.541 208.472 347.789 209.06 348.189 209.54C348.588 210.02 349.121 210.371 349.72 210.548C350.119 210.666 350.537 210.705 350.95 210.661C351.363 210.617 351.764 210.493 352.129 210.294C352.494 210.095 352.816 209.826 353.077 209.503C353.338 209.179 353.533 208.807 353.65 208.408Z" fill="#F0F0F0"/>
<path d="M374.27 182.328C376.73 184.058 379.27 184.658 384.12 184.878C389.3 185.108 409.81 176.688 409.81 176.688L406 149.398C406 149.398 401.66 128.778 409.63 117.858C422.32 120.558 423.32 124.298 424.9 129.578C426.11 133.578 427.51 138.888 429.34 156.578C430.99 172.398 431.16 176.578 430.99 184.528C430.83 191.428 425.33 193.638 415.78 195.858C406.23 198.078 400.09 198.858 386.52 200.858C380 201.858 376.3 201.378 370.64 201.248C368.495 201.278 366.358 200.968 364.31 200.328C362.432 199.774 360.716 198.772 359.31 197.408C359.084 197.131 358.817 196.888 358.52 196.688C358.196 196.525 357.862 196.381 357.52 196.258C356.872 196.062 356.255 195.772 355.69 195.398C355.159 194.917 354.677 194.384 354.25 193.808C354.05 193.55 353.837 193.303 353.61 193.068C353.347 192.846 353.066 192.645 352.77 192.468C351.966 192.077 351.238 191.545 350.62 190.898C350.471 190.715 350.372 190.496 350.331 190.263C350.291 190.03 350.311 189.791 350.39 189.568C350.39 189.568 349.32 189.138 348.96 188.968C348.463 188.734 347.994 188.445 347.56 188.108C347.463 188.056 347.38 187.982 347.318 187.891C347.255 187.801 347.215 187.697 347.2 187.588C347.2 187.458 347.242 187.332 347.32 187.228C348.32 185.468 350.42 185.478 352.21 185.638C356.86 186.048 359.7 187.278 364.4 187.178C366.96 187.118 367.65 187.058 368.35 186.568C368.46 186.503 368.541 186.399 368.578 186.277C368.615 186.155 368.605 186.023 368.55 185.908" fill="#FFBDA7"/>
<path d="M409.81 176.688C413.097 175.056 416.541 173.762 420.09 172.828C420.09 172.828 416.85 171.558 409.55 174.828L409.81 176.688Z" fill="#F0997A"/>
<path d="M350.58 189.758C351.64 190.238 352.75 190.618 353.85 190.998C354.95 191.378 356.07 191.708 357.17 192.068C357.72 192.248 358.27 192.448 358.84 192.608C359.41 192.768 359.98 192.898 360.55 192.998C361.693 193.237 362.848 193.41 364.01 193.518L362.32 193.098C361.75 192.968 361.19 192.828 360.63 192.678C360.07 192.528 359.5 192.388 358.95 192.208L357.3 191.658C356.19 191.298 355.07 190.978 353.95 190.658L350.58 189.758Z" fill="#F0997A"/>
<path d="M353.52 192.998C354.261 193.53 355.051 193.988 355.88 194.368C356.7 194.738 357.54 195.058 358.38 195.368C359.22 195.678 360.09 195.938 360.95 196.178C361.813 196.428 362.691 196.619 363.58 196.748C362.73 196.468 361.9 196.148 361.05 195.858L358.53 194.958L356 193.998C355.18 193.708 354.33 193.348 353.52 192.998Z" fill="#F0997A"/>
<path d="M409.55 117.208C418.26 119.448 422.14 120.968 423.96 125.268C425.78 129.568 426.67 132.268 428.64 143.878C430.559 156.619 431.681 169.468 432 182.348C431.91 188.698 432.62 191.348 425.55 193.978C418.48 196.608 402.47 198.898 402.47 198.898C402.83 195.982 402.739 193.027 402.2 190.138C401.44 186.815 400.139 183.64 398.35 180.738L409 176.448C409 176.448 405.24 152.108 404.71 147.818C404.18 143.528 402.73 126.328 409.55 117.208Z" fill="#1A41E7"/>
<path opacity="0.3" d="M409.55 117.208C418.26 119.448 422.14 120.968 423.96 125.268C425.78 129.568 426.67 132.268 428.64 143.878C430.559 156.619 431.681 169.468 432 182.348C431.91 188.698 432.62 191.348 425.55 193.978C418.48 196.608 402.47 198.898 402.47 198.898C402.83 195.982 402.739 193.027 402.2 190.138C401.44 186.815 400.139 183.64 398.35 180.738L409 176.448C409 176.448 405.24 152.108 404.71 147.818C404.18 143.528 402.73 126.328 409.55 117.208Z" fill="black"/>
<path d="M364.83 89.2083L363.24 88.7183C356.11 84.8883 356.47 75.5983 358.24 70.7183C362.11 59.9083 373.8 55.8583 381 55.4583C394.72 54.7083 401.42 58.2483 402.83 65.3583C404.69 65.1983 407.25 66.6983 408.83 68.7983C412.2 73.3883 416.22 89.3883 398.43 106.268L364.83 89.2083Z" fill="#37474F"/>
<path d="M401.69 100.998C404.17 101.358 406.09 100.058 407.52 98.3583C410.7 94.5683 410.86 90.8383 409.22 88.4183C407.86 86.4183 404.67 85.2583 402.53 86.7183C400.39 88.1783 400.21 89.4883 399.39 91.1883C398.57 92.8883 395.12 92.8783 394.04 86.1883C393.04 79.9483 393.31 73.4083 390.14 70.6983C385.39 66.6983 379.46 68.0483 377.74 70.6183C376.838 69.2569 375.436 68.3057 373.837 67.9707C372.239 67.6356 370.573 67.9438 369.2 68.8283C366.2 70.5983 363.94 75.3883 363.33 87.3183C362.7 99.4783 365.84 106.918 368.7 108.848C370.87 110.318 373.26 110.918 377.81 110.948L377.65 116.288C377.65 116.288 371.49 127.928 371.91 138.288C371.91 138.288 374.42 136.558 385.72 126.678L398 115.908L398.64 99.1383C398.964 99.6683 399.41 100.114 399.94 100.437C400.471 100.76 401.07 100.953 401.69 100.998Z" fill="#FFBDA7"/>
<path d="M366.5 81.4283L371 79.7183C370.808 79.1408 370.395 78.6629 369.852 78.3892C369.308 78.1156 368.678 78.0685 368.1 78.2583H368C367.386 78.4863 366.885 78.9455 366.605 79.5379C366.324 80.1302 366.287 80.8087 366.5 81.4283Z" fill="#263238"/>
<path d="M383.09 79.6883L387.52 82.2683C387.874 81.7205 387.996 81.0547 387.859 80.4172C387.722 79.7796 387.337 79.2225 386.79 78.8683L386.68 78.7983C386.081 78.4619 385.376 78.3667 384.709 78.532C384.042 78.6974 383.463 79.1109 383.09 79.6883Z" fill="#263238"/>
<path d="M389 71.4783C390.07 72.8383 390.86 74.2083 390.69 79.0883C390.63 81.0883 390.78 85.8683 392.14 88.6983C393.33 91.1783 394.57 92.6983 397.21 93.1083C398.812 93.3508 400.449 93.1857 401.97 92.6283C402.9 92.1983 405.53 90.3483 405.21 87.6283C404.684 88.2135 404.04 88.6805 403.32 88.9983C402.765 89.2281 402.178 89.3698 401.58 89.4183C400.682 89.4177 399.799 89.1888 399.013 88.7533C398.228 88.3177 397.566 87.6897 397.09 86.9283C395.32 84.2983 395.43 80.7583 394.89 77.7383C394.2 73.9183 393.54 69.5683 390.08 67.6683C386 65.4283 378.62 66.4283 377.74 70.5983C379.363 69.2525 381.446 68.5918 383.548 68.756C385.65 68.9203 387.606 69.8967 389 71.4783Z" fill="#37474F"/>
<path d="M382.9 97.5683L376.22 99.4183C376.469 100.307 377.062 101.06 377.866 101.512C378.67 101.963 379.622 102.077 380.51 101.828L380.81 101.728C381.219 101.599 381.597 101.39 381.925 101.113C382.252 100.837 382.522 100.498 382.718 100.117C382.914 99.7362 383.033 99.3201 383.068 98.893C383.102 98.4658 383.052 98.036 382.92 97.6283L382.9 97.5683Z" fill="#B16668"/>
<path d="M378.9 101.848C379.037 100.957 379.499 100.149 380.197 99.5783C380.895 99.0077 381.78 98.7157 382.68 98.7583L383.02 98.8183C383.012 99.4761 382.793 100.114 382.395 100.638C381.997 101.162 381.442 101.544 380.81 101.728C380.193 101.928 379.537 101.969 378.9 101.848Z" fill="#F0997A"/>
<path d="M377.73 82.9883L376.33 94.8883L369.87 92.3783L377.73 82.9883Z" fill="#F0997A"/>
<path d="M377.81 110.918C382.215 110.628 386.548 109.65 390.65 108.018C392.14 107.358 394.13 104.618 395.74 101.578C395.74 101.578 394.65 107.578 391.44 109.638C386.55 112.818 377.74 113.568 377.74 113.568L377.81 110.918Z" fill="#F0997A"/>
<path d="M367.62 84.9983C367.27 85.9983 367.94 86.2983 368.88 86.6383C369.82 86.9783 370.66 87.1783 371.01 86.2083C371.102 85.985 371.149 85.7455 371.147 85.5039C371.145 85.2622 371.094 85.0235 370.997 84.802C370.901 84.5804 370.761 84.3805 370.586 84.2142C370.41 84.0479 370.203 83.9186 369.977 83.834C369.751 83.7494 369.51 83.7112 369.268 83.7217C369.027 83.7322 368.79 83.7912 368.572 83.8952C368.354 83.9992 368.159 84.146 367.999 84.3269C367.839 84.5079 367.717 84.7192 367.64 84.9483C367.64 84.9483 367.63 84.9983 367.62 84.9983Z" fill="#263238"/>
<path d="M370.83 84.2083C370.41 83.9772 369.959 83.8088 369.49 83.7083C369.032 83.5985 368.558 83.568 368.09 83.6183C367.594 83.67 367.111 83.8053 366.66 84.0183C366.66 84.0183 366.6 84.1383 366.66 84.1283C367.05 84.1283 367.38 84.0383 367.94 84.0183C368.466 84.0278 368.99 84.0982 369.5 84.2283C370.118 84.3724 370.714 84.6013 371.27 84.9083C371.45 84.9983 371.8 85.1983 371.84 85.2283C371.88 85.2583 371.94 85.1283 371.91 85.0883C371.624 84.7143 371.254 84.4128 370.83 84.2083Z" fill="#263238"/>
<path d="M385.79 85.6483C386.01 86.6483 385.29 86.8883 384.32 87.0883C383.35 87.2883 382.48 87.3983 382.26 86.3783C382.212 86.1465 382.21 85.9076 382.255 85.6751C382.299 85.4426 382.389 85.2211 382.519 85.0233C382.649 84.8255 382.817 84.6553 383.012 84.5223C383.208 84.3893 383.428 84.2962 383.66 84.2483C383.892 84.2004 384.131 84.1985 384.363 84.243C384.596 84.2874 384.817 84.3772 385.015 84.5072C385.213 84.6372 385.383 84.8048 385.516 85.0006C385.649 85.1964 385.742 85.4165 385.79 85.6483Z" fill="#263238"/>
<path d="M382.71 84.4283C383.16 84.2571 383.631 84.1494 384.11 84.1083C384.579 84.0665 385.052 84.1003 385.51 84.2083C385.989 84.3382 386.448 84.5369 386.87 84.7983C386.87 84.7983 386.92 84.9283 386.87 84.9183C386.5 84.8283 386.17 84.7183 385.62 84.6283C384.465 84.5076 383.298 84.6547 382.21 85.0583L381.6 85.2983C381.54 85.2983 381.51 85.1883 381.54 85.1483C381.872 84.8251 382.272 84.5793 382.71 84.4283Z" fill="#263238"/>
<path d="M306.06 197.918C303.26 197.918 303.11 197.598 302.69 196.208C302.332 195.128 302.236 193.978 302.41 192.853C302.584 191.728 303.022 190.66 303.69 189.738C304.91 188.158 306.06 186.508 307.1 185.988C308.14 185.468 309.37 187.448 308.31 189.898C306.65 193.758 307.57 194.388 307.57 194.388C308.272 192.738 309.059 191.126 309.93 189.558C310.75 188.278 312.93 186.468 314.2 185.228C315.47 183.988 317.44 185.018 316.34 187.848L318.61 185.578C320.2 183.988 321.61 184.078 321.69 186.288C321.742 187.023 321.54 187.753 321.12 188.358C321.12 188.358 322.51 186.448 323.17 186.868C325.08 188.078 324.7 189.608 323.01 194.288C321.58 198.288 322.13 200.288 323.71 200.908L324.71 201.208C324.71 201.208 322.77 202.068 320.89 202.728C319.52 203.208 318.17 203.478 316.98 201.948C316.98 201.948 315.49 204.088 314.1 203.268C313.118 202.605 312.289 201.739 311.67 200.728C311.184 200.955 310.643 201.038 310.112 200.967C309.58 200.896 309.08 200.674 308.67 200.328C307.838 199.734 307.229 198.879 306.94 197.898L306.06 197.918Z" fill="#FFBDA7"/>
<path d="M316.35 187.848C315.634 188.495 314.984 189.212 314.41 189.988C313.958 190.861 313.644 191.799 313.48 192.768C313.069 194.624 312.811 196.51 312.71 198.408C313.397 196.655 313.929 194.845 314.3 192.998C314.446 192.096 314.674 191.209 314.98 190.348C315.42 189.518 315.94 188.708 316.35 187.848Z" fill="#F0997A"/>
<path d="M321.13 188.358C320.3 189.012 319.644 189.86 319.22 190.828C318.798 191.779 318.463 192.767 318.22 193.778C317.726 195.773 317.445 197.814 317.38 199.868C318.019 197.94 318.56 195.981 319 193.998C319.351 192.002 320.074 190.089 321.13 188.358Z" fill="#F0997A"/>
<path d="M333 29.9983C338.359 34.9349 341.632 41.7306 342.15 48.9983L342.21 52.2883C341.913 59.4873 338.92 66.3114 333.824 71.405C328.728 76.4987 321.902 79.4893 314.703 79.7827C307.504 80.0762 300.458 77.6511 294.964 72.9891C289.471 68.3271 285.932 61.7693 285.05 54.6183L284.83 51.3383C284.78 45.7376 286.37 40.2448 289.404 35.5367C292.438 30.8287 296.783 27.1113 301.904 24.8427C307.025 22.5741 312.698 21.8534 318.223 22.7695C323.749 23.6856 328.885 26.1984 333 29.9983Z" fill="white"/>
<path d="M290.6 30.0683C285.308 35.82 282.371 43.3511 282.373 51.167C282.375 58.983 285.315 66.5126 290.61 72.2619C295.905 78.0111 303.167 81.5598 310.957 82.2038C318.746 82.8478 326.493 80.54 332.66 75.7383L341.66 79.2583C341.999 79.3951 342.372 79.4251 342.729 79.3445C343.086 79.2639 343.41 79.0764 343.658 78.807C343.906 78.5376 344.065 78.1991 344.116 77.8367C344.166 77.4742 344.105 77.105 343.94 76.7783L339.66 68.0983C343.876 61.5456 345.484 53.6507 344.165 45.9711C342.846 38.2915 338.697 31.385 332.537 26.6142C326.376 21.8433 318.651 19.5546 310.886 20.1996C303.121 20.8446 295.879 24.3764 290.59 30.0983L290.6 30.0683ZM333 29.9983C338.367 34.9324 341.65 41.7274 342.18 48.9983L342.24 52.2883C341.976 59.5008 339.003 66.3486 333.914 71.4665C328.825 76.5844 321.994 79.5962 314.783 79.9016C307.572 80.2069 300.511 77.7833 295.008 73.114C289.504 68.4446 285.963 61.8726 285.09 54.7083L284.87 51.4283C284.805 45.8258 286.382 40.3269 289.406 35.6104C292.431 30.8938 296.77 27.166 301.888 24.887C307.007 22.608 312.68 21.8775 318.209 22.7859C323.738 23.6942 328.88 26.2015 333 29.9983Z" fill="#455A64"/>
<path d="M309.26 68.8883C308.658 68.8884 308.063 68.7651 307.511 68.526C306.959 68.2869 306.462 67.9371 306.05 67.4983L296.05 56.8383C295.622 56.4343 295.28 55.9486 295.043 55.4099C294.806 54.8713 294.68 54.2906 294.672 53.7023C294.663 53.1139 294.773 52.5299 294.994 51.9847C295.215 51.4395 295.544 50.9442 295.96 50.5281C296.376 50.1121 296.871 49.7837 297.416 49.5624C297.962 49.3411 298.546 49.2315 299.134 49.2399C299.722 49.2483 300.303 49.3746 300.842 49.6114C301.38 49.8481 301.866 50.1905 302.27 50.6183L302.48 50.8383L309 57.7583L324.36 38.3083C325.084 37.392 326.142 36.8008 327.302 36.6648C328.462 36.5289 329.629 36.8592 330.545 37.5833C331.461 38.3073 332.052 39.3657 332.188 40.5256C332.324 41.6856 331.994 42.852 331.27 43.7683L312.72 67.2083C312.325 67.7108 311.825 68.1213 311.255 68.4114C310.685 68.7015 310.059 68.8642 309.42 68.8883H309.26Z" fill="#1A41E7"/>
<path d="M463.28 39.1283C462.976 38.4293 462.542 37.7947 462 37.2583C462.494 36.642 462.808 35.9004 462.905 35.1163C463.002 34.3322 462.879 33.5366 462.55 32.8183C462.294 32.23 461.896 31.7146 461.392 31.3184C460.887 30.9221 460.292 30.6575 459.66 30.5483C459.85 30.0066 459.932 29.4325 459.899 28.8593C459.866 28.286 459.721 27.7249 459.47 27.2083C459.018 26.2093 458.189 25.4297 457.164 25.04C456.139 24.6503 455.002 24.682 454 25.1283L444.72 29.5183C444.005 26.4318 442.319 23.6558 439.91 21.5983C438.988 20.791 437.821 20.3191 436.597 20.2592C435.374 20.1993 434.166 20.5549 433.17 21.2683C432.09 22.0583 432.28 22.7783 432.41 23.0583C432.54 23.3383 432.75 23.7083 433.05 24.2583C433.78 25.5983 435.49 28.7283 435.54 29.5483C435.59 30.3683 434.8 36.0683 434.25 39.6283C434.229 39.7679 434.25 39.9106 434.31 40.0383L443.24 58.8983C443.312 59.0517 443.435 59.1749 443.589 59.2463C443.743 59.3176 443.916 59.3325 444.08 59.2883H444.19L460.87 51.3883C461.985 50.9491 462.88 50.0851 463.358 48.9862C463.836 47.8874 463.859 46.6435 463.42 45.5283C463.135 44.9211 462.768 44.3558 462.33 43.8483C462.892 43.216 463.276 42.4459 463.443 41.6166C463.61 40.7874 463.553 39.9287 463.28 39.1283ZM460.89 43.1283C460.786 43.1816 460.696 43.258 460.627 43.3517C460.558 43.4453 460.511 43.5536 460.49 43.6683C460.476 43.7864 460.49 43.9062 460.532 44.0177C460.573 44.1291 460.641 44.2288 460.73 44.3083C461.286 44.8376 461.741 45.4647 462.07 46.1583C462.345 46.9371 462.303 47.7926 461.953 48.5408C461.603 49.2889 460.974 49.8698 460.2 50.1583L444.2 57.7483L435.67 39.7483C435.91 38.1683 437.02 30.8483 436.94 29.5883C436.88 28.5283 435.65 26.1983 434.28 23.6983L433.76 22.6983C434.252 22.2557 434.858 21.9611 435.51 21.8483C436.11 21.7144 436.733 21.7254 437.327 21.8801C437.922 22.0349 438.472 22.3291 438.93 22.7383C441.342 24.7888 442.959 27.6194 443.5 30.7383C443.519 30.8458 443.564 30.9471 443.63 31.034C443.696 31.1209 443.782 31.191 443.88 31.2383C443.976 31.2874 444.082 31.3131 444.19 31.3131C444.298 31.3131 444.404 31.2874 444.5 31.2383L454.59 26.4583C455.249 26.185 455.988 26.1794 456.651 26.4427C457.314 26.706 457.848 27.2174 458.14 27.8683C458.374 28.3417 458.478 28.8684 458.443 29.3952C458.408 29.9219 458.234 30.4301 457.94 30.8683C457.862 30.9851 457.821 31.1224 457.821 31.2629C457.821 31.4033 457.863 31.5405 457.941 31.6572C458.019 31.7738 458.13 31.8647 458.26 31.9183C458.39 31.9719 458.532 31.9858 458.67 31.9583C459.204 31.8765 459.75 31.9797 460.217 32.2507C460.685 32.5216 461.046 32.9442 461.24 33.4483C461.499 34.0134 461.562 34.649 461.419 35.2541C461.276 35.8593 460.935 36.3992 460.45 36.7883C460.353 36.8623 460.277 36.9602 460.23 37.0724C460.183 37.1847 460.165 37.3073 460.18 37.4283C460.194 37.5491 460.238 37.6645 460.308 37.7641C460.377 37.8636 460.471 37.9441 460.58 37.9983C461.226 38.4172 461.723 39.0298 462 39.7483C462.33 40.5183 461.87 42.5983 460.86 43.0783L460.89 43.1283ZM432.89 40.1283C432.806 39.9602 432.66 39.8311 432.483 39.7677C432.306 39.7044 432.112 39.7118 431.94 39.7883L424.67 43.2383C424.503 43.3205 424.374 43.4644 424.31 43.6397C424.247 43.815 424.254 44.0081 424.33 44.1783L434.73 66.1783C434.803 66.3278 434.926 66.4474 435.077 66.5166C435.228 66.5859 435.399 66.6006 435.56 66.5583H435.68L443 63.1183C443.084 63.0796 443.159 63.0242 443.221 62.9554C443.283 62.8866 443.33 62.806 443.36 62.7183C443.43 62.5416 443.43 62.345 443.36 62.1683L432.89 40.1283ZM435.71 64.8783L425.92 44.1283L431.92 41.2983L441.7 61.9983L435.71 64.8783Z" fill="#968DE2"/>
<path d="M14.05 136.298C13.8207 136.78 13.6495 137.287 13.54 137.808C13.4267 138.75 13.6898 139.699 14.2722 140.448C14.8546 141.197 15.7091 141.686 16.65 141.808L31.06 144.648H31.15C31.2834 144.649 31.413 144.603 31.5168 144.52C31.6206 144.436 31.6924 144.319 31.72 144.188L34.93 127.898C34.9699 127.792 34.9699 127.675 34.93 127.568C33.81 124.928 32.1 120.748 31.93 120.048C32.0627 118.498 32.3576 116.967 32.81 115.478C32.94 114.988 33.04 114.608 33.07 114.418C33.1 114.228 33.07 113.598 32.14 113.188C31.2303 112.836 30.2284 112.8 29.2958 113.086C28.3632 113.373 27.5545 113.966 27 114.768C25.5505 116.811 24.7935 119.264 24.84 121.768L16.84 120.198C15.9836 120.061 15.1074 120.263 14.3977 120.762C13.6881 121.26 13.2009 122.016 13.04 122.868C12.8587 123.768 13.0306 124.702 13.52 125.478C13.0537 125.685 12.646 126.004 12.3336 126.407C12.0212 126.811 11.8138 127.285 11.73 127.788C11.6021 128.42 11.6532 129.075 11.8776 129.679C12.102 130.284 12.4908 130.813 13 131.208C12.6729 131.727 12.4489 132.305 12.34 132.908C12.3038 133.574 12.4426 134.237 12.7426 134.831C13.0427 135.426 13.4935 135.932 14.05 136.298ZM13.46 133.098C13.5398 132.486 13.813 131.915 14.24 131.468C14.3158 131.407 14.3742 131.326 14.4093 131.235C14.4443 131.144 14.4549 131.045 14.44 130.948C14.4239 130.853 14.3844 130.762 14.3251 130.686C14.2658 130.609 14.1885 130.548 14.1 130.508C13.6475 130.304 13.2771 129.953 13.0485 129.512C12.8199 129.071 12.7465 128.566 12.84 128.078C12.8924 127.652 13.0883 127.257 13.3955 126.957C13.7027 126.657 14.1028 126.471 14.53 126.428C14.6427 126.426 14.752 126.39 14.8432 126.324C14.9344 126.257 15.0031 126.165 15.04 126.058C15.0738 125.952 15.0767 125.838 15.0483 125.73C15.02 125.622 14.9616 125.524 14.88 125.448C14.5694 125.163 14.3386 124.802 14.2106 124.4C14.0826 123.999 14.0617 123.571 14.15 123.158C14.2458 122.599 14.5569 122.099 15.0168 121.766C15.4767 121.434 16.0486 121.294 16.61 121.378L25.32 123.088C25.4645 123.118 25.6148 123.089 25.7384 123.009C25.862 122.928 25.9488 122.802 25.98 122.658C25.99 122.605 25.99 122.551 25.98 122.498C25.8007 119.98 26.5083 117.479 27.98 115.428C28.2509 115.028 28.6118 114.696 29.0337 114.46C29.4556 114.224 29.927 114.09 30.41 114.068C30.9336 114.028 31.4577 114.139 31.92 114.388L31.71 115.228C31.14 117.418 30.65 119.458 30.8 120.288C30.99 121.288 33.28 126.708 33.8 127.878L30.71 143.438L16.86 140.718C16.2096 140.643 15.6146 140.316 15.2017 139.808C14.7888 139.3 14.5908 138.65 14.65 137.998C14.7713 137.4 14.9982 136.827 15.32 136.308C15.3733 136.23 15.4067 136.14 15.4171 136.046C15.4276 135.952 15.4148 135.856 15.38 135.768C15.3445 135.683 15.2886 135.607 15.2172 135.547C15.1457 135.488 15.0609 135.447 14.97 135.428C14.5087 135.23 14.1158 134.901 13.8402 134.481C13.5646 134.062 13.4185 133.57 13.42 133.068L13.46 133.098ZM32.25 146.608C32.2342 146.681 32.2341 146.756 32.2496 146.828C32.2651 146.9 32.2959 146.969 32.34 147.028C32.3782 147.093 32.4304 147.148 32.4927 147.189C32.555 147.231 32.6259 147.258 32.7 147.268L39 148.498H39.09C39.2234 148.499 39.353 148.453 39.4568 148.37C39.5606 148.286 39.6324 148.169 39.66 148.038L43.39 129.038C43.4053 128.964 43.4053 128.888 43.3898 128.814C43.3743 128.74 43.3437 128.67 43.3 128.608C43.2162 128.484 43.0869 128.398 42.94 128.368L36.66 127.208C36.5897 127.192 36.5169 127.19 36.4458 127.203C36.3748 127.215 36.3069 127.242 36.2464 127.281C36.1858 127.32 36.1336 127.371 36.093 127.431C36.0524 127.49 36.0242 127.558 36.01 127.628L32.25 146.608ZM33.47 146.268L37 128.418L42.17 129.418L38.66 147.268L33.47 146.268Z" fill="#968DE2"/>
<path d="M443.42 213.208C443.143 213.561 442.911 213.948 442.73 214.358C442.456 215.105 442.489 215.93 442.823 216.652C443.157 217.374 443.764 217.934 444.51 218.208H444.56L455.89 223.128H456C456.109 223.156 456.224 223.145 456.325 223.095C456.426 223.046 456.506 222.962 456.55 222.858L462.12 210.048C462.15 209.957 462.15 209.859 462.12 209.768C461.68 207.398 461.03 203.658 461.05 203.058C461.44 201.811 461.959 200.608 462.6 199.468C462.79 199.088 462.94 198.788 463 198.638C463.06 198.488 463.19 197.968 462.45 197.458C461.767 197.006 460.952 196.797 460.136 196.864C459.32 196.931 458.55 197.271 457.95 197.828C456.381 199.255 455.311 201.148 454.9 203.228L448.6 200.488C447.922 200.219 447.165 200.227 446.492 200.509C445.819 200.791 445.283 201.326 445 201.998C444.679 202.702 444.65 203.504 444.92 204.228C444.499 204.311 444.105 204.5 443.776 204.776C443.448 205.052 443.194 205.407 443.04 205.808C442.83 206.302 442.761 206.844 442.843 207.374C442.924 207.904 443.152 208.401 443.5 208.808C443.135 209.171 442.846 209.603 442.65 210.078C442.491 210.622 442.478 211.197 442.614 211.747C442.749 212.297 443.027 212.801 443.42 213.208ZM443.52 210.468C443.701 209.983 444.025 209.565 444.45 209.268C444.524 209.233 444.588 209.177 444.633 209.109C444.679 209.04 444.706 208.961 444.71 208.878C444.715 208.798 444.701 208.718 444.667 208.645C444.634 208.571 444.584 208.507 444.52 208.458C444.185 208.209 443.943 207.856 443.833 207.453C443.722 207.051 443.749 206.623 443.91 206.238C444.03 205.897 444.263 205.607 444.57 205.416C444.878 205.225 445.241 205.145 445.6 205.188C445.662 205.2 445.725 205.199 445.787 205.185C445.848 205.172 445.906 205.146 445.957 205.11C446.009 205.073 446.052 205.027 446.085 204.973C446.118 204.92 446.14 204.86 446.15 204.798C446.169 204.673 446.141 204.544 446.07 204.438C445.865 204.151 445.739 203.815 445.706 203.464C445.672 203.113 445.732 202.759 445.88 202.438C446.064 202.001 446.411 201.652 446.848 201.465C447.284 201.278 447.776 201.269 448.22 201.438L455.07 204.438C455.135 204.472 455.207 204.49 455.28 204.49C455.353 204.49 455.425 204.472 455.49 204.438C455.555 204.407 455.612 204.359 455.654 204.299C455.696 204.24 455.722 204.171 455.73 204.098C456.019 201.994 457.043 200.06 458.62 198.638C458.917 198.352 459.278 198.142 459.673 198.025C460.068 197.909 460.486 197.889 460.89 197.968C461.327 198.025 461.737 198.209 462.07 198.498C462 198.648 461.89 198.878 461.75 199.148C461.011 200.397 460.452 201.743 460.09 203.148C460.09 203.988 460.96 208.868 461.16 209.918L455.84 222.158L444.94 217.418C444.424 217.24 443.996 216.868 443.748 216.382C443.5 215.895 443.451 215.331 443.61 214.808C443.812 214.336 444.101 213.905 444.46 213.538C444.52 213.486 444.566 213.419 444.592 213.343C444.618 213.268 444.624 213.187 444.61 213.108C444.596 213.03 444.563 212.956 444.514 212.894C444.466 212.831 444.402 212.781 444.33 212.748C443.987 212.487 443.73 212.13 443.591 211.722C443.452 211.314 443.438 210.874 443.55 210.458L443.52 210.468ZM456.52 224.958C456.496 225.017 456.483 225.08 456.483 225.143C456.483 225.207 456.496 225.27 456.52 225.328C456.538 225.388 456.571 225.443 456.614 225.488C456.657 225.533 456.711 225.568 456.77 225.588L461.71 227.738H461.78C461.89 227.768 462.007 227.756 462.109 227.704C462.211 227.652 462.289 227.565 462.33 227.458L468.82 212.548C468.845 212.492 468.858 212.43 468.858 212.368C468.858 212.306 468.845 212.245 468.82 212.188C468.796 212.13 468.761 212.076 468.716 212.032C468.672 211.987 468.619 211.952 468.56 211.928L463.63 209.778C463.516 209.731 463.387 209.729 463.272 209.774C463.156 209.818 463.062 209.906 463.01 210.018L456.52 224.958ZM457.59 224.908L463.69 210.908L467.75 212.678L461.65 226.678L457.59 224.908Z" fill="#968DE2"/>
<path d="M390.15 11.9283C390.15 11.0983 391.86 8.11829 392.15 7.54829C392.44 6.97829 389.81 5.54829 388.05 7.24829C386.461 8.66907 385.417 10.6002 385.1 12.7083L378.56 9.78829C378.02 9.57603 377.418 9.58383 376.883 9.81C376.349 10.0362 375.924 10.4627 375.7 10.9983C375.528 11.3797 375.457 11.799 375.494 12.2158C375.531 12.6325 375.674 13.0329 375.91 13.3783C375.465 13.3188 375.013 13.4107 374.627 13.6393C374.24 13.8678 373.942 14.2197 373.78 14.6383C373.576 15.1008 373.535 15.6188 373.664 16.1076C373.793 16.5963 374.084 17.0268 374.49 17.3283C373.976 17.6442 373.581 18.1229 373.37 18.6883C373.227 19.1906 373.246 19.7255 373.426 20.216C373.605 20.7065 373.936 21.1275 374.37 21.4183C373.971 21.8081 373.649 22.2694 373.42 22.7783C373.213 23.39 373.253 24.0581 373.532 24.6408C373.81 25.2234 374.304 25.6745 374.91 25.8983L385.72 30.7283L391.18 18.4983C391.18 18.4983 390.12 12.7683 390.15 11.9283ZM392.84 18.8183L386.49 33.0483L391.21 35.1483L397.55 20.9183L392.84 18.8183ZM389.84 32.8183C389.658 32.8183 389.48 32.7643 389.329 32.6632C389.178 32.5622 389.06 32.4185 388.99 32.2504C388.92 32.0823 388.902 31.8973 388.938 31.7188C388.973 31.5403 389.061 31.3764 389.189 31.2478C389.318 31.1191 389.482 31.0315 389.661 30.996C389.839 30.9605 390.024 30.9787 390.192 31.0483C390.36 31.118 390.504 31.2359 390.605 31.3872C390.706 31.5385 390.76 31.7163 390.76 31.8983C390.76 32.1423 390.663 32.3763 390.491 32.5488C390.318 32.7214 390.084 32.8183 389.84 32.8183Z" fill="#968DE2"/>
<path d="M32.87 38.4183L45.19 64.8483L68.57 53.9983C71.57 52.5683 72.73 49.3583 71.7 47.1383C71.1796 46.0539 70.4644 45.0743 69.59 44.2483C71.59 43.3183 72.35 39.7983 71.59 38.2483C71.1065 37.0264 70.2352 35.997 69.11 35.3183C69.974 34.6411 70.5855 33.6935 70.8466 32.6273C71.1078 31.5611 71.0033 30.438 70.55 29.4383C70.1817 28.534 69.5198 27.7799 68.6709 27.2974C67.822 26.8149 66.8354 26.6321 65.87 26.7783C66.3764 26.0196 66.6768 25.1422 66.7417 24.2322C66.8065 23.3223 66.6337 22.4112 66.24 21.5883C65.46 19.8683 63 17.6883 60 19.0783L45.89 25.6483C45.1394 21.064 42.7994 16.8902 39.28 13.8583C35.38 10.2783 29.79 13.4383 30.36 14.6683C30.93 15.8983 34.67 22.3283 34.77 24.1383C34.87 25.9483 32.87 38.4183 32.87 38.4183ZM19 43.9983L33.29 74.7283L43.49 69.9983L29.15 39.2083L19 43.9983ZM34.17 67.5983C34.17 67.2027 34.2873 66.8161 34.5071 66.4872C34.7268 66.1583 35.0392 65.9019 35.4046 65.7505C35.7701 65.5992 36.1722 65.5595 36.5602 65.6367C36.9481 65.7139 37.3045 65.9044 37.5842 66.1841C37.8639 66.4638 38.0544 66.8201 38.1316 67.2081C38.2087 67.5961 38.1691 67.9982 38.0178 68.3637C37.8664 68.7291 37.61 69.0415 37.2811 69.2612C36.9522 69.481 36.5656 69.5983 36.17 69.5983C35.6396 69.5983 35.1309 69.3876 34.7558 69.0125C34.3807 68.6374 34.17 68.1287 34.17 67.5983Z" fill="#968DE2"/>
<path d="M446 127.598C445.503 127.599 445.011 127.497 444.555 127.299C444.099 127.101 443.689 126.812 443.35 126.448L435.11 117.658C434.494 116.946 434.177 116.024 434.225 115.084C434.273 114.143 434.682 113.258 435.368 112.613C436.053 111.967 436.962 111.611 437.903 111.62C438.845 111.629 439.746 112.001 440.42 112.658L445.77 118.368L458.43 102.368C459.027 101.612 459.899 101.125 460.856 101.012C461.812 100.9 462.774 101.172 463.53 101.768C464.286 102.365 464.774 103.238 464.886 104.194C464.999 105.15 464.727 106.112 464.13 106.868L448.86 126.208C448.537 126.62 448.128 126.957 447.662 127.196C447.196 127.434 446.683 127.568 446.16 127.588L446 127.598Z" fill="#968DE2"/>
<path d="M26.8 218.208C26.301 218.212 25.8068 218.112 25.3488 217.914C24.8908 217.716 24.4791 217.424 24.14 217.058L15.91 208.208C15.5817 207.86 15.3251 207.451 15.155 207.004C14.9849 206.557 14.9045 206.08 14.9184 205.602C14.9323 205.124 15.0403 204.653 15.2362 204.217C15.4321 203.78 15.712 203.387 16.06 203.058C16.408 202.73 16.8173 202.473 17.2644 202.303C17.7116 202.133 18.1878 202.053 18.6661 202.067C19.1443 202.081 19.6151 202.189 20.0516 202.384C20.4881 202.58 20.8817 202.86 21.21 203.208L26.56 208.918L39.22 192.918C39.8346 192.217 40.695 191.778 41.6235 191.693C42.5521 191.607 43.4781 191.881 44.2105 192.459C44.9429 193.036 45.4259 193.872 45.5597 194.795C45.6936 195.718 45.4682 196.657 44.93 197.418L29.65 216.808C29.327 217.22 28.9181 217.557 28.4519 217.796C27.9857 218.034 27.4732 218.168 26.95 218.188L26.8 218.208Z" fill="#968DE2"/>
<path d="M121.94 41.9983C121.263 41.9986 120.593 41.8594 119.971 41.5892C119.35 41.3191 118.792 40.9239 118.33 40.4283L108.84 30.2983C108.393 29.825 108.045 29.2681 107.814 28.6596C107.583 28.0511 107.475 27.403 107.495 26.7526C107.516 26.1021 107.664 25.4621 107.933 24.8693C108.201 24.2765 108.584 23.7426 109.06 23.2983C110.028 22.4171 111.302 21.9503 112.61 21.9983C113.258 22.0172 113.896 22.1649 114.487 22.4327C115.077 22.7006 115.609 23.0832 116.05 23.5583L121.62 29.4983L135.62 11.7183C136.019 11.2077 136.515 10.7813 137.08 10.4638C137.644 10.1462 138.267 9.94384 138.91 9.86829C140.207 9.71321 141.514 10.0722 142.55 10.8683C143.576 11.6794 144.239 12.8646 144.393 14.1637C144.547 15.4629 144.179 16.77 143.37 17.7983L125.81 40.2083C125.371 40.7682 124.815 41.2256 124.181 41.5486C123.548 41.8715 122.851 42.0523 122.14 42.0783L121.94 41.9983ZM112.42 23.4883C111.75 23.4907 111.096 23.6884 110.537 24.0572C109.978 24.426 109.539 24.9499 109.274 25.5646C109.009 26.1793 108.928 26.8582 109.043 27.5178C109.158 28.1775 109.463 28.7893 109.92 29.2783L119.42 39.4083C119.741 39.753 120.129 40.0277 120.561 40.2153C120.993 40.4028 121.459 40.4992 121.93 40.4983H122.06C122.556 40.4821 123.042 40.3573 123.484 40.1327C123.927 39.9081 124.314 39.5891 124.62 39.1983L142.22 16.9983C142.825 16.3061 143.13 15.402 143.068 14.4849C143.006 13.5679 142.582 12.713 141.89 12.1083C141.198 11.5036 140.294 11.1987 139.377 11.2605C138.46 11.3224 137.605 11.7461 137 12.4383L136.79 12.6983L121.71 31.8383L115 24.6183C114.377 23.9568 113.518 23.5686 112.61 23.5383L112.42 23.4883Z" fill="#968DE2"/>
<path d="M115.06 132.858C114.587 132.911 114.119 133.002 113.66 133.128C113.042 133.297 112.445 133.535 111.88 133.838C111.055 134.263 110.314 134.832 109.69 135.518C109.135 136.143 108.707 136.87 108.43 137.658C108.159 138.439 108.036 139.263 108.07 140.088C108.112 140.965 108.294 141.829 108.61 142.648C108.973 143.702 109.572 144.66 110.36 145.448C111.032 146.115 111.925 146.513 112.87 146.568C113.129 146.593 113.391 146.593 113.65 146.568C114.511 146.451 115.342 146.173 116.1 145.748C116.662 145.451 117.203 145.117 117.72 144.748C118.174 144.4 118.599 144.016 118.99 143.598L118.38 141.998C117.94 142.428 117.51 142.808 117.09 143.148C116.651 143.492 116.182 143.796 115.69 144.058C115.205 144.332 114.672 144.512 114.12 144.588C113.931 144.608 113.739 144.608 113.55 144.588C112.893 144.513 112.284 144.208 111.83 143.728C111.28 143.126 110.858 142.419 110.59 141.648C110.35 141.037 110.202 140.393 110.15 139.738C110.108 139.156 110.166 138.571 110.32 138.008C110.481 137.478 110.746 136.985 111.1 136.558C111.486 136.11 111.954 135.739 112.48 135.468C112.93 135.232 113.412 135.061 113.91 134.958C114.24 134.889 114.574 134.839 114.91 134.808H115.37L115.44 132.898H115.07" fill="#455A64"/>
<path d="M124.4 139.098C124.2 139.118 123.999 139.118 123.8 139.098C123.148 139.006 122.55 138.688 122.11 138.198C121.565 137.587 121.147 136.873 120.88 136.098C120.562 135.31 120.392 134.469 120.38 133.618C120.372 132.885 120.569 132.165 120.95 131.538C121.386 130.877 121.985 130.34 122.69 129.978C123.175 129.714 123.703 129.538 124.25 129.458C124.756 129.398 125.269 129.503 125.71 129.758C126.67 130.403 127.377 131.361 127.71 132.468C128.029 133.257 128.205 134.097 128.23 134.948C128.248 135.677 128.057 136.395 127.68 137.018C127.255 137.689 126.653 138.228 125.94 138.578C125.464 138.846 124.941 139.023 124.4 139.098ZM124.61 127.538C123.725 127.663 122.87 127.951 122.09 128.388C120.989 128.939 120.036 129.745 119.31 130.738C118.706 131.627 118.36 132.665 118.31 133.738C118.26 134.9 118.458 136.059 118.89 137.138C119.179 137.952 119.602 138.713 120.14 139.388C120.587 139.969 121.171 140.429 121.84 140.728C122.523 141.011 123.269 141.105 124 140.998C124.888 140.881 125.745 140.588 126.52 140.138C127.352 139.715 128.103 139.15 128.74 138.468C129.289 137.86 129.708 137.145 129.97 136.368C130.222 135.591 130.324 134.773 130.27 133.958C130.209 133.072 130.017 132.199 129.7 131.368C129.333 130.315 128.723 129.362 127.92 128.588C127.22 127.93 126.309 127.541 125.35 127.488C125.097 127.468 124.843 127.468 124.59 127.488" fill="#455A64"/>
<path d="M142 118.048L139.32 119.468L139.48 130.358H139.43L132.71 122.998L130 124.368L134.33 135.818L136.06 134.898L133.69 128.618C133.54 128.248 133.38 127.848 133.2 127.428C133.02 127.008 132.86 126.628 132.7 126.268C132.54 125.908 132.41 125.638 132.31 125.418H132.38L139.38 133.188L141.05 132.298L140.89 120.928H140.96C141.03 121.158 141.12 121.458 141.24 121.838C141.36 122.218 141.5 122.598 141.64 123.008C141.78 123.418 141.92 123.808 142.06 124.148L144.47 130.518L146.28 129.518L142 118.048Z" fill="#455A64"/>
<path d="M149 120.998L147.47 116.998L148.81 116.288C149.277 116.014 149.793 115.834 150.33 115.758C150.509 115.728 150.691 115.728 150.87 115.758C151.149 115.833 151.404 115.979 151.609 116.183C151.814 116.386 151.963 116.64 152.04 116.918C152.215 117.349 152.257 117.823 152.16 118.278C152.044 118.725 151.805 119.131 151.47 119.448C151.042 119.85 150.556 120.187 150.03 120.448L149.03 120.998H149ZM150.91 113.738C150.016 113.878 149.156 114.18 148.37 114.628L145.01 116.428L149.34 127.868L151.24 126.868L149.62 122.588L150.85 121.928C151.585 121.556 152.26 121.074 152.85 120.498C153.312 120.052 153.685 119.523 153.95 118.938C154.167 118.437 154.272 117.894 154.26 117.348C154.241 116.826 154.139 116.309 153.96 115.818C153.823 115.343 153.568 114.91 153.218 114.56C152.868 114.21 152.435 113.955 151.96 113.818C151.611 113.728 151.248 113.704 150.89 113.748" fill="#455A64"/>
<path d="M156.86 110.108L154.96 111.118L159.29 122.568L166.11 118.938L165.5 117.338L160.59 119.958L156.86 110.108Z" fill="#455A64"/>
<path d="M165.66 105.418L163.77 106.428L168.1 117.878L170 116.868L165.66 105.418Z" fill="#455A64"/>
<path d="M173.39 109.318L173.31 105.588C173.31 105.448 173.31 105.238 173.31 104.968C173.31 104.698 173.31 104.418 173.25 104.118C173.19 103.818 173.2 103.538 173.17 103.298L173.62 103.838L174.14 104.478C174.32 104.678 174.45 104.838 174.54 104.958L176.84 107.508L173.43 109.318H173.39ZM173.63 101.148L171.53 102.268V116.048L173.53 114.988L173.45 111.208L177.88 108.848L180.22 111.418L182.22 110.348L173.56 101.148" fill="#455A64"/>
<path d="M189.1 92.9983L187.36 93.9283L189.65 99.9283C189.78 100.268 189.93 100.618 190.08 100.928C190.23 101.238 190.39 101.638 190.53 101.928C190.67 102.218 190.81 102.558 190.91 102.828L181.81 96.7683L179.49 98.0083L183.83 109.448L185.56 108.528L183.29 102.528L182.83 101.448L182.38 100.448L181.95 99.5083H182.02L191.15 105.638L193.49 104.388L189.1 92.9983Z" fill="#455A64"/>
<path d="M200.14 87.5683C199.688 87.6239 199.24 87.7108 198.8 87.8283C198.182 88.0022 197.585 88.2436 197.02 88.5483C196.195 88.972 195.453 89.5411 194.83 90.2283C194.274 90.8488 193.846 91.5725 193.57 92.3583C193.299 93.1385 193.176 93.9629 193.21 94.7883C193.258 95.6675 193.44 96.5342 193.75 97.3583C194.117 98.4076 194.715 99.3611 195.5 100.148C196.177 100.81 197.066 101.21 198.01 101.278C198.263 101.303 198.517 101.303 198.77 101.278C199.639 101.162 200.477 100.88 201.24 100.448C201.806 100.16 202.348 99.8251 202.86 99.4483C203.314 99.0968 203.739 98.7088 204.13 98.2883L203.52 96.6883C203.113 97.0964 202.682 97.4804 202.23 97.8383C201.798 98.1827 201.337 98.4873 200.85 98.7483C200.366 99.0225 199.832 99.1992 199.28 99.2683C199.084 99.2932 198.886 99.2932 198.69 99.2683C198.043 99.181 197.447 98.8738 197 98.3983C196.45 97.7964 196.028 97.0887 195.76 96.3183C195.524 95.7054 195.376 95.0624 195.32 94.4083C195.276 93.8255 195.337 93.2396 195.5 92.6783C195.653 92.1445 195.919 91.6499 196.28 91.2283C196.66 90.7807 197.126 90.4135 197.65 90.1483C198.101 89.9032 198.586 89.7279 199.09 89.6283L200.09 89.4783H200.55L200.63 87.5783H200.19" fill="#455A64"/>
<path d="M208.98 82.3883L202.42 85.8683L206.76 97.3083L213.31 93.8183L212.71 92.2383L208.05 94.7083L206.69 91.1183L211.05 88.7983L210.46 87.2283L206.1 89.5483L204.92 86.4383L209.58 83.9583L208.98 82.3883Z" fill="#455A64"/>
</svg>
