<svg width="162" height="262" viewBox="0 0 162 262" fill="none" xmlns="http://www.w3.org/2000/svg">
<g clip-path="url(#clip0_36_803)">
<path d="M46.5099 112.51L45.1099 112.98C38.8699 115.09 20.2999 121.23 14.6799 123.53C14.6799 123.53 24.6199 211.44 25.7899 219.61C26.9599 227.78 27.2499 260.46 27.2499 260.46H133C133 260.46 132.72 172.36 133 158.69C133.4 141.01 135.59 123.53 135.59 123.53L117.12 116.31L95.5199 104.93L46.5099 112.51Z" fill="#E8505B"/>
<g opacity="0.3">
<path d="M70 131.53C61.3667 163.59 52.2734 195.52 42.72 227.32C41.59 231.06 40.47 235.18 41.99 238.79C42.7455 240.37 43.8911 241.732 45.3188 242.747C46.7465 243.762 48.4092 244.396 50.15 244.59C53.6401 244.918 57.1437 244.123 60.15 242.32C67.3 238.32 71.94 230.82 74.22 222.96C76.5 215.1 76.7 206.81 76.89 198.62L78.39 133.16L70 131.53Z" fill="black"/>
</g>
<path d="M14.6801 123.53C14.6801 123.53 -0.819918 130.4 0.390082 158C0.972564 170.023 2.19429 182.007 4.05008 193.9L47.6601 181.35L36.5701 133.45L14.6801 123.53Z" fill="#E8505B"/>
<path d="M118.11 167.88L115.78 199.69L159.62 185.49C159.62 185.49 150.22 129.35 135.33 123.49L119.28 151L118.11 167.88Z" fill="#E8505B"/>
<path d="M123.09 158.69C123.143 158.903 123.17 159.121 123.17 159.34C123.17 159.82 123.25 160.44 123.31 161.2C123.4 162.88 123.53 165.2 123.68 168.05C123.97 173.84 124.28 181.83 124.56 190.66C124.84 199.49 125.1 207.43 125.29 213.28C125.38 216.12 125.45 218.45 125.5 220.13C125.5 220.89 125.5 221.51 125.5 221.99C125.528 222.209 125.528 222.431 125.5 222.65C125.453 222.436 125.426 222.219 125.42 222C125.42 221.52 125.34 220.9 125.29 220.14C125.19 218.46 125.07 216.14 124.91 213.29C124.63 207.51 124.31 199.51 124.03 190.68C123.75 181.85 123.49 173.91 123.31 168.07C123.22 165.22 123.15 162.89 123.09 161.21C123.09 160.45 123.09 159.83 123.09 159.35C123.069 159.131 123.069 158.91 123.09 158.69Z" fill="#263238"/>
<path d="M36.38 145.31C36.1526 144.999 35.9614 144.664 35.81 144.31C35.42 143.55 34.9499 142.61 34.3899 141.49C32.8984 138.371 31.0673 135.427 28.93 132.71C26.7632 130.025 23.9814 127.902 20.82 126.52C19.4816 126.021 18.1033 125.636 16.7 125.37C17.0847 125.315 17.4752 125.315 17.86 125.37C18.9164 125.506 19.9534 125.764 20.95 126.14C24.2326 127.447 27.12 129.583 29.33 132.34C31.5035 135.08 33.3151 138.088 34.72 141.29C35.28 142.5 35.72 143.5 35.99 144.19C36.1623 144.547 36.2932 144.923 36.38 145.31Z" fill="#263238"/>
<path d="M128.22 122.19C127.151 124.585 126.229 127.043 125.46 129.55C124.867 132.104 124.433 134.692 124.16 137.3C124.017 136.535 123.987 135.754 124.07 134.98C124.165 133.101 124.46 131.237 124.95 129.42C125.432 127.602 126.102 125.839 126.95 124.16C127.281 123.448 127.708 122.785 128.22 122.19Z" fill="#263238"/>
<path d="M30.7099 135.89C30.7099 135.89 30.5499 135.89 30.2799 135.89C29.8722 135.993 29.5165 136.242 29.2799 136.59C28.9153 137.135 28.6857 137.759 28.6099 138.41C28.5385 138.832 28.4314 139.246 28.2899 139.65C28.1324 140.131 27.8238 140.548 27.4099 140.84C26.8944 141.11 26.3104 141.221 25.7318 141.158C25.1533 141.096 24.6062 140.863 24.1599 140.49C23.2356 139.642 22.4555 138.649 21.8499 137.55C21.5029 137.01 21.0628 136.536 20.5499 136.15C20.0398 135.756 19.4142 135.542 18.7699 135.54C18.4538 135.573 18.1501 135.681 17.884 135.855C17.6179 136.029 17.3972 136.264 17.2399 136.54C16.9471 137.184 16.7905 137.882 16.7799 138.59C16.7299 139.33 16.7199 140.07 16.6299 140.82C16.6036 141.588 16.3871 142.337 15.9999 143C15.8946 143.161 15.7666 143.306 15.6199 143.43C15.4851 143.572 15.3301 143.693 15.1599 143.79C14.8264 143.975 14.4591 144.09 14.0799 144.13C13.3675 144.187 12.6527 144.053 12.0099 143.74C10.9114 143.102 9.96859 142.228 9.24995 141.18C8.62671 140.313 7.86682 139.553 6.99995 138.93C6.3166 138.423 5.4636 138.201 4.61995 138.31C3.99547 138.435 3.44167 138.793 3.06995 139.31C2.83349 139.645 2.71721 140.05 2.73995 140.46C2.73995 140.74 2.82995 140.88 2.80995 140.89C2.71399 140.769 2.65496 140.623 2.63995 140.47C2.56289 140.029 2.6558 139.575 2.89995 139.2C3.27813 138.597 3.8777 138.166 4.56995 138C5.49469 137.842 6.44421 138.058 7.20995 138.6C8.10886 139.228 8.89926 139.998 9.54995 140.88C10.2411 141.866 11.1429 142.686 12.1899 143.28C12.7516 143.554 13.3778 143.668 13.9999 143.61C14.31 143.58 14.6097 143.482 14.8776 143.323C15.1455 143.164 15.3751 142.948 15.5499 142.69C16.2799 141.59 16.1899 140.05 16.2999 138.56C16.3147 137.778 16.4954 137.007 16.8299 136.3C17.029 135.938 17.3173 135.634 17.6674 135.415C18.0174 135.196 18.4176 135.07 18.8299 135.05C19.5546 135.099 20.2552 135.33 20.867 135.722C21.4787 136.113 21.9819 136.653 22.3299 137.29C22.898 138.357 23.634 139.326 24.5099 140.16C24.8853 140.492 25.35 140.706 25.8462 140.775C26.3424 140.845 26.848 140.766 27.2999 140.55C27.936 139.992 28.3363 139.212 28.4199 138.37C28.524 137.688 28.7954 137.042 29.2099 136.49C29.472 136.126 29.8676 135.882 30.3099 135.81C30.4481 135.799 30.5866 135.827 30.7099 135.89Z" fill="#FAFAFA"/>
<path d="M39.57 150.64C39.6046 150.828 39.6046 151.022 39.57 151.21C39.5147 151.765 39.3297 152.3 39.03 152.77C38.5487 153.529 37.8525 154.128 37.03 154.49C36.4923 154.744 35.9037 154.871 35.3092 154.862C34.7147 154.854 34.1301 154.709 33.6 154.44C32.43 153.87 31.45 152.75 30.09 152.38C28.73 152.01 27.22 152.92 26.35 154.25C25.48 155.58 25.08 157.35 24.16 158.98C23.6861 159.836 22.9966 160.553 22.16 161.06C21.7168 161.341 21.2116 161.508 20.6886 161.548C20.1656 161.588 19.6408 161.5 19.16 161.29C18.2771 160.803 17.5545 160.07 17.08 159.18C16.58 158.36 16.17 157.53 15.67 156.8C15.2446 156.073 14.5692 155.526 13.77 155.26C13.3889 155.163 12.9911 155.153 12.6054 155.229C12.2197 155.305 11.8558 155.466 11.54 155.7C10.3172 156.654 9.38264 157.927 8.84 159.38C8.31137 160.657 7.69662 161.896 7 163.09C6.50079 163.985 5.79274 164.746 4.9361 165.308C4.07947 165.871 3.09963 166.218 2.08 166.32C1.53204 166.342 0.986798 166.232 0.49 166C0.362769 165.941 0.239213 165.874 0.12 165.8L0 165.75C0.659552 166.042 1.38034 166.169 2.1 166.12C3.0713 165.983 3.99671 165.62 4.80116 165.059C5.6056 164.497 6.26642 163.754 6.73 162.89C7.40883 161.7 8.01009 160.467 8.53 159.2C9.08982 157.663 10.0663 156.313 11.35 155.3C11.7231 155.025 12.1523 154.836 12.6069 154.746C13.0615 154.656 13.5304 154.668 13.98 154.78C14.894 155.075 15.6714 155.689 16.17 156.51C16.7 157.28 17.12 158.12 17.6 158.9C18.022 159.706 18.6679 160.373 19.46 160.82C19.8622 160.992 20.3003 161.062 20.7361 161.026C21.1719 160.989 21.592 160.846 21.96 160.61C22.7111 160.148 23.3309 159.5 23.76 158.73C24.64 157.2 25 155.42 26 154C26.4725 153.286 27.1063 152.694 27.85 152.27C28.5782 151.865 29.436 151.761 30.24 151.98C30.962 152.189 31.6398 152.528 32.24 152.98C32.7522 153.386 33.2936 153.754 33.86 154.08C34.3419 154.337 34.8762 154.481 35.4222 154.5C35.9682 154.519 36.5114 154.413 37.01 154.19C37.7812 153.861 38.4434 153.32 38.92 152.63C39.3024 152.033 39.5261 151.348 39.57 150.64Z" fill="#FAFAFA"/>
<path d="M34.48 172C34.48 172 34.35 172 34.11 171.95C33.7491 171.919 33.3902 172.03 33.11 172.26C32.6762 172.613 32.3561 173.086 32.19 173.62C31.9811 174.348 31.9468 175.116 32.09 175.86C32.2706 176.829 32.1947 177.829 31.87 178.76C31.6058 179.293 31.1889 179.736 30.6726 180.031C30.1562 180.327 29.5636 180.462 28.97 180.42C28.3165 180.415 27.6715 180.271 27.0783 179.997C26.485 179.722 25.9572 179.325 25.53 178.83C24.6385 177.775 23.9042 176.596 23.35 175.33L23.53 175.47C22.9981 175.426 22.4642 175.528 21.9864 175.766C21.5086 176.004 21.1052 176.369 20.82 176.82C20.1554 177.801 19.7589 178.939 19.67 180.12C19.561 181.029 19.3973 181.931 19.18 182.82C18.9442 183.715 18.4986 184.541 17.88 185.23C17.5773 185.578 17.2041 185.858 16.7852 186.051C16.3664 186.244 15.9113 186.346 15.45 186.35C14.5723 186.296 13.7394 185.943 13.09 185.35C11.82 184.26 11.18 182.81 10.31 181.75C9.95086 181.233 9.48088 180.802 8.93427 180.488C8.38765 180.175 7.77814 179.988 7.15005 179.94C6.09568 179.88 5.0604 180.24 4.27005 180.94C3.67953 181.477 3.2531 182.171 3.04005 182.94C2.88386 183.595 2.85669 184.274 2.96005 184.94C2.96005 184.94 2.96005 184.94 2.90005 184.81C2.85436 184.683 2.82087 184.553 2.80005 184.42C2.71435 183.898 2.73134 183.365 2.85005 182.85C3.03386 182.022 3.45831 181.267 4.07005 180.68C4.48544 180.299 4.97267 180.004 5.50324 179.814C6.03381 179.623 6.59707 179.54 7.16005 179.57C7.82131 179.59 8.46873 179.764 9.05005 180.08C9.66772 180.436 10.211 180.908 10.65 181.47C11.57 182.58 12.22 183.99 13.4 184.98C13.9681 185.495 14.6946 185.802 15.46 185.85C15.8533 185.839 16.2396 185.744 16.5932 185.572C16.9467 185.399 17.2593 185.153 17.51 184.85C18.0706 184.221 18.4719 183.466 18.68 182.65C18.8863 181.78 19.0432 180.898 19.15 180.01C19.2615 178.747 19.6916 177.532 20.4 176.48C20.7552 175.958 21.2473 175.544 21.8223 175.282C22.3974 175.021 23.0332 174.924 23.66 175H23.79L23.84 175.11C24.3652 176.338 25.0658 177.483 25.92 178.51C26.2972 178.964 26.7672 179.332 27.2985 179.589C27.8298 179.846 28.41 179.986 29 180C29.5161 180.045 30.0339 179.937 30.4891 179.69C30.9443 179.443 31.3168 179.067 31.56 178.61C31.8705 177.742 31.9531 176.809 31.8 175.9C31.6826 175.113 31.7441 174.31 31.98 173.55C32.1851 172.982 32.554 172.488 33.04 172.13C33.3496 171.908 33.7332 171.815 34.11 171.87C34.2423 171.882 34.3696 171.926 34.48 172Z" fill="#FAFAFA"/>
<path d="M155.88 167.76C155.88 167.76 155.69 167.76 155.37 167.91C154.915 168.09 154.524 168.404 154.25 168.81C153.817 169.47 153.515 170.206 153.36 170.98C153.205 172.041 152.92 173.079 152.51 174.07C152.246 174.675 151.803 175.185 151.24 175.53C150.917 175.709 150.557 175.808 150.188 175.82C149.82 175.832 149.454 175.757 149.12 175.6C148.453 175.234 147.897 174.695 147.51 174.04C147.1 173.405 146.746 172.736 146.45 172.04C146.138 171.337 145.701 170.697 145.16 170.15C144.918 169.864 144.608 169.644 144.259 169.507C143.909 169.371 143.532 169.324 143.16 169.37C142.803 169.487 142.486 169.701 142.246 169.99C142.005 170.278 141.851 170.628 141.8 171C141.675 171.864 141.631 172.738 141.67 173.61C141.717 175.449 141.063 177.236 139.84 178.61C139.251 179.25 138.485 179.701 137.639 179.904C136.793 180.107 135.906 180.053 135.09 179.75C133.57 179.06 132.65 177.75 131.63 176.91C131.223 176.451 130.705 176.105 130.125 175.905C129.545 175.705 128.923 175.659 128.32 175.77C127.332 176.051 126.484 176.689 125.94 177.56C125.525 178.231 125.208 178.959 125 179.72C124.66 180.99 124.54 181.72 124.5 181.72C124.471 181.545 124.471 181.366 124.5 181.19C124.563 180.686 124.653 180.185 124.77 179.69C124.939 178.894 125.236 178.131 125.65 177.43C126.216 176.468 127.123 175.755 128.19 175.43C128.826 175.257 129.5 175.285 130.12 175.51C130.772 175.76 131.37 176.134 131.88 176.61C132.859 177.679 133.991 178.595 135.24 179.33C135.967 179.587 136.753 179.623 137.5 179.435C138.248 179.246 138.922 178.841 139.44 178.27C140.559 176.987 141.155 175.331 141.11 173.63C141.072 172.728 141.119 171.824 141.25 170.93C141.34 170.463 141.528 170.02 141.8 169.63C142.101 169.245 142.524 168.973 143 168.86C143.455 168.789 143.921 168.836 144.353 168.995C144.785 169.154 145.17 169.421 145.47 169.77C146.044 170.35 146.512 171.027 146.85 171.77C147.129 172.463 147.463 173.131 147.85 173.77C148.187 174.362 148.678 174.853 149.27 175.19C149.539 175.328 149.838 175.4 150.14 175.4C150.443 175.4 150.741 175.328 151.01 175.19C151.505 174.889 151.899 174.447 152.14 173.92C152.554 172.959 152.853 171.952 153.03 170.92C153.213 170.121 153.553 169.367 154.03 168.7C154.336 168.274 154.776 167.964 155.28 167.82C155.473 167.754 155.678 167.733 155.88 167.76Z" fill="#FAFAFA"/>
<path d="M150.68 144.27C150.634 144.399 150.57 144.52 150.49 144.63C150.36 144.86 150.15 145.2 149.86 145.63C149.508 146.148 149.106 146.63 148.66 147.07C148.063 147.668 147.333 148.117 146.53 148.38C146.038 148.544 145.518 148.605 145.002 148.559C144.485 148.512 143.984 148.359 143.53 148.11C142.53 147.5 142.05 146.32 141.15 145.7C140.934 145.543 140.681 145.446 140.416 145.418C140.151 145.39 139.884 145.432 139.64 145.54C139.124 145.822 138.713 146.265 138.47 146.8C138.193 147.365 138.033 147.981 138 148.61C138 149.26 138 149.95 138 150.61C138 151.328 137.868 152.04 137.61 152.71C137.332 153.386 136.816 153.937 136.16 154.26C135.537 154.495 134.871 154.597 134.207 154.559C133.542 154.521 132.892 154.344 132.3 154.04C131.282 153.504 130.321 152.868 129.43 152.14C128.672 151.536 127.816 151.066 126.9 150.75C126.146 150.524 125.336 150.566 124.61 150.87C124.057 151.087 123.576 151.455 123.22 151.93C122.952 152.364 122.833 152.873 122.88 153.38C122.812 153.257 122.775 153.12 122.77 152.98C122.738 152.573 122.836 152.167 123.05 151.82C123.402 151.279 123.907 150.855 124.5 150.6C125.284 150.241 126.169 150.17 127 150.4C127.967 150.704 128.874 151.174 129.68 151.79C130.56 152.482 131.504 153.089 132.5 153.6C133.027 153.869 133.603 154.026 134.194 154.06C134.784 154.095 135.376 154.006 135.93 153.8C136.478 153.537 136.907 153.076 137.13 152.51C137.361 151.896 137.48 151.246 137.48 150.59C137.48 149.91 137.48 149.23 137.48 148.54C137.522 147.844 137.706 147.163 138.02 146.54C138.31 145.902 138.807 145.38 139.43 145.06C139.752 144.915 140.107 144.858 140.458 144.895C140.81 144.932 141.145 145.062 141.43 145.27C142.49 146.06 142.91 147.19 143.77 147.71C144.176 147.942 144.625 148.088 145.09 148.136C145.555 148.184 146.025 148.134 146.47 147.99C147.219 147.762 147.904 147.361 148.47 146.82C148.919 146.408 149.334 145.96 149.71 145.48C150.001 145.052 150.326 144.648 150.68 144.27Z" fill="#FAFAFA"/>
<path d="M125.12 201.81C125.001 202.048 124.821 202.252 124.6 202.4C124.278 202.603 123.917 202.739 123.541 202.799C123.164 202.859 122.78 202.843 122.41 202.75C121.87 202.657 121.347 202.482 120.86 202.23C120.3 201.909 119.759 201.555 119.24 201.17C118.659 200.744 118.031 200.386 117.37 200.1C116.643 199.8 115.831 199.778 115.09 200.04C114.297 200.402 113.644 201.013 113.23 201.78C112.735 202.615 112.301 203.483 111.93 204.38C111.528 205.366 111.018 206.305 110.41 207.18C110.061 207.649 109.618 208.04 109.11 208.33C108.852 208.488 108.567 208.596 108.27 208.65L107.82 208.74H107.36C106.735 208.714 106.133 208.502 105.63 208.13C105.129 207.775 104.684 207.347 104.31 206.86C103.54 205.91 102.91 204.86 102.16 203.86C101.477 202.853 100.489 202.092 99.34 201.69C98.736 201.568 98.1135 201.569 97.5101 201.695C96.9067 201.82 96.3352 202.067 95.83 202.42C94.77 203.121 93.8841 204.055 93.24 205.15C92.56 206.21 92 207.35 91.37 208.43C90.7726 209.528 89.9951 210.519 89.07 211.36C88.1709 212.197 87.0365 212.738 85.82 212.91C85.2344 212.967 84.6432 212.909 84.0803 212.737C83.5175 212.565 82.994 212.284 82.54 211.91C81.7175 211.217 81 210.409 80.41 209.51C79.25 207.85 78.24 206.22 76.81 205.31C76.1461 204.878 75.3721 204.645 74.58 204.64C73.8648 204.65 73.1596 204.81 72.51 205.11C71.4607 205.597 70.585 206.392 70 207.39C69.6197 208.015 69.3903 208.721 69.33 209.45C69.3431 209.707 69.3431 209.964 69.33 210.22C69.33 210.22 69.33 210.16 69.33 210.03C69.2936 209.839 69.2736 209.645 69.27 209.45C69.2789 208.691 69.4821 207.948 69.86 207.29C70.4577 206.24 71.366 205.402 72.46 204.89C73.1411 204.56 73.8837 204.376 74.64 204.35C75.4725 204.337 76.2913 204.563 77 205C78.55 206 79.6 207.63 80.76 209.26C81.332 210.119 82.0259 210.891 82.82 211.55C83.2381 211.885 83.7184 212.135 84.2332 212.284C84.7481 212.434 85.2873 212.48 85.82 212.42C86.9449 212.255 87.9921 211.749 88.82 210.97C89.6988 210.159 90.4386 209.21 91.01 208.16C91.63 207.09 92.18 205.95 92.88 204.85C93.5507 203.716 94.4622 202.743 95.55 202C96.1152 201.608 96.7544 201.336 97.4285 201.2C98.1026 201.065 98.7973 201.068 99.47 201.21C100.733 201.632 101.821 202.462 102.56 203.57C103.33 204.57 103.96 205.62 104.69 206.57C104.99 207.033 105.387 207.425 105.853 207.72C106.319 208.015 106.843 208.206 107.39 208.28C107.905 208.283 108.413 208.159 108.869 207.918C109.324 207.677 109.713 207.328 110 206.9C110.598 206.06 111.098 205.154 111.49 204.2C111.885 203.291 112.339 202.409 112.85 201.56C113.343 200.721 114.098 200.067 115 199.7C115.825 199.409 116.73 199.445 117.53 199.8C118.214 200.1 118.859 200.483 119.45 200.94C119.947 201.322 120.464 201.676 121 202C121.46 202.254 121.955 202.436 122.47 202.54C123.171 202.737 123.922 202.651 124.56 202.3C124.76 202.153 124.948 201.989 125.12 201.81Z" fill="#FAFAFA"/>
<path d="M123.22 168.53C123.199 168.588 123.169 168.642 123.13 168.69C123.031 168.841 122.892 168.962 122.73 169.04C122.405 169.163 122.056 169.211 121.709 169.18C121.363 169.149 121.028 169.039 120.73 168.86C119.9 168.48 119.25 167.54 118.15 167.09C117.87 166.98 117.564 166.95 117.268 167.003C116.971 167.056 116.695 167.19 116.47 167.39C116.006 167.923 115.689 168.567 115.55 169.26C115.354 170.065 115.079 170.849 114.73 171.6C114.519 172.012 114.222 172.373 113.86 172.66C113.469 172.953 113.006 173.133 112.52 173.18C110.52 173.38 108.66 172.06 107.38 170.49C106.72 169.695 105.983 168.969 105.18 168.32C104.348 167.681 103.319 167.352 102.27 167.39C101.16 167.518 100.089 167.876 99.1265 168.443C98.1638 169.01 97.3303 169.772 96.6799 170.68C95.2599 172.52 94.2999 174.68 93.0399 176.52C91.8958 178.429 90.1307 179.887 88.0399 180.65C87.0524 181.006 85.9837 181.072 84.9599 180.84C84.0067 180.588 83.146 180.067 82.4799 179.34C81.1799 178 80.3399 176.47 79.0499 175.68C78.4541 175.302 77.7538 175.124 77.0499 175.17C76.4182 175.223 75.8129 175.448 75.2999 175.82C74.4678 176.442 73.7647 177.22 73.2299 178.11C72.3199 179.57 71.9899 180.48 71.9399 180.46C71.995 180.233 72.072 180.012 72.1699 179.8C72.4202 179.178 72.7177 178.576 73.0599 178C73.5837 177.062 74.2911 176.239 75.1399 175.58C75.6871 175.166 76.3374 174.91 77.0199 174.84C77.7979 174.77 78.5773 174.957 79.2399 175.37C80.6499 176.22 81.5299 177.78 82.7799 179.03C83.4002 179.692 84.1935 180.166 85.0699 180.4C86.0102 180.597 86.9869 180.528 87.8899 180.2C89.8695 179.442 91.5311 178.031 92.5999 176.2C93.8199 174.37 94.7799 172.2 96.2499 170.33C96.9474 169.359 97.8427 168.547 98.8769 167.947C99.9111 167.347 101.061 166.973 102.25 166.85C103.407 166.795 104.547 167.149 105.47 167.85C106.302 168.52 107.062 169.274 107.74 170.1C108.347 170.863 109.081 171.516 109.91 172.03C110.677 172.504 111.57 172.731 112.47 172.68C112.877 172.637 113.267 172.491 113.601 172.255C113.936 172.018 114.204 171.7 114.38 171.33C114.72 170.611 114.992 169.861 115.19 169.09C115.366 168.343 115.731 167.655 116.25 167.09C116.521 166.857 116.851 166.703 117.205 166.647C117.558 166.59 117.92 166.633 118.25 166.77C119.45 167.3 120.06 168.26 120.81 168.63C121.082 168.803 121.388 168.916 121.707 168.961C122.026 169.006 122.351 168.982 122.66 168.89C123.09 168.77 123.19 168.5 123.22 168.53Z" fill="#FAFAFA"/>
<path d="M123.73 134C123.73 134 123.57 133.85 123.22 133.66C122.688 133.409 122.082 133.366 121.52 133.54C121.079 133.662 120.669 133.875 120.314 134.164C119.959 134.453 119.669 134.813 119.46 135.22C118.925 136.343 118.509 137.52 118.22 138.73C117.987 139.442 117.65 140.116 117.22 140.73C116.743 141.436 116.036 141.955 115.22 142.2C114.358 142.432 113.448 142.407 112.6 142.13C111.721 141.858 110.886 141.461 110.12 140.95C108.57 139.95 107.12 138.6 105.12 138.26C104.158 138.112 103.174 138.273 102.31 138.72C101.411 139.2 100.608 139.841 99.94 140.61C98.52 142.14 97.56 144.01 96.22 145.56C95.5823 146.336 94.8304 147.01 93.99 147.56C93.1575 148.105 92.1939 148.415 91.2 148.46C89.3932 148.381 87.6707 147.674 86.33 146.46C85.04 145.46 83.96 144.34 82.82 143.58C81.8377 142.84 80.6579 142.409 79.43 142.34C78.5043 142.34 77.6019 142.63 76.85 143.17C76.3867 143.516 76.0383 143.993 75.85 144.54C75.71 144.92 75.71 145.14 75.68 145.14C75.6608 144.927 75.6846 144.713 75.75 144.51C75.9123 143.915 76.2632 143.389 76.75 143.01C77.52 142.39 78.4718 142.039 79.46 142.01C80.7521 142.047 82.0032 142.472 83.05 143.23C84.24 144 85.35 145.08 86.62 146.08C87.8904 147.219 89.5156 147.883 91.22 147.96C92.1624 147.878 93.0764 147.596 93.9008 147.132C94.7251 146.668 95.4409 146.033 96 145.27C97.29 143.78 98.24 141.9 99.73 140.27C100.436 139.45 101.291 138.772 102.25 138.27C103.21 137.775 104.303 137.599 105.37 137.77C107.49 138.16 108.99 139.58 110.5 140.55C112.01 141.52 113.71 142.22 115.22 141.8C115.94 141.579 116.563 141.12 116.99 140.5C117.385 139.912 117.698 139.273 117.92 138.6C118.236 137.375 118.685 136.188 119.26 135.06C119.534 134.602 119.89 134.199 120.31 133.87C120.679 133.614 121.093 133.431 121.53 133.33C122.134 133.169 122.777 133.251 123.32 133.56C123.489 133.673 123.63 133.823 123.73 134Z" fill="#FAFAFA"/>
<path d="M118.59 117.79C118.59 117.79 118.59 117.93 118.53 118.17C118.442 118.513 118.325 118.847 118.18 119.17C117.953 119.717 117.588 120.196 117.12 120.56C116.781 120.8 116.37 120.918 115.955 120.892C115.541 120.867 115.147 120.7 114.84 120.42C114.228 119.72 113.711 118.944 113.3 118.11C113.044 117.708 112.703 117.366 112.3 117.11C111.877 116.841 111.391 116.686 110.89 116.66C110.34 116.635 109.791 116.721 109.276 116.913C108.76 117.106 108.289 117.401 107.89 117.78C107.023 118.623 106.321 119.62 105.82 120.72C105.539 121.308 105.186 121.859 104.77 122.36C104.552 122.63 104.274 122.845 103.958 122.987C103.642 123.13 103.296 123.196 102.95 123.18C102.621 123.132 102.305 123.018 102.02 122.847C101.735 122.675 101.487 122.448 101.29 122.18C100.924 121.71 100.646 121.179 100.47 120.61C100.264 119.618 99.8255 118.689 99.19 117.9C98.8865 117.594 98.4948 117.391 98.07 117.32C97.8792 117.294 97.6849 117.309 97.5004 117.364C97.3158 117.419 97.1452 117.513 97 117.64C96.5271 118.178 96.1849 118.818 96 119.51C95.8188 120.067 95.5262 120.58 95.14 121.02C94.8805 121.314 94.527 121.508 94.14 121.57C94.0163 121.608 93.8838 121.608 93.76 121.57C94.0027 121.554 94.2392 121.486 94.4532 121.37C94.6672 121.255 94.8537 121.094 95 120.9C95.3394 120.462 95.5908 119.963 95.74 119.43C95.9216 118.669 96.2892 117.964 96.81 117.38C96.9907 117.215 97.2047 117.09 97.4375 117.014C97.6703 116.938 97.9166 116.913 98.16 116.94C98.6787 117.004 99.161 117.24 99.53 117.61C100.24 118.429 100.735 119.412 100.97 120.47C101.135 120.981 101.389 121.458 101.72 121.88C102.045 122.296 102.518 122.572 103.04 122.65C103.308 122.659 103.573 122.603 103.815 122.488C104.057 122.374 104.268 122.203 104.43 121.99C104.833 121.529 105.17 121.014 105.43 120.46C105.964 119.305 106.711 118.26 107.63 117.38C108.077 116.961 108.604 116.638 109.18 116.429C109.756 116.221 110.369 116.133 110.98 116.17C111.559 116.199 112.119 116.386 112.6 116.71C113.038 117.025 113.403 117.431 113.67 117.9C114.045 118.711 114.522 119.47 115.09 120.16C115.335 120.398 115.653 120.546 115.993 120.579C116.333 120.612 116.674 120.527 116.96 120.34C117.388 120.013 117.731 119.588 117.96 119.1C118.42 118.29 118.55 117.78 118.59 117.79Z" fill="#FAFAFA"/>
<path d="M53.39 117.87C53.439 118.026 53.4692 118.187 53.48 118.35C53.5475 118.804 53.5909 119.261 53.61 119.72C53.644 120.463 53.5562 121.206 53.35 121.92C53.203 122.403 52.9586 122.851 52.6318 123.237C52.305 123.622 51.9028 123.936 51.45 124.16C50.9065 124.435 50.2844 124.513 49.69 124.38C49.0538 124.203 48.5011 123.806 48.13 123.26C47.73 122.73 47.44 122.14 47.13 121.6C46.9001 121.141 46.5416 120.759 46.0981 120.501C45.6547 120.243 45.1457 120.12 44.6333 120.146C44.1209 120.173 43.6273 120.348 43.2129 120.651C42.7985 120.953 42.4813 121.37 42.3 121.85C41.9489 122.51 41.7379 123.235 41.68 123.98C41.6205 124.772 41.6205 125.568 41.68 126.36C41.7593 127.191 41.6985 128.029 41.5 128.84C41.2927 129.658 40.7906 130.37 40.09 130.84C39.7323 131.051 39.3311 131.178 38.917 131.211C38.5028 131.244 38.0866 131.182 37.7 131.03C36.9877 130.758 36.3429 130.335 35.81 129.79C34.81 128.72 34.16 127.52 33.28 126.67C32.8989 126.261 32.4328 125.941 31.9144 125.732C31.396 125.523 30.8381 125.43 30.28 125.46C29.3507 125.494 28.4671 125.872 27.8 126.52C27.3122 127.028 26.9673 127.656 26.8 128.34C26.6723 128.934 26.6386 129.545 26.7 130.15C26.626 130.007 26.5818 129.851 26.57 129.69C26.4809 129.228 26.4809 128.752 26.57 128.29C26.7145 127.545 27.0604 126.853 27.57 126.29C28.2716 125.556 29.2261 125.116 30.24 125.06C30.8507 125.02 31.4627 125.113 32.0341 125.332C32.6055 125.552 33.1226 125.892 33.55 126.33C34.55 127.23 35.16 128.45 36.12 129.42C36.6033 129.909 37.1867 130.288 37.83 130.53C38.1516 130.664 38.5004 130.721 38.848 130.695C39.1956 130.669 39.5321 130.561 39.83 130.38C40.4106 129.98 40.8264 129.383 41 128.7C41.1805 127.941 41.2345 127.157 41.16 126.38C40.888 124.757 41.1183 123.089 41.82 121.6C42.0438 121.048 42.4214 120.572 42.908 120.228C43.3946 119.884 43.9696 119.688 44.5647 119.661C45.1599 119.635 45.75 119.78 46.2651 120.079C46.7801 120.379 47.1983 120.82 47.47 121.35C47.84 121.93 48.12 122.52 48.47 123C48.7709 123.481 49.2365 123.837 49.78 124C50.2844 124.121 50.8154 124.061 51.28 123.83C51.6986 123.637 52.0728 123.36 52.3792 123.016C52.6855 122.672 52.9173 122.268 53.06 121.83C53.2865 121.153 53.398 120.444 53.39 119.73C53.41 118.54 53.34 117.87 53.39 117.87Z" fill="#FAFAFA"/>
<path d="M107 2.73C100.23 1.27 93.8501 7.73 87.0001 7.01C82.8201 6.55 79.4301 3.53 75.6001 1.79C69.7901 -0.799997 62.0001 -0.639997 56.6701 2.67C51.3401 5.98 48.0001 9.32 47.7401 15.6C42.4101 13.11 34.4601 20.23 32.0901 26.6C29.7201 32.97 31.0001 39.4 33.1901 45.88C37.0001 57.0719 42.9695 67.4072 50.7601 76.3C51.4501 77.09 52.5101 77.93 53.4201 77.41C53.6977 77.1789 53.9168 76.8854 54.0593 76.5534C54.2018 76.2214 54.2637 75.8605 54.2401 75.5C54.7001 69.36 53.4101 63.25 52.3701 57.19C51.3301 51.13 50.5401 44.84 52.0001 38.86C53.4601 32.88 57.5401 27.18 63.4601 25.48C67.8301 24.23 72.5701 25.29 76.7001 27.17C80.8301 29.05 84.5601 31.72 88.5401 33.93C92.5201 36.14 96.9101 37.93 101.46 37.72C106.01 37.51 110.67 34.99 112.25 30.72C113.83 26.45 111.18 20.81 106.67 20.25C108.676 19.832 110.486 18.7576 111.813 17.1967C113.14 15.6357 113.91 13.677 114 11.63C113.991 9.57886 113.297 7.58945 112.029 5.97721C110.761 4.36497 108.991 3.22217 107 2.73Z" fill="#263238"/>
<path d="M95.5801 110.59L93.8301 97.59C93.8301 97.59 110.83 92.82 108.96 75.48C108.06 67.11 104.8 50.03 101.67 34.6C100.059 26.5991 95.4938 19.4981 88.8843 14.71C82.2747 9.92196 74.1048 7.79773 66.0001 8.76001L64.3001 9C46.4201 12.22 39.1601 29.2 42.8601 47L52.9401 116.6C53.7554 122.226 56.7626 127.301 61.3057 130.718C65.8487 134.135 71.5588 135.617 77.1901 134.84C82.8434 134.061 87.9559 131.068 91.4043 126.521C94.8526 121.974 96.3545 116.244 95.5801 110.59Z" fill="#FFBE9D"/>
<path d="M93.85 97.53C85.8784 98.6442 77.7557 97.3559 70.52 93.83C70.52 93.83 77.35 105.64 94.43 102.01L93.85 97.53Z" fill="#EB996E"/>
<path d="M96.3499 45.07C96.463 45.7329 96.3087 46.4137 95.9206 46.9629C95.5326 47.5122 94.9425 47.8852 94.2799 48C93.9623 48.0587 93.6362 48.0533 93.3208 47.984C93.0054 47.9147 92.707 47.783 92.4433 47.5966C92.1795 47.4102 91.9558 47.173 91.7852 46.8987C91.6146 46.6245 91.5006 46.319 91.4499 46C91.3513 45.346 91.5128 44.6794 91.8997 44.1429C92.2866 43.6065 92.8682 43.2429 93.5199 43.13C93.8332 43.0707 94.1551 43.0739 94.4671 43.1395C94.7792 43.205 95.0752 43.3315 95.3381 43.5118C95.6011 43.6921 95.8259 43.9225 95.9995 44.1899C96.1731 44.4573 96.2922 44.7564 96.3499 45.07Z" fill="#263238"/>
<path d="M99 44.62C98.73 44.98 96.69 43.82 94 44.15C91.31 44.48 89.55 46.04 89.23 45.75C89.07 45.62 89.31 45 90.09 44.28C91.1408 43.3407 92.459 42.7533 93.86 42.6C95.2424 42.4266 96.6441 42.6999 97.86 43.38C98.75 43.91 99.1 44.46 99 44.62Z" fill="#263238"/>
<path d="M70.9999 47.2C71.1095 47.8521 70.9625 48.5214 70.5897 49.0676C70.2169 49.6138 69.6471 49.9945 68.9999 50.13C68.6769 50.1854 68.3461 50.1755 68.0271 50.1008C67.708 50.0261 67.4072 49.8882 67.1424 49.6952C66.8776 49.5022 66.6542 49.258 66.4855 48.9772C66.3167 48.6963 66.206 48.3844 66.1599 48.06C66.0548 47.4008 66.2113 46.7266 66.5961 46.1811C66.9809 45.6356 67.5636 45.2621 68.2199 45.14C68.5378 45.0918 68.8621 45.107 69.1741 45.1845C69.4862 45.2621 69.7798 45.4006 70.0382 45.592C70.2965 45.7835 70.5145 46.0241 70.6795 46.3C70.8446 46.576 70.9534 46.8818 70.9999 47.2Z" fill="#263238"/>
<path d="M73.44 46.7C73.17 47.06 71.13 45.9 68.44 46.22C65.75 46.54 64 48.11 63.7 47.82C63.54 47.69 63.78 47.08 64.56 46.35C65.6158 45.4185 66.9314 44.8322 68.33 44.67C69.7135 44.4997 71.1152 44.7765 72.33 45.46C73.22 46 73.57 46.53 73.44 46.7Z" fill="#263238"/>
<path d="M84.91 65.67C84.91 65.52 86.49 65.04 89.13 64.37C89.8 64.22 90.43 64.01 90.49 63.53C90.4716 62.8065 90.2268 62.1071 89.79 61.53L87.16 56.6C83.49 49.6 80.74 43.76 81.03 43.6C81.32 43.44 84.52 49.03 88.19 56.06L90.74 61.06C91.2679 61.8258 91.5054 62.7548 91.41 63.68C91.3409 63.9323 91.2148 64.1654 91.0414 64.3613C90.868 64.5572 90.652 64.7107 90.41 64.81C90.0437 64.9561 89.6608 65.0568 89.27 65.11C86.6 65.61 84.93 65.82 84.91 65.67Z" fill="#263238"/>
<path d="M77.3001 68.45C77.7301 68.37 78.0801 71.26 80.8001 73.01C83.5201 74.76 86.5501 74.08 86.6201 74.48C86.6801 74.65 86.0001 75.12 84.7101 75.31C83.0222 75.5386 81.3079 75.1632 79.8701 74.25C78.4858 73.375 77.4988 71.9932 77.1201 70.4C76.8601 69.21 77.1001 68.46 77.3001 68.45Z" fill="#263238"/>
<path d="M72.1001 34.53C71.9201 35.29 69.2301 35.26 66.1501 36.01C63.0701 36.76 60.6601 37.92 60.1501 37.32C59.9301 37.03 60.2901 36.32 61.2201 35.48C62.4721 34.4546 63.9423 33.7295 65.5179 33.3603C67.0936 32.9911 68.7328 32.9876 70.3101 33.35C71.5301 33.68 72.1701 34.18 72.1001 34.53Z" fill="#263238"/>
<path d="M97.07 35.89C96.67 36.55 94.76 36.14 92.56 36.38C90.36 36.62 88.56 37.27 88.03 36.69C87.81 36.41 88.03 35.77 88.77 35.1C89.7833 34.2841 91.0157 33.7869 92.3115 33.6712C93.6072 33.5556 94.9082 33.8266 96.05 34.45C96.91 35 97.24 35.57 97.07 35.89Z" fill="#263238"/>
<path d="M45.82 59.59C45.51 59.49 33.5 57.5 35.3 69.28C37.1 81.06 48.56 76.83 48.53 76.49C48.5 76.15 45.82 59.59 45.82 59.59Z" fill="#FFBE9D"/>
<path d="M44.25 72.58C44.19 72.58 44.07 72.75 43.74 72.96C43.284 73.2442 42.7357 73.341 42.21 73.23C40.9 72.96 39.55 71.14 39.21 69.03C39.0259 68.0336 39.067 67.0086 39.33 66.03C39.386 65.645 39.5344 65.2792 39.7625 64.964C39.9907 64.6488 40.2917 64.3935 40.64 64.22C40.8638 64.1116 41.1199 64.0905 41.3584 64.1608C41.5969 64.231 41.8007 64.3876 41.93 64.6C42.14 64.9 42.1 65.15 42.17 65.16C42.24 65.17 42.39 64.92 42.17 64.45C42.0601 64.1693 41.8594 63.9334 41.6 63.78C41.2337 63.5877 40.8072 63.5447 40.41 63.66C39.942 63.8294 39.5252 64.116 39.1996 64.4924C38.8739 64.8688 38.6503 65.3225 38.55 65.81C38.2011 66.9088 38.1289 68.0767 38.34 69.21C38.78 71.57 40.34 73.61 42.11 73.84C42.4405 73.8831 42.7764 73.8516 43.0931 73.7477C43.4098 73.6439 43.6992 73.4704 43.94 73.24C44.27 72.86 44.29 72.59 44.25 72.58Z" fill="#EB996E"/>
<path d="M104.9 30.5C101.184 31.9418 97.1786 32.4814 93.2134 32.0746C89.2482 31.6678 85.436 30.3262 82.09 28.16C77.45 25.1 73.59 20.36 68.09 19.37C66.2331 19.1049 64.3421 19.2125 62.5272 19.6864C60.7124 20.1602 59.0102 20.991 57.52 22.13C54.5512 24.4213 52.0923 27.3059 50.3 30.6C54.7 38.99 53.63 49.08 52.45 58.48C52.4315 59.5364 52.0621 60.5567 51.4 61.38C50.13 62.62 47.93 62.03 46.56 60.9C44.36 59.09 43.25 56.29 42.42 53.57C40.419 47.3762 39.6745 40.8453 40.23 34.36C40.8035 27.8566 43.2721 21.6643 47.33 16.55C52.6386 10.2987 60.1683 6.35456 68.33 5.55C76.4683 4.82372 84.6284 6.68179 91.65 10.86C94.988 12.6326 97.8307 15.2105 99.92 18.36" fill="#263238"/>
<path d="M112.42 6.3C112.489 6.62982 112.489 6.97018 112.42 7.3C112.274 8.32011 111.804 9.2664 111.08 10C109.909 11.0964 108.422 11.7962 106.83 12C105.84 12.1742 104.833 12.2312 103.83 12.17C102.697 12.1247 101.596 11.7796 100.64 11.17C100.118 10.8119 99.6821 10.3412 99.3654 9.79264C99.0487 9.24408 98.859 8.63153 98.8101 8C98.8148 7.28897 99.0237 6.59425 99.412 5.99856C99.8002 5.40287 100.351 4.9313 101 4.64C101.648 4.29761 102.368 4.11584 103.1 4.11C103.864 4.11544 104.609 4.34872 105.24 4.78C105.877 5.23152 106.41 5.8157 106.8 6.49238C107.19 7.16906 107.429 7.92219 107.5 8.7C107.666 10.3398 107.186 11.9797 106.16 13.27C105.109 14.5871 103.729 15.6044 102.16 16.22C98.8545 17.3971 95.2503 17.4358 91.9201 16.33C88.643 15.285 85.4959 13.8691 82.5401 12.11C79.8128 10.5048 76.9562 9.13 74.0001 8C71.3327 6.99202 68.4599 6.6488 65.6301 7C63.1754 7.3705 60.8329 8.27882 58.7701 9.66C55.7837 11.7098 53.3734 14.4919 51.7701 17.74C51.322 18.6178 50.9214 19.5191 50.5701 20.44C50.4588 20.764 50.3286 21.0812 50.1801 21.39C50.1688 21.3037 50.1688 21.2163 50.1801 21.13C50.2301 20.97 50.3001 20.72 50.4101 20.4C50.716 19.4569 51.0835 18.5349 51.5101 17.64C53.0641 14.2948 55.48 11.4233 58.5101 9.32C60.6081 7.87928 62.9983 6.91976 65.5101 6.51C68.422 6.14103 71.38 6.48418 74.1301 7.51C77.1214 8.63655 80.0118 10.0148 82.7701 11.63C85.6805 13.3517 88.777 14.7373 92.0001 15.76C95.2042 16.8305 98.6738 16.8023 101.86 15.68C103.338 15.1079 104.638 14.1558 105.63 12.92C106.573 11.7491 107.021 10.2566 106.88 8.76C106.822 8.05927 106.613 7.3794 106.267 6.76677C105.922 6.15413 105.449 5.62314 104.88 5.21C104.333 4.84779 103.696 4.64315 103.04 4.61846C102.384 4.59377 101.733 4.74998 101.16 5.07C100.603 5.31966 100.127 5.72131 99.7874 6.22892C99.4478 6.73653 99.2582 7.32955 99.2401 7.94C99.2854 8.50891 99.4592 9.06013 99.7485 9.55208C100.038 10.044 100.435 10.4639 100.91 10.78C101.803 11.3756 102.839 11.7209 103.91 11.78C104.868 11.8476 105.831 11.8073 106.78 11.66C108.318 11.4913 109.765 10.8482 110.92 9.82C111.628 9.14668 112.116 8.27531 112.32 7.32C112.376 6.98263 112.41 6.64186 112.42 6.3Z" fill="#455A64"/>
<path d="M31.21 37.1C32.4351 37.3821 33.6838 37.5495 34.94 37.6C36.2884 37.5658 37.6169 37.2668 38.85 36.72C40.3532 36.0319 41.7507 35.1329 43 34.05C45.2742 32.0413 46.8298 29.3444 47.43 26.37C47.6329 25.1264 47.7466 23.8698 47.77 22.61C47.8922 22.9294 47.9565 23.268 47.96 23.61C48.031 24.5514 47.9908 25.498 47.84 26.43C47.3382 29.5493 45.7645 32.396 43.39 34.48C42.0873 35.611 40.6163 36.5321 39.03 37.21C37.7266 37.7583 36.3238 38.0306 34.91 38.01C33.9601 37.9847 33.0195 37.8161 32.12 37.51C31.7966 37.423 31.4893 37.2846 31.21 37.1Z" fill="#455A64"/>
<path d="M32.76 45.6C32.76 45.49 34.18 45.6 36.39 45.24C39.2751 44.7221 41.9765 43.4645 44.23 41.59C46.4475 39.6748 48.1263 37.2136 49.1 34.45C49.85 32.33 49.94 30.91 50.05 30.92C50.1079 31.2508 50.1079 31.5892 50.05 31.92C49.9526 32.8223 49.7685 33.7131 49.5 34.58C48.6256 37.4791 46.9345 40.0649 44.6291 42.0281C42.3236 43.9913 39.5014 45.2487 36.5 45.65C35.5991 45.7756 34.6877 45.8091 33.78 45.75C33.4334 45.7694 33.0864 45.7184 32.76 45.6Z" fill="#455A64"/>
<path d="M65.4099 59.47C65.3304 59.4921 65.2454 59.4825 65.1727 59.4434C65.1 59.4043 65.0453 59.3385 65.0199 59.26C65.004 59.2216 64.9962 59.1803 64.9971 59.1387C64.998 59.0971 65.0076 59.0562 65.0252 59.0185C65.0427 58.9808 65.0679 58.9472 65.0992 58.9197C65.1305 58.8923 65.1671 58.8717 65.2067 58.8592C65.2464 58.8466 65.2882 58.8425 65.3296 58.847C65.3709 58.8515 65.4109 58.8645 65.4469 58.8853C65.4829 58.9061 65.5142 58.9341 65.5389 58.9676C65.5635 59.0011 65.5809 59.0394 65.5899 59.08C65.6161 59.1557 65.6119 59.2385 65.5784 59.3112C65.5448 59.3839 65.4845 59.4408 65.4099 59.47Z" fill="#EB996E"/>
<path d="M70.3501 57.71C70.2657 57.7159 70.1818 57.6935 70.1116 57.6463C70.0414 57.5991 69.989 57.5299 69.9626 57.4496C69.9362 57.3692 69.9374 57.2823 69.9659 57.2027C69.9944 57.1231 70.0487 57.0553 70.1201 57.01C70.2045 57.0041 70.2884 57.0265 70.3586 57.0737C70.4288 57.1209 70.4812 57.1901 70.5076 57.2705C70.534 57.3508 70.5329 57.4377 70.5044 57.5173C70.4758 57.5969 70.4215 57.6647 70.3501 57.71Z" fill="#EB996E"/>
<path d="M73.7601 57.22C73.6001 57.22 73.4201 57.08 73.3601 56.82C73.3001 56.56 73.3601 56.32 73.5301 56.28C73.7001 56.24 73.8701 56.42 73.9301 56.68C73.9901 56.94 73.9201 57.18 73.7601 57.22Z" fill="#EB996E"/>
<path d="M68.2901 62.36C68.1301 62.36 67.9801 62.36 67.9701 62.21C67.9601 62.06 68.0801 62.01 68.2401 61.99C68.4001 61.97 68.5501 61.99 68.5601 62.14C68.5701 62.29 68.4501 62.34 68.2901 62.36Z" fill="#EB996E"/>
<path d="M72.8201 60.72C72.7786 60.7271 72.7361 60.7256 72.6951 60.7157C72.6542 60.7058 72.6157 60.6877 72.582 60.6624C72.5483 60.6371 72.5202 60.6053 72.4992 60.5688C72.4782 60.5322 72.4649 60.4918 72.4601 60.45C72.4481 60.4106 72.4443 60.3691 72.449 60.3282C72.4537 60.2873 72.4668 60.2478 72.4874 60.2121C72.508 60.1765 72.5358 60.1455 72.569 60.121C72.6021 60.0966 72.6399 60.0792 72.6801 60.07C72.7663 60.0514 72.8563 60.0679 72.9304 60.1157C73.0045 60.1635 73.0565 60.2388 73.0751 60.325C73.0937 60.4112 73.0772 60.5012 73.0294 60.5753C72.9816 60.6494 72.9063 60.7014 72.8201 60.72Z" fill="#EB996E"/>
<path d="M96.7199 54.92C96.6573 54.9494 96.5872 54.9589 96.519 54.9474C96.4507 54.9359 96.3877 54.9038 96.3382 54.8555C96.2886 54.8072 96.255 54.7449 96.2418 54.677C96.2286 54.6091 96.2365 54.5388 96.2643 54.4755C96.2921 54.4121 96.3386 54.3588 96.3975 54.3225C96.4564 54.2863 96.525 54.2689 96.594 54.2726C96.6631 54.2764 96.7294 54.3011 96.784 54.3435C96.8387 54.3859 96.8791 54.444 96.8999 54.51C96.9159 54.5486 96.924 54.5901 96.9235 54.632C96.9231 54.6738 96.9142 54.7151 96.8974 54.7534C96.8806 54.7917 96.8562 54.8262 96.8257 54.8549C96.7952 54.8835 96.7592 54.9056 96.7199 54.92Z" fill="#EB996E"/>
<path d="M100.15 54.18C100.061 54.1884 99.9729 54.1617 99.9037 54.1056C99.8345 54.0495 99.7901 53.9685 99.78 53.88C99.766 53.8387 99.7602 53.7949 99.7632 53.7513C99.7662 53.7078 99.7778 53.6652 99.7973 53.6261C99.8168 53.5871 99.8439 53.5523 99.877 53.5237C99.9101 53.4952 99.9485 53.4736 99.99 53.46C100.15 53.46 100.31 53.55 100.36 53.76C100.374 53.8014 100.38 53.8451 100.377 53.8887C100.374 53.9323 100.362 53.9748 100.343 54.0139C100.323 54.053 100.296 54.0878 100.263 54.1163C100.23 54.1448 100.192 54.1665 100.15 54.18Z" fill="#EB996E"/>
<path d="M93.6699 55.37C93.6366 55.386 93.6001 55.3948 93.5631 55.3956C93.5261 55.3964 93.4893 55.3893 93.4552 55.3747C93.4212 55.3602 93.3906 55.3385 93.3656 55.3112C93.3406 55.2839 93.3217 55.2516 93.3102 55.2163C93.2987 55.1811 93.2949 55.1439 93.2989 55.1071C93.303 55.0702 93.3149 55.0347 93.3338 55.0029C93.3527 54.971 93.3782 54.9436 93.4086 54.9224C93.439 54.9012 93.4735 54.8868 93.51 54.88C93.5431 54.8638 93.5793 54.8549 93.6162 54.8539C93.6531 54.8528 93.6898 54.8596 93.7238 54.8737C93.7579 54.8879 93.7885 54.9092 93.8137 54.9361C93.8389 54.9631 93.8581 54.9951 93.87 55.03C93.8804 55.0655 93.8835 55.1027 93.879 55.1394C93.8745 55.1761 93.8625 55.2115 93.8437 55.2434C93.825 55.2753 93.7999 55.303 93.77 55.3247C93.7401 55.3465 93.706 55.3619 93.6699 55.37Z" fill="#EB996E"/>
<path d="M96.6599 58.52C96.5843 58.5584 96.4966 58.5652 96.4159 58.539C96.3353 58.5127 96.2684 58.4555 96.2299 58.38C96.2054 58.3462 96.1881 58.3077 96.1788 58.267C96.1696 58.2262 96.1687 58.1841 96.1761 58.143C96.1836 58.1019 96.1993 58.0627 96.2223 58.0278C96.2453 57.993 96.2751 57.9631 96.3099 57.94C96.3863 57.9026 96.4739 57.8951 96.5555 57.9191C96.6371 57.9431 96.7067 57.9968 96.7507 58.0696C96.7946 58.1424 96.8097 58.2291 96.7929 58.3125C96.7761 58.3958 96.7286 58.4699 96.6599 58.52Z" fill="#EB996E"/>
<path d="M99.54 57.58C99.4693 57.5724 99.4042 57.5383 99.3577 57.4844C99.3113 57.4306 99.2871 57.361 99.29 57.29C99.2982 57.255 99.3133 57.222 99.3344 57.1929C99.3555 57.1638 99.3823 57.1393 99.413 57.1206C99.4437 57.102 99.4779 57.0897 99.5134 57.0844C99.549 57.0792 99.5852 57.0811 99.62 57.09C99.6551 57.0912 99.6895 57.0996 99.7213 57.1145C99.753 57.1294 99.7814 57.1505 99.8048 57.1767C99.8281 57.2028 99.8459 57.2334 99.8572 57.2667C99.8684 57.2999 99.8728 57.335 99.87 57.37C99.8533 57.4411 99.8094 57.5029 99.7478 57.5422C99.6861 57.5814 99.6116 57.595 99.54 57.58Z" fill="#EB996E"/>
<path d="M34.67 65.82C34.67 65.88 34.02 65.88 33.49 65.11C33.1888 64.6534 33.0775 64.0973 33.18 63.56C33.3254 62.9229 33.708 62.3651 34.25 62C34.791 61.6285 35.448 61.4651 36.1 61.54C36.6197 61.5948 37.1161 61.7844 37.54 62.09C38.27 62.63 38.39 63.21 38.34 63.22C38.29 63.23 38.02 62.79 37.34 62.4C36.9206 62.1417 36.4376 62.0049 35.945 62.0049C35.4524 62.0049 34.9695 62.1417 34.55 62.4C34.1046 62.6988 33.7844 63.1507 33.65 63.67C33.547 64.0911 33.6003 64.5352 33.8 64.92C34.16 65.6 34.7 65.75 34.67 65.82Z" fill="#263238"/>
<path d="M124.17 195L125.06 220.82C125.06 220.82 50.2099 235.65 40.5799 240.61C30.9499 245.57 27.0199 246.34 27.5799 260.61L147.21 260.41C147.21 260.41 161.95 254.88 161.66 238.83C161.37 222.78 157.36 184.22 157.36 184.22L124.17 195Z" fill="#FFBE9D"/>
<path d="M40.0001 261L49.9401 260.09L59.4301 237.42C57.8901 237.16 25.8801 232.42 23.9901 232.94L16.3101 260.22C16.3101 260.22 39.3001 261 40.0001 261Z" fill="#FFBE9D"/>
<path d="M18.0901 260.69C18.0901 260.74 18.3001 260.78 18.6201 260.81C21.2701 261.1 33.4801 260.36 33.4801 260.36C34.0301 258.78 32.9801 254.05 31.4801 253.77C29.9801 253.49 16.9601 254.37 16.9601 254.37C16.9601 254.37 14.9601 254.64 14.4101 258.08C14.0701 260.2 18.0901 260.69 18.0901 260.69Z" fill="#FFBE9D"/>
<path d="M14 253.75C14 253.8 14.22 253.84 14.54 253.88C17.18 254.17 28.72 254.04 29.22 252.63C29.78 251.05 28.89 247.11 27.37 246.83C25.85 246.55 12.86 247.43 12.86 247.43C12.86 247.43 10.81 247.7 10.3 251.14C10 253.26 14 253.75 14 253.75Z" fill="#FFBE9D"/>
<path d="M11.9199 247C11.9199 247.05 12.1299 247.09 12.4499 247.12C15.0899 247.41 26.6399 247.29 27.1299 245.88C27.6899 244.3 26.8099 240.36 25.2899 240.08C23.7699 239.8 10.7699 240.68 10.7699 240.68C10.7699 240.68 8.76992 240.95 8.20992 244.39C7.89992 246.48 11.9199 247 11.9199 247Z" fill="#FFBE9D"/>
<path d="M10 240.23C10.1702 240.306 10.3538 240.346 10.54 240.35C13.18 240.64 24.72 240.51 25.22 239.11C25.78 237.53 24.89 233.58 23.37 233.3C21.85 233.02 8.86 233.9 8.86 233.9C8.86 233.9 6.86 234.17 6.3 237.61C6 239.74 10 240.23 10 240.23Z" fill="#FFBE9D"/>
<path d="M28.0799 253.7C28.0799 253.9 25.5499 254.13 22.4599 254.22C19.3699 254.31 16.8899 254.22 16.8999 254.02C16.9099 253.82 19.4399 253.59 22.5199 253.5C25.5999 253.41 28.0999 253.5 28.0799 253.7Z" fill="#EB996E"/>
<path d="M28.1499 246.9C28.1499 247.1 24.5699 247.37 20.1499 247.51C15.7299 247.65 12.1499 247.61 12.1499 247.41C12.1499 247.21 15.7199 246.93 20.1499 246.79C24.5799 246.65 28.1399 246.7 28.1499 246.9Z" fill="#EB996E"/>
<g opacity="0.78">
<path d="M27.6001 240C27.6001 240.2 24.0301 240.48 19.6001 240.62C15.1701 240.76 11.6001 240.71 11.6001 240.51C11.6001 240.31 15.1801 240.03 19.6001 239.89C24.0201 239.75 27.5901 239.78 27.6001 240Z" fill="#EB996E"/>
</g>
<path d="M46.13 235.7C46.13 235.7 24.33 226 23 227.41C21.67 228.82 19.54 233.31 19.54 233.31L46.13 235.7Z" fill="#FFBE9D"/>
<path d="M141.8 243.35C141.71 243.35 141.26 241.79 140.23 239.35C139.621 237.928 138.93 236.542 138.16 235.2C137.21 233.566 136.154 231.996 135 230.5C133.83 229.01 132.56 227.6 131.2 226.28C130.087 225.212 128.911 224.21 127.68 223.28C125.57 221.68 124.14 220.86 124.19 220.78C124.542 220.91 124.878 221.081 125.19 221.29C126.127 221.804 127.032 222.375 127.9 223C129.176 223.918 130.388 224.92 131.53 226C132.929 227.313 134.226 228.73 135.41 230.24C136.581 231.758 137.641 233.359 138.58 235.03C139.335 236.404 140.003 237.823 140.58 239.28C140.971 240.26 141.305 241.262 141.58 242.28C141.692 242.628 141.765 242.986 141.8 243.35Z" fill="#EB996E"/>
<path d="M54.16 121.78L31.62 185.93L6.27002 193.23C6.27002 193.23 15.46 232.12 24.85 239.1C28.03 241.47 33.25 244.1 38.59 243.67C48.72 242.97 60.08 235.82 64.41 225.85C68.26 217 78.54 125.36 78.54 125.36L54.16 121.78Z" fill="#FFBE9D"/>
<path d="M78.2301 128.09L79.5401 112.46L75.9201 99.91L74.5101 95.11L77.2601 97.91L82.2601 92.59C82.2601 92.59 80.6401 83.12 79.2601 83.12C77.5267 83.4367 75.8309 83.9327 74.2001 84.6C73.2001 84.98 72.4101 85.28 72.4101 85.28L68.1701 87.44L72.4301 81C72.4301 81 76.7901 84.63 79.0201 81.48C80.7201 79.07 74.3701 73.67 72.0201 71.76C71.7453 71.525 71.4205 71.356 71.0704 71.2658C70.7202 71.1757 70.3541 71.1669 70.0001 71.24L67.5301 71.74C67.4534 70.8519 67.05 70.0238 66.3979 69.416C65.7458 68.8082 64.8914 68.464 64.0001 68.45C63.031 68.4691 62.0837 68.7413 61.2523 69.2395C60.4208 69.7377 59.7341 70.4445 59.2601 71.29L56.6601 71.75C55.773 71.7519 54.9078 72.025 54.1803 72.5326C53.4529 73.0402 52.898 73.7581 52.5901 74.59L46.8201 90.15L54.1601 121.78" fill="#FFBE9D"/>
<path d="M54.1601 121.78C54.0973 121.596 54.0439 121.409 54.0001 121.22L53.5801 119.56C53.2301 118.08 52.7101 115.94 52.0501 113.22C50.7501 107.7 48.8901 99.81 46.6201 90.22V90.16V90.1C47.7501 87 49.0001 83.72 50.2001 80.3L52.1201 75C52.3959 74.0221 52.9563 73.1484 53.7301 72.49C54.5508 71.8432 55.5652 71.491 56.6101 71.49L59.1701 71L58.9901 71.13C59.4685 70.3119 60.1205 69.6087 60.9001 69.07C61.7051 68.5222 62.6473 68.2104 63.6201 68.17C64.6312 68.0979 65.632 68.4125 66.4201 69.05C66.8399 69.3575 67.1835 69.7572 67.4245 70.2183C67.6655 70.6795 67.7974 71.1898 67.8101 71.71L67.5101 71.45L69.3801 71.07C69.6901 71.07 69.9901 70.93 70.3801 70.9C70.7336 70.8833 71.087 70.9366 71.4199 71.0567C71.7528 71.1768 72.0587 71.3614 72.3201 71.6L73.0801 72.22C73.5801 72.64 74.0801 73.06 74.5601 73.5C75.5543 74.3842 76.4959 75.3258 77.3801 76.32C78.3433 77.3106 79.0683 78.5075 79.5001 79.82C79.625 80.2341 79.625 80.6759 79.5001 81.09C79.249 81.6673 78.8266 82.1534 78.29 82.4826C77.7533 82.8117 77.1285 82.9679 76.5001 82.93C74.945 82.7632 73.477 82.1286 72.2901 81.11L72.6701 81.05C71.2401 83.25 69.8201 85.42 68.4301 87.54L68.1001 87.18L72.3401 85.02C73.7701 84.47 75.1801 83.94 76.6101 83.49C77.3165 83.2466 78.0381 83.0495 78.7701 82.9C78.9818 82.8624 79.1984 82.8624 79.4101 82.9C79.6445 82.973 79.8438 83.1296 79.9701 83.34C80.1799 83.6531 80.3543 83.9885 80.4901 84.34C81.3811 87.0171 82.05 89.7631 82.4901 92.55V92.66L82.4101 92.74L77.4101 98.06L77.2601 98.23L77.1001 98.07C76.1601 97.07 75.2501 96.17 74.3701 95.26L74.7201 95.05C76.6401 101.77 78.3101 107.61 79.7201 112.42C79.2801 117.34 78.9301 121.24 78.7201 123.94C78.5901 125.25 78.4901 126.27 78.4201 126.99C78.4201 127.32 78.3601 127.58 78.3301 127.78C78.3403 127.866 78.3403 127.954 78.3301 128.04C78.3168 127.95 78.3168 127.86 78.3301 127.77C78.3301 127.57 78.3301 127.32 78.3301 126.99L78.5401 123.93C78.7501 121.23 79.0601 117.32 79.4401 112.39V112.45L74.3101 95.17L74.0801 94.37L74.6601 94.97L77.4101 97.76H77.1001L82.1001 92.42L82.0401 92.61C81.6033 89.8617 80.9342 87.1553 80.0401 84.52C79.92 84.196 79.7622 83.8872 79.5701 83.6C79.5095 83.4957 79.4189 83.412 79.3101 83.36C79.1609 83.3384 79.0093 83.3384 78.8601 83.36C78.1481 83.5067 77.4465 83.7004 76.7601 83.94C75.3501 84.39 73.9501 84.94 72.5301 85.46L68.3001 87.63L67.4401 88.07L67.9701 87.27L72.2001 80.77L72.3501 80.54L72.5801 80.71C73.6801 81.649 75.0338 82.2406 76.4701 82.41C76.9845 82.4551 77.5006 82.3449 77.9516 82.0935C78.4027 81.8421 78.7679 81.4612 79.0001 81C79.0974 80.6738 79.0974 80.3262 79.0001 80C78.576 78.779 77.8939 77.6637 77.0001 76.73C76.13 75.7549 75.2052 74.8301 74.2301 73.96C73.7401 73.52 73.2301 73.1 72.7601 72.69C72.3101 72.2653 71.8057 71.9021 71.2601 71.61C70.6913 71.4258 70.0789 71.4258 69.5101 71.61L67.6101 72L67.2901 72.06V71.74C67.273 71.3012 67.1571 70.8719 66.951 70.484C66.745 70.0962 66.4541 69.7599 66.1001 69.5C65.4089 68.937 64.5294 68.6582 63.6401 68.72C62.7677 68.779 61.9241 69.0563 61.1867 69.5263C60.4494 69.9963 59.8419 70.6441 59.4201 71.41L59.3601 71.52H59.2401L56.6401 71.98C55.7018 71.9822 54.7922 72.3031 54.0601 72.89C53.3482 73.4839 52.8381 74.284 52.6001 75.18L50.6601 80.43L47.0001 90.22V90.1C49.2001 99.73 51.0001 107.64 52.2601 113.17L53.6801 119.53C53.8301 120.25 53.9501 120.8 54.0401 121.2C54.1301 121.6 54.1601 121.78 54.1601 121.78Z" fill="#EB996E"/>
<path d="M72.22 93.08C73.6087 92.1677 75.0743 91.3781 76.6 90.72L78.23 89.93L76.87 91.14C76.392 91.5769 76.0181 92.1154 75.7758 92.716C75.5335 93.3165 75.429 93.9637 75.47 94.61C75.526 95.2676 75.7312 95.9037 76.07 96.47C76.4174 96.9887 76.816 97.4711 77.26 97.91C77.26 97.91 76.48 97.69 75.76 96.67C75.3453 96.0754 75.081 95.3891 74.99 94.67C74.9013 93.7709 75.0824 92.8658 75.51 92.07C75.7601 91.5815 76.0993 91.144 76.51 90.78L76.79 91.2C75.3241 91.9582 73.795 92.5873 72.22 93.08Z" fill="#EB996E"/>
<path d="M60.23 84.63C60.5637 83.8059 60.9756 83.0156 61.46 82.27C62.27 80.85 63.46 78.91 64.73 76.77C65.39 75.71 65.99 74.69 66.6 73.77C67.1085 72.9117 67.8191 72.1908 68.67 71.67C69.2556 71.327 69.9342 71.1766 70.61 71.24C71.09 71.3 71.31 71.46 71.3 71.48C71.29 71.5 71.05 71.48 70.6 71.48C69.9771 71.4985 69.3715 71.6889 68.85 72.03C67.48 72.84 66.51 74.97 65.17 77.03C63.83 79.09 62.67 81.03 61.77 82.46C61.3322 83.2341 60.8162 83.9612 60.23 84.63Z" fill="#EB996E"/>
<path d="M52.49 84.58C52.6438 83.8411 52.8925 83.1251 53.23 82.45C53.75 81.17 54.53 79.45 55.47 77.52C56.41 75.59 57.34 73.94 58.04 72.74C58.3743 72.0677 58.7908 71.4396 59.28 70.87C59.0486 71.5688 58.7401 72.2396 58.36 72.87L55.94 77.7L53.56 82.6C53.2741 83.2958 52.9154 83.9595 52.49 84.58Z" fill="#EB996E"/>
<path d="M34.38 179.67C34.2968 180.068 34.1728 180.457 34.01 180.83L32.85 183.93C31.85 186.55 30.51 190.16 29.09 194.18C27.67 198.2 26.43 201.86 25.54 204.51L24.48 207.65C24.3802 208.045 24.2289 208.425 24.03 208.78C24.0754 208.375 24.1625 207.977 24.29 207.59C24.49 206.83 24.79 205.74 25.19 204.4C25.99 201.72 27.19 198.03 28.6 194.01C30.01 189.99 31.43 186.38 32.51 183.8C33.05 182.5 33.51 181.46 33.82 180.75C33.9605 180.368 34.1487 180.005 34.38 179.67Z" fill="#EB996E"/>
<path d="M67.8 209.24C67.8112 209.34 67.8112 209.44 67.8 209.54L67.68 210.4C67.57 211.19 67.41 212.3 67.21 213.71C67.01 215.12 66.72 216.9 66.32 218.92C65.8774 221.221 65.2487 223.481 64.44 225.68C63.4425 228.382 61.9352 230.867 60 233C57.7806 235.405 55.2199 237.47 52.4 239.13C49.2663 240.95 45.9031 242.342 42.4 243.27C40.5491 243.781 38.6399 244.05 36.72 244.07C34.734 244.07 32.7625 243.732 30.89 243.07C27.228 241.674 24.0185 239.301 21.61 236.21C19.3662 233.371 17.5534 230.218 16.23 226.85C14.92 223.65 14.15 220.47 13.23 217.57L10.72 209.47C9.16996 204.47 7.98996 200.47 7.25996 197.68C6.88996 196.28 6.61996 195.19 6.44996 194.44L6.25996 193.6C6.25996 193.4 6.20996 193.3 6.20996 193.3C6.25706 193.388 6.29077 193.482 6.30996 193.58L6.54996 194.42C6.76996 195.193 7.06996 196.263 7.44996 197.63C8.24996 200.42 9.44996 204.43 11.07 209.36C11.86 211.83 12.72 214.54 13.64 217.44C14.56 220.34 15.35 223.52 16.64 226.67C17.9715 229.962 19.7773 233.041 22 235.81C24.3559 238.828 27.4923 241.145 31.07 242.51C32.883 243.161 34.7936 243.499 36.72 243.51C38.5957 243.498 40.4618 243.239 42.27 242.74C45.7187 241.825 49.0309 240.456 52.12 238.67C54.9113 237.051 57.4486 235.029 59.65 232.67C61.5472 230.599 63.0335 228.186 64.03 225.56C64.8686 223.384 65.5275 221.143 66 218.86C66.43 216.86 66.73 215.1 67 213.67C67.27 212.24 67.43 211.17 67.57 210.38L67.74 209.53C67.7502 209.432 67.7703 209.334 67.8 209.24Z" fill="#EB996E"/>
</g>
<defs>
<clipPath id="clip0_36_803">
<rect width="161.68" height="261.04" fill="white"/>
</clipPath>
</defs>
</svg>
