<svg width="428" height="428" viewBox="0 0 428 428" fill="none" xmlns="http://www.w3.org/2000/svg">
<path d="M388.77 162.092L386.724 159.07C369.432 133.562 338.171 118.188 305.215 120.054C300.98 120.291 296.765 120.809 292.598 121.603C262.638 127.347 236.556 147.634 225.753 173.614C219.393 188.894 217.621 206.484 205.551 218.614C189.861 234.398 163.205 234.878 139.776 234.236C116.348 233.594 89.6746 234.142 74.0526 249.986C64.2685 259.907 61.1612 274.023 61.9487 287.316C64.0374 322.498 91.4294 353.965 126.26 369.604C161.091 385.243 202.102 386.638 240.228 379.764C293.608 370.126 344.42 343.658 374.928 302.784C405.436 261.91 413.2 206.21 388.77 162.092Z" fill="#FDEDE6"/>
<path d="M75.7989 117.931C97.3565 117.931 114.832 100.455 114.832 78.8975C114.832 57.3399 97.3565 39.8639 75.7989 39.8639C54.2412 39.8639 36.7653 57.3399 36.7653 78.8975C36.7653 100.455 54.2412 117.931 75.7989 117.931Z" fill="#FDEDE6"/>
<path d="M332.909 49.0092L76.2532 67.9919L100.482 395.579L357.137 376.596L332.909 49.0092Z" fill="white"/>
<path d="M100.152 396.028V395.6L75.7988 67.624H76.2268L333.309 48.5266V48.9546L357.594 376.965H357.166L100.152 396.028ZM76.7147 68.3773L100.905 395.112L356.704 376.178L332.513 49.4426L76.7147 68.3773Z" fill="#263238"/>
<path d="M310.261 63.3039L241.114 68.4182L241.442 72.8572L310.59 67.743L310.261 63.3039Z" fill="#1A41E7"/>
<path d="M309.435 97.3786L309.016 97.4556L307.792 97.584L303.306 97.9949L288.472 99.2275C282.677 99.6983 277.438 100.084 273.638 100.323L269.135 100.589L267.911 100.64C267.769 100.655 267.625 100.655 267.483 100.64C267.618 100.594 267.759 100.568 267.902 100.563L269.126 100.426L273.612 100.024L288.472 98.7824C294.259 98.3031 299.497 97.9264 303.298 97.6782L307.8 97.4128L309.025 97.3614C309.162 97.3447 309.3 97.3505 309.435 97.3786Z" fill="#1A41E7"/>
<path d="M313.579 114.113C313.579 114.242 298.513 115.457 279.912 116.835C261.311 118.214 246.211 119.224 246.203 119.104C246.194 118.984 261.268 117.768 279.878 116.39C298.487 115.012 313.57 113.994 313.579 114.113Z" fill="#263238"/>
<path d="M314.717 135.453C314.717 135.582 299.651 136.797 281.051 138.176C262.45 139.554 247.384 140.572 247.384 140.444C247.384 140.316 262.45 139.109 281.059 137.73C299.669 136.352 314.708 135.334 314.717 135.453Z" fill="#263238"/>
<path d="M314.717 124.788C314.717 124.908 299.651 126.123 281.051 127.501C262.45 128.879 247.384 129.898 247.384 129.778C247.384 129.658 262.45 128.434 281.059 127.056C299.669 125.678 314.708 124.668 314.717 124.788Z" fill="#263238"/>
<path d="M173.297 274.211C173.297 274.331 165.491 275.016 155.843 275.726C146.196 276.437 138.364 276.925 138.355 276.796C138.347 276.668 146.162 276 155.809 275.281C165.456 274.562 173.289 274.091 173.297 274.211Z" fill="#1A41E7"/>
<path d="M158.694 294.721C158.694 294.849 148.234 295.722 135.308 296.681C122.382 297.64 111.905 298.307 111.896 298.188C111.888 298.068 122.348 297.195 135.282 296.236C148.216 295.277 158.685 294.601 158.694 294.721Z" fill="#1A41E7"/>
<path d="M243.96 296.459C243.96 296.578 214.548 298.855 178.254 301.543C141.959 304.231 112.513 306.311 112.504 306.191C112.496 306.071 141.908 303.786 178.219 301.098C214.531 298.41 243.96 296.339 243.96 296.459Z" fill="#263238"/>
<path d="M160.166 314.623C160.166 314.743 149.706 315.616 136.789 316.574C123.872 317.533 113.377 318.209 113.369 318.081C113.36 317.953 123.829 317.088 136.755 316.129C149.68 315.171 160.158 314.494 160.166 314.623Z" fill="#1A41E7"/>
<path d="M245.415 316.352C245.415 316.48 216.003 318.757 179.709 321.445C143.414 324.133 113.968 326.204 113.959 326.085C113.951 325.965 143.363 323.688 179.674 321C215.986 318.312 245.407 316.232 245.415 316.352Z" fill="#263238"/>
<path d="M161.638 334.516C161.638 334.636 151.178 335.509 138.261 336.468C125.344 337.427 114.85 338.103 114.841 337.983C114.832 337.863 125.301 336.982 138.227 336.023C151.152 335.064 161.63 334.388 161.638 334.516Z" fill="#1A41E7"/>
<path d="M246.888 336.245C246.888 336.374 217.475 338.651 181.181 341.339C144.887 344.026 115.44 346.106 115.432 345.978C115.423 345.85 144.835 343.581 181.147 340.893C217.458 338.206 246.879 336.126 246.888 336.245Z" fill="#263238"/>
<path d="M164.891 354.658C164.891 354.778 154.422 355.651 141.505 356.61C128.588 357.568 118.128 358.245 118.128 358.116C118.128 357.988 128.588 357.123 141.514 356.164C154.44 355.206 164.874 354.53 164.891 354.658Z" fill="#1A41E7"/>
<path d="M250.14 356.387C250.14 356.515 220.72 358.792 184.425 361.523C148.131 364.254 118.684 366.291 118.676 366.163C118.667 366.034 148.088 363.766 184.391 361.078C220.694 358.39 250.123 356.267 250.14 356.387Z" fill="#263238"/>
<path d="M129.575 270.254L113.526 271.441L114.28 281.634L130.329 280.447L129.575 270.254Z" fill="#1A41E7"/>
<path d="M125.521 280.808L119.076 281.285L119.312 284.478L125.757 284.001L125.521 280.808Z" fill="#1A41E7"/>
<path d="M128.237 283.696C126.468 284.079 124.67 284.317 122.862 284.406C121.066 284.644 119.253 284.729 117.443 284.663C119.213 284.284 121.011 284.05 122.819 283.961C124.615 283.728 126.427 283.64 128.237 283.696Z" fill="#1A41E7"/>
<path d="M259.257 258.666L269.289 253.162L279.167 256.911L269.914 262.732L259.257 258.666Z" fill="#1A41E7"/>
<path d="M261.662 260.969L262.064 267.218L277.524 265.856L276.993 259.83L269.854 264.144L261.662 260.969Z" fill="#1A41E7"/>
<path d="M322.712 259.882C322.712 260.01 314.905 260.686 305.258 261.397C295.611 262.107 287.779 262.595 287.77 262.475C287.762 262.355 295.577 261.671 305.224 260.952C314.871 260.233 322.712 259.762 322.712 259.882Z" fill="#1A41E7"/>
<path d="M286.871 281.367C286.871 281.487 281.504 281.984 274.887 282.471C268.27 282.959 262.86 283.268 262.852 283.139C262.843 283.011 268.219 282.523 274.836 282.026C281.453 281.53 286.863 281.239 286.871 281.367Z" fill="#263238"/>
<path d="M330.964 286.76C330.964 286.888 315.873 288.104 297.246 289.482C278.619 290.86 263.494 291.879 263.485 291.759C263.477 291.639 278.577 290.415 297.212 289.037C315.847 287.659 330.955 286.674 330.964 286.76Z" fill="#263238"/>
<path d="M288.669 303.589C288.669 303.717 283.31 304.214 276.685 304.702C270.059 305.19 264.701 305.498 264.658 305.369C264.615 305.241 270.017 304.753 276.642 304.257C283.268 303.76 288.66 303.469 288.669 303.589Z" fill="#263238"/>
<path d="M332.761 309.016C332.761 309.144 317.67 310.36 299.044 311.738C280.417 313.116 265.3 314.135 265.283 314.015C265.266 313.895 280.374 312.671 299.009 311.293C317.644 309.915 332.753 308.905 332.761 309.016Z" fill="#263238"/>
<path d="M290.039 325.554C290.039 325.682 284.671 326.179 278.055 326.667C271.438 327.155 266.071 327.454 266.019 327.334C265.968 327.215 271.386 326.718 278.003 326.222C284.62 325.725 290.03 325.434 290.039 325.554Z" fill="#263238"/>
<path d="M334.131 330.99C334.131 331.118 319.04 332.333 300.413 333.712C281.787 335.09 266.661 336.108 266.653 335.989C266.644 335.869 281.744 334.645 300.379 333.266C319.014 331.888 334.123 330.87 334.131 330.99Z" fill="#263238"/>
<path d="M292.487 348.786C292.487 348.906 287.128 349.402 280.503 349.899C273.877 350.395 268.519 350.686 268.476 350.566C268.433 350.446 273.834 349.941 280.46 349.453C287.085 348.966 292.478 348.666 292.487 348.786Z" fill="#263238"/>
<path d="M336.579 354.221C336.579 354.341 321.488 355.557 302.861 356.943C284.235 358.33 269.118 359.34 269.109 359.212C269.101 359.083 284.192 357.876 302.827 356.498C321.462 355.12 336.571 354.093 336.579 354.221Z" fill="#263238"/>
<path d="M253.744 96.728C254.418 96.368 254.971 95.8187 255.336 95.1479C255.701 94.4771 255.862 93.7141 255.799 92.953C255.798 92.4499 255.694 91.9522 255.493 91.4909C255.292 91.0297 254.998 90.6146 254.63 90.2715C254.262 89.9285 253.827 89.6647 253.353 89.4966C252.879 89.3285 252.375 89.2596 251.873 89.2943C251.371 89.329 250.882 89.4664 250.435 89.6982C249.988 89.9299 249.594 90.2509 249.277 90.6414C248.959 91.0318 248.726 91.4833 248.59 91.9678C248.454 92.4524 248.42 92.9596 248.488 93.4581C248.536 94.2169 248.805 94.9452 249.261 95.5534C249.717 96.1617 250.341 96.6235 251.056 96.8821C245.501 98.1404 246.211 104.235 246.211 104.235L259.505 103.311C259.505 103.311 259.368 97.1646 253.744 96.728Z" fill="#1A41E7"/>
<path d="M275.401 183.03C275.401 183.158 270 183.655 263.314 184.151C256.629 184.648 251.202 184.947 251.193 184.828C251.185 184.708 256.595 184.203 263.28 183.706C269.965 183.21 275.392 182.91 275.401 183.03Z" fill="#263238"/>
<path d="M276.317 193.721C276.317 193.841 270.915 194.346 264.23 194.843C257.545 195.339 252.118 195.639 252.109 195.51C252.101 195.382 257.511 194.886 264.196 194.398C270.881 193.91 276.308 193.602 276.317 193.721Z" fill="#263238"/>
<path d="M323.277 180.744L283.901 183.663C283.548 183.689 283.199 183.574 282.931 183.343C282.663 183.112 282.498 182.784 282.471 182.431C282.446 182.078 282.561 181.729 282.792 181.461C283.023 181.193 283.351 181.027 283.704 181.001L323.08 178.082C323.255 178.068 323.431 178.089 323.598 178.144C323.765 178.198 323.919 178.285 324.052 178.4C324.185 178.515 324.294 178.655 324.373 178.812C324.451 178.969 324.498 179.14 324.51 179.315C324.524 179.49 324.503 179.666 324.448 179.833C324.394 180 324.307 180.154 324.192 180.287C324.077 180.42 323.937 180.529 323.78 180.607C323.623 180.686 323.452 180.733 323.277 180.744Z" fill="#E0E0E0"/>
<path d="M317.525 181.172L283.875 183.663C283.522 183.689 283.173 183.574 282.905 183.343C282.637 183.112 282.472 182.784 282.446 182.431C282.42 182.078 282.535 181.729 282.766 181.461C282.997 181.193 283.325 181.027 283.678 181.001L317.328 178.51C317.681 178.484 318.03 178.6 318.298 178.831C318.566 179.062 318.731 179.39 318.757 179.743C318.781 180.095 318.665 180.443 318.434 180.71C318.203 180.978 317.877 181.144 317.525 181.172Z" fill="#1A41E7"/>
<path d="M324.022 190.802L284.646 193.713C284.293 193.739 283.944 193.623 283.676 193.392C283.408 193.161 283.242 192.833 283.216 192.48C283.193 192.128 283.309 191.78 283.539 191.513C283.77 191.245 284.097 191.079 284.449 191.051L323.825 188.14C324 188.126 324.176 188.147 324.343 188.202C324.51 188.256 324.664 188.343 324.797 188.458C324.93 188.573 325.039 188.713 325.117 188.87C325.196 189.027 325.242 189.198 325.254 189.373C325.28 189.726 325.165 190.075 324.934 190.343C324.703 190.611 324.375 190.776 324.022 190.802Z" fill="#E0E0E0"/>
<path d="M312.269 191.667L284.62 193.713C284.267 193.739 283.918 193.623 283.65 193.392C283.382 193.161 283.217 192.833 283.191 192.48C283.167 192.128 283.283 191.78 283.514 191.513C283.744 191.245 284.071 191.079 284.423 191.051L312.072 189.005C312.425 188.979 312.774 189.094 313.042 189.325C313.31 189.556 313.475 189.884 313.501 190.237C313.527 190.59 313.412 190.939 313.181 191.207C312.95 191.475 312.622 191.641 312.269 191.667Z" fill="#1A41E7"/>
<path d="M277.481 204.635C277.481 204.755 272.08 205.26 265.394 205.748C258.709 206.236 253.282 206.544 253.273 206.424C253.265 206.305 258.675 205.8 265.36 205.303C272.045 204.807 277.472 204.507 277.481 204.635Z" fill="#263238"/>
<path d="M278.397 215.318C278.397 215.447 272.996 215.943 266.31 216.44C259.625 216.936 254.198 217.236 254.189 217.116C254.181 216.996 259.591 216.491 266.276 215.994C272.961 215.498 278.388 215.198 278.397 215.318Z" fill="#263238"/>
<path d="M325.357 202.341L285.981 205.26C285.628 205.286 285.279 205.171 285.011 204.94C284.743 204.709 284.578 204.381 284.552 204.028C284.526 203.675 284.641 203.326 284.872 203.058C285.103 202.79 285.431 202.624 285.784 202.598L325.16 199.679C325.513 199.653 325.862 199.768 326.13 200C326.398 200.231 326.563 200.559 326.59 200.912C326.604 201.087 326.583 201.263 326.528 201.43C326.474 201.597 326.387 201.751 326.272 201.884C326.157 202.017 326.017 202.126 325.86 202.204C325.703 202.283 325.532 202.329 325.357 202.341Z" fill="#E0E0E0"/>
<path d="M319.596 202.769L285.955 205.26C285.602 205.286 285.253 205.171 284.985 204.94C284.717 204.709 284.552 204.381 284.526 204.028C284.5 203.675 284.615 203.326 284.846 203.058C285.077 202.79 285.405 202.624 285.758 202.598L319.399 200.107C319.752 200.081 320.101 200.196 320.369 200.428C320.637 200.659 320.802 200.987 320.829 201.34C320.843 201.515 320.822 201.691 320.767 201.858C320.713 202.025 320.626 202.179 320.511 202.312C320.396 202.445 320.256 202.554 320.099 202.632C319.942 202.711 319.771 202.757 319.596 202.769Z" fill="#1A41E7"/>
<path d="M326.136 212.399L286.76 215.318C286.407 215.344 286.058 215.229 285.79 214.998C285.522 214.767 285.357 214.439 285.33 214.086C285.305 213.733 285.42 213.384 285.651 213.116C285.882 212.848 286.21 212.682 286.563 212.656L325.939 209.737C326.292 209.711 326.641 209.826 326.909 210.058C327.177 210.289 327.342 210.617 327.369 210.97C327.395 211.323 327.279 211.672 327.048 211.94C326.817 212.208 326.489 212.373 326.136 212.399Z" fill="#E0E0E0"/>
<path d="M314.349 213.272L286.7 215.318C286.347 215.344 285.998 215.229 285.73 214.998C285.462 214.767 285.297 214.439 285.271 214.086C285.245 213.733 285.36 213.384 285.591 213.116C285.822 212.848 286.15 212.682 286.503 212.656L314.152 210.576C314.505 210.55 314.854 210.665 315.122 210.896C315.39 211.128 315.555 211.456 315.582 211.809C315.599 211.986 315.581 212.165 315.528 212.336C315.475 212.506 315.389 212.664 315.274 212.801C315.159 212.937 315.018 213.049 314.859 213.13C314.7 213.211 314.527 213.26 314.349 213.272Z" fill="#1A41E7"/>
<path d="M279.775 226.712C279.775 226.84 274.365 227.336 267.68 227.833C260.994 228.329 255.567 228.629 255.559 228.509C255.55 228.389 260.96 227.884 267.646 227.388C274.331 226.891 279.767 226.592 279.775 226.712Z" fill="#263238"/>
<path d="M327.651 224.426L288.275 227.336C287.922 227.362 287.573 227.247 287.305 227.016C287.037 226.785 286.872 226.457 286.846 226.104C286.824 225.752 286.941 225.406 287.171 225.139C287.402 224.871 287.727 224.705 288.078 224.674L327.454 221.764C327.808 221.738 328.158 221.853 328.427 222.084C328.697 222.315 328.864 222.643 328.892 222.997C328.916 223.35 328.799 223.699 328.566 223.967C328.334 224.235 328.005 224.4 327.651 224.426Z" fill="#E0E0E0"/>
<path d="M310.103 225.719L288.241 227.336C287.888 227.362 287.539 227.247 287.271 227.016C287.003 226.785 286.838 226.457 286.811 226.104C286.79 225.752 286.907 225.406 287.137 225.139C287.367 224.871 287.693 224.705 288.044 224.674L309.872 223.056C310.224 223.033 310.572 223.149 310.84 223.38C311.107 223.61 311.273 223.937 311.302 224.289C311.328 224.637 311.217 224.981 310.993 225.248C310.769 225.515 310.45 225.684 310.103 225.719Z" fill="#1A41E7"/>
<path d="M262.296 172.142L260.909 169.702C261.785 168.315 262.11 166.65 261.82 165.036C261.53 163.421 260.647 161.973 259.343 160.978C258.039 159.982 256.41 159.511 254.776 159.656C253.142 159.801 251.622 160.553 250.514 161.764C249.407 162.974 248.793 164.555 248.792 166.195C248.792 167.836 249.406 169.417 250.514 170.627C251.621 171.838 253.141 172.59 254.775 172.735C256.409 172.881 258.038 172.41 259.342 171.414L262.296 172.142Z" fill="#1A41E7"/>
<path d="M312.894 162.854C312.894 162.982 303.777 163.761 292.504 164.566C281.23 165.371 272.088 165.978 272.08 165.859C272.071 165.739 281.196 164.96 292.47 164.147C303.743 163.333 312.885 162.734 312.894 162.854Z" fill="#1A41E7"/>
<path d="M81.397 67.9493L97.7466 261.362L242.008 250.628L226.429 56.8726L81.397 67.9493Z" fill="#EBEBEB"/>
<path d="M230.123 51.2615L87.145 61.2699L100.742 255.513L243.72 245.505L230.123 51.2615Z" fill="#FAFAFA"/>
<path d="M101.008 254.925V254.497L86.6443 60.3566H87.0637L230.076 49.7336V50.1616L244.448 244.302H244.02L101.008 254.925ZM87.5602 61.1441L101.864 254.009L243.592 243.515L229.288 50.6581L87.5602 61.1441Z" fill="#263238"/>
<path d="M200.997 79.5224C200.969 79.4158 200.949 79.307 200.937 79.1971C200.937 78.9574 200.86 78.6407 200.8 78.2384C200.689 77.3824 200.526 76.1241 200.33 74.5405C200.133 72.9569 199.884 70.9538 199.602 68.6769C199.488 67.4628 199.303 66.2565 199.046 65.0646C198.897 64.4257 198.633 63.8194 198.267 63.2755C197.889 62.711 197.335 62.2868 196.692 62.0686C195.987 61.8736 195.244 61.8658 194.535 62.0459C193.827 62.2261 193.177 62.5879 192.651 63.0958C191.523 64.2656 190.797 65.765 190.58 67.3758C190.049 70.9355 190.154 74.561 190.888 78.0843C191.222 79.959 191.581 81.8935 192.009 83.8452C192.396 85.8328 193.104 87.744 194.106 89.5034C195.158 91.3037 196.809 92.6764 198.772 93.381C199.763 93.7318 200.83 93.8087 201.862 93.6036C202.904 93.3874 203.865 92.8833 204.635 92.1484C206.172 90.6438 207.133 88.6474 207.349 86.5074C207.544 84.414 207.489 82.3048 207.186 80.2243C206.724 76.0813 206.279 72.0923 205.851 68.2403C205.637 66.34 205.431 64.4825 205.234 62.6849C205.038 60.8873 204.858 59.1325 204.533 57.4718C204.26 55.8654 203.768 54.3042 203.069 52.8323C202.424 51.4833 201.485 50.2958 200.321 49.357C198.253 47.7858 195.689 47.0111 193.096 47.1742C191.136 47.2367 189.251 47.9403 187.729 49.1772C186.795 49.9868 186.087 51.025 185.675 52.1903C185.401 52.995 185.341 53.4401 185.307 53.4401C185.354 53.0058 185.448 52.5781 185.589 52.1646C185.973 50.9646 186.67 49.8889 187.609 49.0488C189.149 47.7572 191.072 47.0108 193.079 46.9259C195.738 46.7312 198.378 47.5066 200.509 49.1087C201.723 50.0662 202.704 51.2867 203.377 52.6782C204.098 54.1762 204.611 55.7661 204.901 57.4034C205.226 59.1154 205.414 60.8274 205.628 62.6421C205.842 64.4568 206.039 66.2972 206.262 68.1975C206.69 71.9982 207.118 75.9957 207.614 80.1302C207.929 82.2469 207.986 84.3939 207.785 86.5245C207.558 88.7694 206.549 90.863 204.935 92.4394C204.103 93.2254 203.068 93.7648 201.947 93.9974C200.842 94.2134 199.699 94.1337 198.635 93.7662C196.576 93.0198 194.841 91.579 193.73 89.6917C192.713 87.8869 191.993 85.9302 191.598 83.8966C191.17 81.9278 190.819 80.0018 190.486 78.11C189.741 74.5299 189.64 70.8459 190.186 67.2302C190.438 65.5567 191.21 64.0052 192.394 62.7962C192.966 62.2503 193.671 61.8641 194.438 61.6763C195.206 61.4885 196.01 61.5057 196.769 61.7262C197.469 61.9738 198.07 62.4425 198.481 63.0615C198.861 63.6353 199.133 64.2734 199.285 64.9447C199.535 66.1543 199.712 67.3777 199.816 68.6084C200.064 70.8854 200.287 72.8884 200.467 74.472C200.646 76.0556 200.766 77.3054 200.86 78.1785C200.86 78.5894 200.929 78.9061 200.946 79.1458C200.975 79.2693 200.992 79.3955 200.997 79.5224Z" fill="#263238"/>
<path d="M142.284 72.6487L130.968 67.9493C127.912 69.8924 122.922 75.2424 121.552 81.2173C120.764 84.4906 120.475 87.8643 120.696 91.2239C120.884 94.8448 120.559 98.6797 118.556 101.701C117.126 103.85 114.824 105.725 114.781 108.31C114.738 111.28 117.811 113.839 117.186 116.75C116.681 119.078 114.088 120.251 112.735 122.211C110.766 125.053 111.716 128.939 113 132.149C116.099 139.896 109.508 151.041 115.312 157.033C121.038 152.334 137.97 143.62 143.697 138.92C145.044 137.972 146.159 136.731 146.958 135.291C147.951 133.108 147.412 130.583 146.898 128.246C142.876 110.004 141.324 91.3041 142.284 72.6487Z" fill="#263238"/>
<path d="M209.96 206.245L204.379 200.595L144.715 217.424C144.715 217.424 141.437 243.652 141.771 245.33C142.105 247.007 141.771 251.801 141.771 251.801L224.109 245.381C224.109 245.381 225.042 223.048 209.96 206.245Z" fill="#263238"/>
<path d="M160.851 229.048C160.772 229.288 160.657 229.513 160.509 229.716C160.26 230.118 159.901 230.709 159.387 231.428C158.794 232.244 158.11 232.99 157.35 233.654C156.385 234.444 155.274 235.038 154.08 235.4C151.942 236.082 149.707 236.414 147.463 236.384C146.788 236.382 146.114 236.342 145.443 236.265C145.191 236.263 144.942 236.216 144.707 236.128C144.707 236.059 145.768 236.128 147.463 236.068C149.663 236.002 151.844 235.634 153.943 234.972C155.085 234.602 156.148 234.021 157.076 233.26C157.828 232.624 158.516 231.916 159.13 231.146C160.2 229.887 160.791 229.006 160.851 229.048Z" fill="#455A64"/>
<path d="M180.479 248.839C180.367 248.579 180.289 248.306 180.248 248.026C180.128 247.504 179.965 246.733 179.794 245.775C179.435 243.866 179.015 241.221 178.69 238.276C178.365 235.332 178.193 232.644 178.125 230.709C178.125 229.742 178.074 228.997 178.082 228.406C178.054 228.12 178.071 227.831 178.134 227.55C178.298 228.585 178.401 229.628 178.442 230.675C178.596 232.601 178.81 235.272 179.135 238.208C179.46 241.144 179.828 243.789 180.102 245.706C180.299 246.741 180.424 247.788 180.479 248.839Z" fill="#455A64"/>
<path d="M186.18 247.47C186.051 247.47 185.546 243.036 185.05 237.549C184.553 232.062 184.194 227.602 184.357 227.585C184.519 227.568 184.99 232.019 185.487 237.506C185.983 242.993 186.3 247.461 186.18 247.47Z" fill="#455A64"/>
<path d="M215.113 216.859C214.955 217.106 214.768 217.333 214.556 217.535C214.18 217.955 213.623 218.545 212.844 219.247C211.991 220.072 211.059 220.811 210.062 221.456C208.823 222.255 207.439 222.802 205.988 223.065C204.521 223.299 203.018 223.131 201.639 222.577C200.534 222.126 199.494 221.527 198.549 220.797C197.914 220.314 197.308 219.794 196.734 219.239C196.509 219.05 196.308 218.835 196.135 218.597C196.187 218.537 197.111 219.384 198.703 220.54C199.645 221.218 200.669 221.773 201.751 222.192C203.067 222.697 204.493 222.845 205.885 222.62C207.277 222.372 208.608 221.857 209.806 221.105C210.797 220.487 211.734 219.786 212.605 219.008C214.171 217.681 215.061 216.808 215.113 216.859Z" fill="#455A64"/>
<path d="M219.675 233.465C219.433 233.652 219.169 233.807 218.888 233.928L216.688 235.075C214.83 236.051 212.288 237.446 209.574 239.124C206.861 240.801 204.438 242.462 202.726 243.686L200.715 245.141C200.481 245.341 200.222 245.508 199.944 245.638C200.142 245.404 200.363 245.192 200.604 245.004C201.049 244.619 201.708 244.08 202.538 243.429C206.9 240.068 211.602 237.173 216.568 234.792C217.518 234.339 218.28 233.988 218.845 233.765C219.106 233.627 219.386 233.526 219.675 233.465Z" fill="#455A64"/>
<path d="M165.251 226.472C165.191 226.472 164.985 226.061 164.711 225.333C164.36 224.377 164.108 223.388 163.958 222.38C163.812 221.357 163.871 220.316 164.129 219.316C164.212 218.893 164.39 218.494 164.652 218.152C164.356 219.52 164.272 220.926 164.403 222.32C164.549 223.304 164.752 224.279 165.011 225.239C165.161 225.634 165.242 226.05 165.251 226.472Z" fill="#455A64"/>
<path d="M168.846 226.686C168.641 226.303 168.499 225.89 168.426 225.462C168.149 224.453 167.963 223.422 167.87 222.38C167.835 221.808 167.864 221.234 167.956 220.668C168.048 220.195 168.206 219.737 168.426 219.307C168.803 218.58 169.188 218.246 169.223 218.28C169.08 218.677 168.908 219.063 168.709 219.436C168.363 220.379 168.228 221.387 168.315 222.389C168.392 223.57 168.623 224.64 168.743 225.428C168.847 225.838 168.882 226.264 168.846 226.686Z" fill="#455A64"/>
<path d="M190.888 224.614C190.878 222.479 190.435 220.367 189.586 218.408C188.737 216.448 187.5 214.681 185.949 213.212C186.513 213.515 187.018 213.919 187.438 214.402C188.518 215.512 189.388 216.809 190.006 218.229C190.622 219.648 190.973 221.168 191.042 222.714C191.104 223.352 191.052 223.995 190.888 224.614Z" fill="#455A64"/>
<path d="M194.851 223.228C194.465 221.303 193.938 219.409 193.276 217.561C192.466 215.783 191.528 214.066 190.469 212.425C190.926 212.791 191.319 213.231 191.633 213.726C193.305 216.022 194.387 218.694 194.783 221.507C194.894 222.074 194.918 222.654 194.851 223.228Z" fill="#455A64"/>
<path d="M179.691 220.274C179.691 220.274 179.846 220.043 180.291 219.838C180.928 219.56 181.646 219.533 182.302 219.761C182.766 219.913 183.18 220.188 183.501 220.557C183.863 220.994 184.071 221.539 184.091 222.106C184.115 222.728 183.951 223.342 183.62 223.87C183.441 224.158 183.207 224.407 182.931 224.604C182.654 224.801 182.342 224.941 182.011 225.017C181.374 225.148 180.711 225.063 180.127 224.777C179.543 224.49 179.07 224.017 178.784 223.433C178.567 222.914 178.513 222.34 178.63 221.79C178.696 221.303 178.894 220.844 179.204 220.463C179.686 219.964 180.335 219.66 181.027 219.607C181.153 219.586 181.281 219.591 181.405 219.621C181.529 219.652 181.645 219.709 181.746 219.787C181.512 219.767 181.277 219.767 181.044 219.787C180.422 219.897 179.858 220.218 179.443 220.694C179.194 221.036 179.04 221.437 178.998 221.858C178.907 222.337 178.961 222.831 179.152 223.279C179.41 223.767 179.819 224.158 180.317 224.396C180.815 224.633 181.376 224.704 181.917 224.597C182.445 224.447 182.907 224.123 183.227 223.676C183.547 223.23 183.707 222.689 183.68 222.141C183.674 221.657 183.512 221.189 183.218 220.805C182.944 220.482 182.594 220.232 182.2 220.078C181.608 219.846 180.955 219.825 180.351 220.018C179.923 220.146 179.76 220.309 179.691 220.274Z" fill="#455A64"/>
<path d="M126.363 137.174C125.892 137.748 112.162 146.496 110.099 152.128C108.036 157.761 111.357 180.736 111.93 184.708C112.504 188.68 120.294 203.677 120.294 203.677C120.294 203.677 118.659 210.148 120.799 214.137C122.189 216.604 124.272 218.61 126.791 219.906L140.589 212.348L132.029 173.605L126.363 137.174Z" fill="#1A41E7"/>
<path d="M127.861 177.868C128.254 177.312 128.785 176.952 129.11 176.533C129.436 176.113 130.138 175.925 130.471 176.327C130.805 176.73 130.471 177.474 130.035 177.92C131.422 177.971 132.474 176.071 133.818 176.447C134.024 176.54 134.209 176.672 134.363 176.836C134.517 177 134.638 177.193 134.717 177.404C134.797 177.615 134.834 177.839 134.826 178.064C134.819 178.289 134.767 178.511 134.674 178.716C134.243 179.527 133.562 180.179 132.731 180.573C131.9 180.958 131.153 181.502 130.531 182.174C130.24 182.551 130.052 183.124 130.369 183.484C130.908 184.1 132.158 183.372 132.637 184.031C132.954 184.477 132.569 185.076 132.201 185.487C130.848 186.948 129.501 188.417 128.16 189.895C127.837 190.317 127.409 190.647 126.919 190.854C126.672 190.945 126.399 190.941 126.155 190.841C125.911 190.741 125.713 190.553 125.601 190.314C125.562 190.057 125.606 189.795 125.726 189.564C125.846 189.334 126.036 189.147 126.268 189.03C126.744 188.82 127.199 188.568 127.63 188.277C127.84 188.127 127.983 187.901 128.03 187.647C128.076 187.393 128.022 187.131 127.878 186.916C127.424 186.454 126.654 186.839 126.166 187.241L121.458 190.939C121.135 191.243 120.735 191.453 120.302 191.547C120.086 191.583 119.864 191.535 119.683 191.412C119.501 191.289 119.374 191.102 119.326 190.888C119.331 190.659 119.403 190.436 119.532 190.246C120.384 188.753 121.553 187.465 122.956 186.471C123.524 186.145 124.036 185.729 124.471 185.238C124.682 184.989 124.81 184.68 124.836 184.355C124.862 184.029 124.785 183.703 124.616 183.424C123.691 184.295 122.669 185.056 121.569 185.692C121.184 185.923 120.619 186.112 120.328 185.761C120.037 185.41 120.328 184.905 120.645 184.519L125.515 178.801C125.69 178.534 125.917 178.304 126.181 178.125C126.446 177.946 126.743 177.821 127.056 177.757L127.861 177.868Z" fill="white"/>
<path d="M134.649 124.642L133.536 131.413L123.401 139.528C123.401 139.528 121.004 154.816 123.29 170.344C123.29 170.344 138.141 210.576 138.501 212.288C139.177 215.549 145.169 218.28 145.169 218.28C145.169 218.28 167.793 218.494 175.566 217.373C183.338 216.251 202.102 204.396 203.899 202.821C205.697 201.246 207.725 193.679 207.725 193.679L193.892 154.936L193.114 127.681L172.441 122.374L165.422 116.947L134.649 124.642Z" fill="#1A41E7"/>
<path d="M195.613 152.907C196.007 152.351 196.538 151.991 196.854 151.572C197.171 151.152 197.89 150.964 198.224 151.366C198.558 151.769 198.224 152.514 197.779 152.959C199.174 153.01 200.227 151.11 201.571 151.486C201.776 151.579 201.961 151.711 202.116 151.875C202.27 152.039 202.39 152.232 202.47 152.443C202.549 152.654 202.586 152.878 202.579 153.103C202.572 153.328 202.52 153.55 202.427 153.755C201.995 154.566 201.314 155.218 200.484 155.612C199.653 155.997 198.905 156.541 198.284 157.213C197.993 157.598 197.804 158.163 198.121 158.523C198.652 159.139 199.91 158.411 200.39 159.07C200.706 159.516 200.321 160.115 199.953 160.526C198.601 161.992 197.254 163.462 195.913 164.934C195.589 165.356 195.161 165.686 194.671 165.893C194.424 165.986 194.151 165.983 193.906 165.883C193.662 165.783 193.464 165.594 193.353 165.354C193.314 165.098 193.358 164.836 193.478 164.606C193.598 164.377 193.788 164.192 194.021 164.078C194.495 163.862 194.95 163.607 195.382 163.316C195.59 163.165 195.733 162.939 195.779 162.685C195.825 162.432 195.772 162.17 195.63 161.955C195.177 161.493 194.406 161.878 193.918 162.28L189.176 165.978C188.857 166.283 188.46 166.494 188.029 166.586C187.813 166.622 187.591 166.574 187.41 166.451C187.228 166.328 187.101 166.141 187.053 165.927C187.058 165.698 187.13 165.475 187.259 165.285C188.111 163.792 189.28 162.504 190.683 161.51C191.251 161.184 191.763 160.768 192.198 160.277C192.409 160.028 192.537 159.719 192.563 159.394C192.589 159.068 192.512 158.742 192.343 158.463C191.418 159.334 190.396 160.095 189.296 160.731C188.902 160.962 188.346 161.151 188.055 160.8C187.764 160.449 188.055 159.944 188.371 159.558C189.998 157.647 191.621 155.741 193.242 153.84C193.417 153.573 193.644 153.343 193.908 153.164C194.173 152.985 194.47 152.86 194.783 152.796L195.613 152.907Z" fill="white"/>
<path d="M192.78 127.809C192.78 127.809 204.224 131.824 207.22 138.672C210.216 145.52 221.687 178.048 220.968 184.04C220.249 190.032 218.34 196.88 213.153 197.188C207.965 197.496 202.025 192.215 202.025 192.215L197.368 184.639L197.616 176.704L192.326 155.578L192.78 127.809Z" fill="#1A41E7"/>
<path d="M135.085 127.955C135.085 128.006 158.728 156.922 158.728 156.922L161.938 130.129L166.415 116.938L135.599 124.548L135.085 127.955Z" fill="#967262"/>
<g opacity="0.3">
<path d="M183.877 125.875C182.482 125.173 180.804 125.729 179.392 126.388C171.397 130.163 162.708 134.743 160.363 143.26L160.269 148.396C161.005 151.495 164.206 153.532 167.382 153.806C170.558 154.08 173.682 152.899 176.524 151.461C179.077 150.177 181.512 148.67 183.8 146.958C185.067 146.008 186.368 144.844 186.616 143.277C186.933 141.137 185.136 139.271 184.733 137.148C184.348 135.171 185.196 133.185 185.589 131.208C185.983 129.23 185.683 126.774 183.877 125.875Z" fill="black"/>
</g>
<path d="M123.264 170.387C123.362 170.542 123.44 170.708 123.495 170.883L124.077 172.338C124.565 173.614 125.267 175.454 126.106 177.74C127.818 182.311 129.949 188.688 132.372 195.716C133.596 199.225 134.786 202.564 135.881 205.586C136.429 207.101 136.934 208.547 137.465 209.866C137.955 211.09 138.56 212.265 139.271 213.375C140.315 214.975 141.69 216.332 143.303 217.356C144.458 218.066 145.169 218.34 145.143 218.383C144.966 218.339 144.794 218.276 144.63 218.194C144.142 218 143.67 217.768 143.217 217.501C141.534 216.519 140.097 215.166 139.014 213.546C138.27 212.433 137.636 211.249 137.123 210.011C136.566 208.676 136.053 207.238 135.488 205.731C134.375 202.709 133.168 199.38 131.952 195.861C129.556 188.859 127.39 182.516 125.806 177.885C125.019 175.617 124.377 173.777 123.914 172.433L123.409 170.943C123.343 170.763 123.294 170.577 123.264 170.387Z" fill="#263238"/>
<path d="M158.617 157.838C158.533 157.761 158.458 157.675 158.394 157.581L157.786 156.802C157.256 156.126 156.485 155.09 155.475 153.892C152.723 150.522 149.739 147.347 146.547 144.39L146.89 144.245C146.795 148.165 146.693 152.565 146.581 157.204C146.581 157.615 146.581 158.06 146.581 158.403V159.319L146.188 158.463C142.55 151.007 139.288 144.304 136.909 139.408C135.762 137.011 134.837 135.06 134.161 133.656C133.861 133.005 133.622 132.483 133.442 132.081C133.351 131.901 133.273 131.715 133.211 131.524C133.333 131.686 133.436 131.861 133.519 132.047C133.724 132.432 133.99 132.903 134.315 133.579L137.191 139.271C139.605 144.15 142.909 150.827 146.607 158.266L146.188 158.36C146.188 157.975 146.188 157.572 146.188 157.162C146.316 152.522 146.427 148.122 146.53 144.202V143.748L146.855 144.056C150.041 147.046 152.997 150.27 155.698 153.703C156.682 154.962 157.41 155.989 157.923 156.691L158.48 157.504C158.54 157.609 158.586 157.721 158.617 157.838Z" fill="#263238"/>
<path d="M192.275 178.75C192.369 178.836 185.427 186.223 176.867 195.245C168.307 204.267 161.219 211.509 161.133 211.432C161.048 211.355 167.939 203.968 176.541 194.937C185.144 185.906 192.189 178.664 192.275 178.75Z" fill="#263238"/>
<path d="M179.443 215.977C179.16 215.1 178.937 214.205 178.776 213.298C178.39 211.637 177.808 209.36 177.012 206.895C176.216 204.43 175.343 202.239 174.675 200.672C174.28 199.837 173.934 198.98 173.64 198.104C174.158 198.87 174.602 199.684 174.966 200.535C175.922 202.551 176.745 204.627 177.432 206.75C178.124 208.868 178.676 211.03 179.084 213.221C179.297 214.125 179.417 215.049 179.443 215.977Z" fill="#263238"/>
<path d="M121.492 168.966C119.5 167.884 117.581 166.671 115.748 165.336C113.828 164.13 111.989 162.797 110.244 161.347C112.24 162.425 114.162 163.635 115.996 164.968C117.914 166.178 119.75 167.514 121.492 168.966Z" fill="#263238"/>
<path d="M213.144 197.137C213.144 197.137 213.041 197.137 212.844 197.137H211.988C211.518 197.14 211.048 197.103 210.584 197.026C209.952 196.941 209.328 196.803 208.718 196.615C207.084 196.073 205.58 195.199 204.301 194.047C202.669 192.564 201.378 190.744 200.518 188.714C199.713 185.461 198.806 181.866 197.881 178.048C196.169 170.806 194.552 164.258 193.396 159.447L192.078 153.798L191.744 152.257C191.696 152.081 191.668 151.9 191.658 151.717C191.741 151.883 191.801 152.058 191.838 152.24C191.941 152.633 192.078 153.138 192.249 153.755C192.608 155.141 193.105 157.042 193.696 159.37C194.894 164.172 196.52 170.712 198.318 177.945C199.242 181.746 200.124 185.367 200.886 188.62C201.717 190.599 202.957 192.382 204.524 193.85C205.761 194.988 207.217 195.862 208.804 196.418C210.215 196.836 211.673 197.078 213.144 197.137Z" fill="#263238"/>
<path d="M129.538 197.668C128.975 197.825 128.404 197.951 127.826 198.044C125.13 198.714 122.761 200.326 121.15 202.59C120.852 203.085 120.529 203.565 120.182 204.028C120.304 203.449 120.543 202.901 120.884 202.418C121.639 201.201 122.642 200.156 123.829 199.354C125.007 198.539 126.347 197.987 127.758 197.736C128.339 197.584 128.947 197.561 129.538 197.668Z" fill="#263238"/>
<path d="M129.692 196.692C128.451 197.425 127.093 197.94 125.678 198.215C124.293 198.64 122.845 198.82 121.398 198.746C121.398 198.618 123.272 198.352 125.549 197.787C127.826 197.222 129.641 196.572 129.692 196.692Z" fill="#263238"/>
<path d="M127.013 149.141C127.416 148.584 127.946 148.225 128.263 147.806C128.58 147.386 129.29 147.189 129.633 147.6C129.975 148.011 129.633 148.739 129.187 149.184C130.583 149.244 131.636 147.343 132.98 147.72C133.185 147.812 133.37 147.945 133.524 148.109C133.678 148.273 133.799 148.466 133.878 148.676C133.958 148.887 133.995 149.112 133.988 149.337C133.98 149.562 133.929 149.783 133.836 149.988C133.404 150.8 132.723 151.451 131.892 151.846C131.065 152.233 130.321 152.776 129.701 153.447C129.41 153.823 129.222 154.397 129.538 154.756C130.069 155.373 131.327 154.645 131.798 155.304C132.124 155.749 131.738 156.348 131.362 156.751L127.33 161.168C127.006 161.59 126.579 161.92 126.089 162.126C125.841 162.218 125.569 162.213 125.325 162.113C125.08 162.014 124.883 161.826 124.77 161.587C124.732 161.33 124.776 161.067 124.896 160.837C125.016 160.606 125.206 160.419 125.438 160.303C125.911 160.088 126.366 159.836 126.799 159.55C127.008 159.399 127.15 159.172 127.195 158.918C127.239 158.664 127.184 158.402 127.039 158.189C126.594 157.718 125.823 158.112 125.327 158.506L120.61 162.212C120.292 162.517 119.895 162.727 119.463 162.82C119.247 162.856 119.026 162.807 118.844 162.685C118.662 162.562 118.535 162.375 118.487 162.161C118.491 161.931 118.563 161.708 118.693 161.519C119.556 160.02 120.739 158.731 122.16 157.744C122.724 157.415 123.232 156.999 123.666 156.511C123.879 156.263 124.008 155.954 124.036 155.629C124.064 155.303 123.988 154.977 123.82 154.696C122.891 155.563 121.869 156.323 120.773 156.965C120.379 157.196 119.823 157.376 119.532 157.033C119.241 156.691 119.532 156.177 119.84 155.783L124.719 150.074C125.074 149.533 125.627 149.155 126.26 149.021L127.013 149.141Z" fill="white"/>
<path d="M162.982 160.765C163.376 160.209 163.907 159.849 164.232 159.43C164.557 159.011 165.259 158.814 165.593 159.225C165.927 159.635 165.593 160.363 165.148 160.808C166.543 160.868 167.596 158.968 168.94 159.344C169.145 159.437 169.331 159.569 169.485 159.733C169.639 159.897 169.759 160.09 169.839 160.301C169.918 160.512 169.955 160.736 169.948 160.961C169.941 161.186 169.889 161.408 169.796 161.613C169.363 162.421 168.682 163.07 167.853 163.462C167.023 163.852 166.277 164.399 165.653 165.071C165.362 165.448 165.174 166.021 165.49 166.381C166.03 166.988 167.279 166.269 167.759 166.929C168.076 167.374 167.69 167.973 167.322 168.375L163.282 172.792C162.961 173.22 162.533 173.557 162.041 173.768C161.792 173.859 161.519 173.853 161.275 173.752C161.03 173.65 160.833 173.46 160.722 173.22C160.685 172.964 160.729 172.703 160.849 172.474C160.969 172.245 161.158 172.06 161.39 171.945C161.862 171.728 162.317 171.476 162.751 171.191C163.145 170.858 163.359 170.198 162.999 169.83C162.64 169.462 161.775 169.753 161.287 170.147L156.579 173.854C156.253 174.152 155.855 174.362 155.424 174.461C155.208 174.497 154.986 174.449 154.805 174.326C154.623 174.204 154.495 174.016 154.448 173.802C154.452 173.573 154.523 173.349 154.653 173.16C155.501 171.664 156.671 170.375 158.077 169.385C158.644 169.056 159.155 168.64 159.593 168.153C159.804 167.904 159.932 167.594 159.958 167.269C159.984 166.943 159.907 166.617 159.738 166.338C158.811 167.206 157.789 167.967 156.691 168.606C156.306 168.829 155.741 169.017 155.45 168.675C155.158 168.332 155.45 167.819 155.766 167.425C157.393 165.525 159.016 163.619 160.637 161.707C160.996 161.173 161.548 160.799 162.178 160.663L162.982 160.765Z" fill="white"/>
<path d="M149.278 194.843C149.68 194.286 150.211 193.927 150.527 193.507C150.844 193.088 151.555 192.9 151.897 193.302C152.239 193.704 151.897 194.449 151.452 194.886C152.847 194.945 153.9 193.045 155.244 193.422C155.449 193.514 155.634 193.646 155.789 193.81C155.943 193.975 156.063 194.168 156.143 194.378C156.222 194.589 156.259 194.813 156.252 195.039C156.245 195.264 156.193 195.485 156.1 195.69C155.669 196.502 154.987 197.153 154.157 197.548C153.33 197.935 152.586 198.478 151.966 199.148C151.675 199.525 151.486 200.099 151.803 200.458C152.334 201.074 153.592 200.347 154.063 201.006C154.388 201.451 154.003 202.05 153.626 202.453L149.594 206.87C149.271 207.291 148.843 207.622 148.353 207.828C148.106 207.92 147.833 207.915 147.589 207.815C147.345 207.715 147.147 207.528 147.035 207.289C146.997 207.032 147.041 206.769 147.161 206.539C147.28 206.308 147.47 206.121 147.703 206.005C148.178 205.795 148.633 205.543 149.064 205.252C149.273 205.1 149.414 204.874 149.459 204.62C149.504 204.366 149.448 204.104 149.303 203.891C148.858 203.42 148.088 203.814 147.591 204.207L142.875 207.914C142.556 208.219 142.159 208.429 141.728 208.522C141.512 208.557 141.29 208.509 141.109 208.387C140.927 208.264 140.799 208.076 140.752 207.862C140.756 207.633 140.827 207.41 140.957 207.22C141.81 205.728 142.979 204.439 144.381 203.446C144.949 203.121 145.458 202.705 145.888 202.213C146.101 201.965 146.23 201.656 146.258 201.33C146.285 201.005 146.21 200.679 146.042 200.398C145.115 201.267 144.093 202.028 142.995 202.667C142.601 202.898 142.045 203.086 141.753 202.735C141.462 202.384 141.753 201.879 142.062 201.494L146.941 195.776C147.295 195.235 147.849 194.857 148.482 194.723L149.278 194.843Z" fill="white"/>
<path d="M190.169 191.847C190.563 191.29 191.102 190.931 191.419 190.511C191.735 190.092 192.446 189.895 192.788 190.306C193.131 190.717 192.746 191.444 192.343 191.89C193.738 191.949 194.791 190.049 196.135 190.426C196.341 190.518 196.526 190.65 196.68 190.814C196.834 190.979 196.954 191.172 197.034 191.382C197.114 191.593 197.151 191.817 197.143 192.042C197.136 192.268 197.084 192.489 196.991 192.694C196.558 193.503 195.877 194.151 195.048 194.543C194.223 194.936 193.479 195.482 192.857 196.152C192.566 196.529 192.377 197.103 192.694 197.462C193.225 198.07 194.483 197.351 194.954 198.01C195.279 198.455 194.886 199.054 194.517 199.457L190.477 203.874C190.155 204.297 189.727 204.628 189.236 204.832C188.987 204.921 188.715 204.914 188.471 204.813C188.227 204.712 188.03 204.523 187.918 204.284C187.879 204.027 187.924 203.765 188.046 203.535C188.168 203.306 188.36 203.121 188.594 203.009C189.064 202.793 189.516 202.542 189.946 202.256C190.34 201.922 190.554 201.263 190.195 200.895C189.835 200.527 188.979 200.818 188.483 201.211L183.775 204.918C183.451 205.22 183.052 205.43 182.619 205.526C182.403 205.561 182.181 205.513 182 205.391C181.818 205.268 181.691 205.08 181.643 204.866C181.646 204.635 181.721 204.411 181.857 204.224C182.717 202.724 183.902 201.434 185.324 200.45C185.886 200.118 186.394 199.703 186.831 199.217C187.043 198.969 187.173 198.66 187.2 198.334C187.228 198.009 187.153 197.683 186.985 197.402C186.056 198.269 185.034 199.029 183.937 199.671C183.544 199.902 182.979 200.081 182.688 199.739C182.396 199.397 182.688 198.883 183.004 198.489L187.883 192.78C188.058 192.511 188.284 192.28 188.548 192.099C188.813 191.918 189.111 191.792 189.424 191.727L190.169 191.847Z" fill="white"/>
<path d="M174.555 196.426C174.463 196.321 174.385 196.202 174.324 196.075L173.725 195.022C173.212 194.115 172.493 192.771 171.645 191.102C169.933 187.764 167.699 183.073 165.499 177.791C163.299 172.51 161.553 167.613 160.363 164.044C159.781 162.255 159.336 160.808 159.045 159.764C158.916 159.302 158.814 158.908 158.728 158.6C158.68 158.465 158.651 158.323 158.642 158.18C158.716 158.304 158.773 158.436 158.814 158.574C158.916 158.882 159.053 159.259 159.216 159.712C159.575 160.765 160.072 162.186 160.663 163.907C161.895 167.442 163.684 172.304 165.876 177.603C168.067 182.902 170.25 187.575 171.868 190.939C172.664 192.583 173.323 193.927 173.819 194.928L174.341 196.015C174.433 196.141 174.505 196.279 174.555 196.426Z" fill="#263238"/>
<path d="M221.002 183.304C221.002 183.946 218.04 185.29 217.407 185.221L216.662 184.99C216.183 185.478 215.601 185.752 215.224 186.12C214.847 186.488 214.111 186.565 213.837 186.12C213.563 185.675 214.051 184.999 214.522 184.622C213.152 184.357 211.817 186.069 210.55 185.478C210.171 185.228 209.907 184.838 209.815 184.394C209.724 183.949 209.813 183.486 210.062 183.107C210.615 182.372 211.389 181.835 212.271 181.575C213.148 181.32 213.967 180.898 214.685 180.334C215.027 180 215.301 179.478 215.044 179.058C214.616 178.373 213.264 178.895 212.896 178.202C212.647 177.714 213.118 177.183 213.555 176.841C215.104 175.591 217.236 173.854 218.794 172.604C218.794 172.561 220.942 180.376 221.002 183.304Z" fill="white"/>
<g opacity="0.3">
<path d="M161.356 210.953C173.768 204.182 184.845 193.276 190.854 180.479L161.356 210.953Z" fill="black"/>
</g>
<g opacity="0.3">
<path d="M120.208 204.028C122.639 198.806 127.424 197.376 132.072 197.436C132.118 197.165 132.063 196.887 131.916 196.654C131.769 196.422 131.541 196.252 131.276 196.178C130.741 196.033 130.176 196.033 129.641 196.178C127.383 196.504 125.205 197.25 123.221 198.378C122.309 198.967 121.56 199.777 121.047 200.734C120.533 201.691 120.271 202.762 120.285 203.848" fill="black"/>
</g>
<g opacity="0.3">
<path d="M133.305 131.704C136.461 143.274 141.369 154.292 147.857 164.378C150.249 160.664 151.267 156.231 150.733 151.846C152.533 154.186 155.002 155.924 157.812 156.828C154.517 152.3 151.093 147.994 146.813 144.39C146.813 144.39 146.444 158.942 146.453 158.54C141.976 149.543 137.619 140.684 133.288 131.704" fill="black"/>
</g>
<path d="M171.02 91.301C169.745 95.4526 167.93 98.6454 163.907 100.28C160.389 101.71 156.408 101.436 152.693 100.674C140.615 98.1832 127.938 91.7461 121.526 81.2173L124.95 73.753C128.571 68.0606 137.422 61.3153 147.694 64.6537C150.473 63.859 153.408 63.7831 156.224 64.4328C159.041 65.0826 161.646 66.4369 163.796 68.3687C171.671 75.0712 171.02 91.301 171.02 91.301Z" fill="#263238"/>
<path d="M142.002 70.3375C134.948 69.4815 125.841 78.0415 125.258 85.1378C124.608 93.013 124.129 102.652 124.942 108.549C126.594 120.414 135.633 122.091 135.633 122.091L135.197 128.126L162.212 122.939L163.376 80.6266L163.522 76.8089L142.002 70.3375Z" fill="#967262"/>
<path d="M129.65 93.6806C129.638 94.0754 129.781 94.4592 130.048 94.7502C130.315 95.0412 130.685 95.2164 131.079 95.2386C131.272 95.2586 131.468 95.2397 131.654 95.183C131.839 95.1263 132.012 95.033 132.161 94.9085C132.31 94.7841 132.433 94.631 132.522 94.4583C132.611 94.2857 132.665 94.0969 132.68 93.9032C132.692 93.5084 132.549 93.1247 132.282 92.8337C132.015 92.5427 131.645 92.3674 131.25 92.3453C131.057 92.3253 130.862 92.3442 130.676 92.4009C130.49 92.4575 130.318 92.5509 130.168 92.6753C130.019 92.7998 129.896 92.9528 129.807 93.1255C129.718 93.2982 129.665 93.4869 129.65 93.6806Z" fill="#263238"/>
<path d="M127.664 90.2138C127.844 90.4107 129.008 89.589 130.643 89.6232C132.278 89.6574 133.459 90.4792 133.639 90.2994C133.818 90.1197 133.544 89.8543 133.031 89.4434C132.331 88.9432 131.495 88.6684 130.634 88.6559C129.785 88.639 128.952 88.8906 128.254 89.375C127.749 89.7687 127.544 90.1197 127.664 90.2138Z" fill="#263238"/>
<path d="M144.886 94.2713C144.877 94.6655 145.02 95.048 145.287 95.3385C145.554 95.6291 145.922 95.8049 146.316 95.8292C146.509 95.848 146.703 95.8282 146.888 95.7709C147.073 95.7137 147.244 95.6202 147.392 95.4958C147.541 95.3715 147.663 95.2188 147.751 95.0468C147.84 94.8747 147.893 94.6867 147.908 94.4938C147.92 94.0982 147.777 93.7135 147.511 93.4211C147.244 93.1287 146.874 92.9516 146.479 92.9274C146.285 92.9086 146.09 92.9287 145.905 92.9864C145.72 93.0442 145.548 93.1385 145.399 93.2637C145.251 93.389 145.129 93.5426 145.041 93.7157C144.953 93.8887 144.9 94.0776 144.886 94.2713Z" fill="#263238"/>
<path d="M143.697 90.8302C143.885 91.027 145.049 90.2053 146.684 90.2395C148.319 90.2738 149.492 91.0955 149.672 90.9158C149.851 90.736 149.577 90.4706 149.064 90.0598C148.367 89.5597 147.533 89.2849 146.676 89.2722C145.826 89.2535 144.993 89.5053 144.296 89.9913C143.808 90.385 143.611 90.736 143.697 90.8302Z" fill="#263238"/>
<path d="M137.542 102.814C136.684 102.536 135.796 102.361 134.897 102.292C134.486 102.241 134.092 102.146 134.041 101.864C134.014 101.431 134.121 101 134.349 100.631C134.76 99.6298 135.205 98.577 135.642 97.4813C137.439 92.9958 138.749 89.3065 138.569 89.238C138.389 89.1695 136.78 92.739 134.983 97.2245C134.546 98.3287 134.127 99.3902 133.741 100.4C133.465 100.895 133.377 101.472 133.493 102.027C133.549 102.177 133.639 102.311 133.757 102.42C133.874 102.528 134.016 102.608 134.169 102.652C134.398 102.717 134.634 102.755 134.871 102.763C135.756 102.894 136.653 102.911 137.542 102.814Z" fill="#263238"/>
<path d="M135.633 122.126C141.331 122.325 146.974 120.967 151.957 118.196C151.957 118.196 147.634 126.363 135.419 125.044L135.633 122.126Z" fill="#77574A"/>
<path d="M138.158 106.769C138.474 106.382 138.884 106.083 139.349 105.901C139.814 105.718 140.317 105.657 140.812 105.725C141.171 105.763 141.519 105.873 141.833 106.05C142.148 106.226 142.424 106.465 142.644 106.752C142.857 107.029 142.98 107.364 142.997 107.713C143.013 108.062 142.923 108.407 142.738 108.703C142.47 108.991 142.123 109.192 141.74 109.281C141.357 109.369 140.956 109.341 140.589 109.2C139.822 108.916 139.12 108.479 138.526 107.916C138.347 107.782 138.194 107.616 138.073 107.428C138.012 107.338 137.979 107.233 137.979 107.124C137.979 107.016 138.012 106.91 138.073 106.82" fill="#77574A"/>
<path d="M142.318 104.038C142.053 104.038 142.019 105.75 140.478 107.017C138.937 108.284 137.054 108.019 137.054 108.267C137.054 108.37 137.465 108.618 138.261 108.652C139.301 108.688 140.32 108.355 141.137 107.71C141.92 107.095 142.433 106.198 142.567 105.211C142.635 104.475 142.447 104.03 142.318 104.038Z" fill="#263238"/>
<path d="M143.406 84.4273C143.551 84.8724 145.186 84.6926 147.095 84.958C149.004 85.2234 150.519 85.814 150.81 85.386C150.93 85.1977 150.664 84.7782 150.048 84.3331C149.227 83.7838 148.289 83.4349 147.309 83.3145C146.332 83.1779 145.337 83.2777 144.407 83.6055C143.697 83.888 143.337 84.2133 143.406 84.4273Z" fill="#263238"/>
<path d="M128.4 85.4973C128.674 85.8739 129.812 85.4973 131.156 85.4973C132.5 85.4973 133.656 85.7969 133.921 85.4117C134.041 85.2234 133.87 84.8553 133.373 84.4872C132.715 84.0426 131.933 83.8152 131.139 83.8366C130.346 83.8394 129.572 84.0843 128.922 84.5386C128.4 84.9409 128.229 85.3175 128.4 85.4973Z" fill="#263238"/>
<path d="M162.426 75.6276C161.476 73.6331 159.139 72.8114 157.067 72.0581C154.14 70.9966 151.298 69.687 148.311 68.8138C145.339 67.8243 142.16 67.6324 139.091 68.2574C135.967 69.0107 133.262 70.9538 130.874 73.1024C127.724 75.9358 124.882 79.4111 124.077 83.5713V85.0008C130.865 83.0748 137.619 75.9786 142.533 70.9196C146.77 76.826 153.823 87.312 160.072 89.88C160.491 86.8583 162.64 82.4756 162.88 79.4368C163.049 78.1491 162.893 76.8395 162.426 75.6276Z" fill="#263238"/>
<path d="M185.255 123.392C184.793 121.03 182.456 119.6 180.41 118.333C178.365 117.067 176.173 115.252 176.293 112.846C176.413 110.441 179.092 108.37 178.861 105.862C178.63 103.353 175.523 102.018 173.871 99.9551C171.474 96.9762 171.012 95.1187 171.012 91.301C171.012 83.8281 168.024 74.0697 161.442 70.5087L152.847 77.7248C155.347 84.7012 157.881 91.9943 157.007 99.3645C156.485 103.73 154.773 107.976 155.022 112.367C155.287 117.084 157.778 121.381 158.625 126.02C159.43 130.42 158.737 134.948 158.959 139.417C159.182 143.885 160.671 148.713 164.455 151.084L178.741 144.236C180.291 143.491 182.037 142.524 182.259 140.812C182.482 139.1 180.967 137.593 180.547 135.881C179.52 131.405 186.129 127.895 185.255 123.392Z" fill="#263238"/>
<path d="M170.781 86.8754C170.102 87.1829 169.394 87.4182 168.666 87.5774C166.927 88.0669 165.143 88.3852 163.342 88.5275C161.53 88.6387 159.712 88.4419 157.966 87.9454C157.234 87.7776 156.53 87.5037 155.878 87.1322C155.92 86.9525 159.139 88.3649 163.316 88.0824C165.092 87.9254 166.855 87.6393 168.589 87.2264C169.307 87.0415 170.041 86.924 170.781 86.8754Z" fill="#455A64"/>
<path d="M171.054 89.6232C170.469 90.0691 169.82 90.4241 169.128 90.6761C167.487 91.3674 165.73 91.7448 163.95 91.7889C162.172 91.804 160.402 91.5618 158.694 91.0698C157.981 90.9084 157.29 90.6582 156.639 90.3251C157.36 90.4179 158.072 90.5639 158.771 90.7617C160.454 91.1554 162.178 91.3507 163.907 91.3438C165.639 91.2942 167.352 90.9706 168.983 90.385C169.659 90.0944 170.351 89.8401 171.054 89.6232Z" fill="#455A64"/>
<path d="M120.867 85.1977C121.619 85.0905 122.376 85.0276 123.136 85.0094C123.881 84.8455 124.636 84.7255 125.395 84.6498C124.734 85.0838 123.981 85.359 123.195 85.454C122.41 85.5491 121.613 85.4613 120.867 85.1977Z" fill="#455A64"/>
<path d="M120.439 86.5502C120.516 86.4474 121.423 87.0723 122.682 87.5003C123.94 87.9283 125.036 88.0054 125.036 88.1423C124.201 88.3466 123.322 88.2683 122.536 87.9198C121.703 87.7121 120.964 87.2296 120.439 86.5502Z" fill="#455A64"/>
<path d="M160.457 145.34C160.244 145.31 160.037 145.249 159.841 145.16C159.258 144.915 158.736 144.547 158.309 144.082C157.626 143.341 157.179 142.415 157.025 141.42C156.931 140.792 156.977 140.152 157.161 139.545C157.376 138.88 157.678 138.247 158.06 137.662C158.472 137.04 158.841 136.391 159.165 135.719C159.477 134.988 159.643 134.203 159.652 133.408C159.59 131.63 159.062 129.9 158.12 128.391C157.045 126.722 155.879 125.114 154.628 123.572C153.252 121.879 152.304 119.88 151.863 117.743C151.538 115.589 151.666 113.39 152.239 111.289C152.763 109.353 153.436 107.462 154.251 105.63C154.987 103.876 155.706 102.206 156.246 100.623C156.766 99.1499 157.13 97.6264 157.333 96.0774C157.684 93.8404 157.547 91.5539 156.93 89.375C156.677 88.5854 156.323 87.8316 155.877 87.1322C156.031 87.2845 156.166 87.454 156.28 87.6373C156.635 88.1701 156.923 88.7452 157.136 89.3493C157.824 91.5455 158.011 93.8679 157.684 96.1459C157.498 97.7197 157.145 99.2692 156.631 100.768C156.1 102.386 155.39 104.055 154.662 105.819C153.864 107.634 153.209 109.509 152.702 111.426C152.145 113.466 152.02 115.6 152.334 117.691C152.763 119.762 153.682 121.699 155.013 123.341C156.27 124.898 157.439 126.524 158.514 128.212C159.479 129.789 160.011 131.593 160.055 133.442C160.037 134.283 159.854 135.112 159.515 135.881C159.173 136.551 158.787 137.197 158.36 137.816C157.988 138.376 157.686 138.98 157.461 139.614C157.291 140.167 157.239 140.75 157.307 141.326C157.436 142.277 157.841 143.17 158.471 143.894C159.006 144.529 159.688 145.026 160.457 145.34Z" fill="#263238"/>
<path d="M148.148 64.5253C146.877 65.0986 145.718 65.8927 144.724 66.8707C143.836 67.9408 143.14 69.1574 142.669 70.4659C142.62 70.0408 142.682 69.6101 142.849 69.2162C143.167 68.2318 143.694 67.3279 144.394 66.5669C145.095 65.8058 145.952 65.2057 146.907 64.8078C147.289 64.6084 147.717 64.5111 148.148 64.5253Z" fill="#455A64"/>
<path d="M193.507 144.989L187.678 135.804L187.276 126.774L189.561 120.593C189.561 120.593 191.384 120.157 191.684 122.305C191.793 123.938 191.562 125.576 191.008 127.116L192.258 131.499C192.258 131.499 192.668 131.97 193.054 130.146C193.439 128.323 192.771 114.807 192.763 113.882C192.754 112.958 192.831 110.741 194.209 110.946C195.587 111.152 196.024 112.992 196.024 113.925C196.024 114.858 197.034 123.932 197.034 123.932C197.034 123.932 197.359 124.745 197.685 124.625C198.01 124.505 197.394 114.892 197.334 113.377C197.274 111.862 196.931 108.489 198.712 108.489C200.492 108.489 200.492 110.201 200.595 112.033C200.698 113.865 201.853 124.3 201.853 124.3C201.853 124.3 202.127 124.95 202.384 124.077C202.641 123.204 202.958 111.888 203.154 111.357C203.351 110.826 204.396 110.124 205.2 111.408C206.005 112.692 205.817 115.688 205.705 120.953C205.603 125.704 205.457 127.672 205.996 128.049C206.536 128.426 208.564 125.481 208.564 125.481C208.564 125.481 210.995 119.215 213.058 119.438C215.121 119.66 213.735 121.261 213.384 122.716C213.084 123.949 209.48 131.276 209.403 131.37C209.326 131.464 205.782 144.518 205.782 144.518L213.606 159.473C214.992 162.074 215.522 165.045 215.121 167.964C214.651 171.157 213.016 174.718 208.333 176.173C204.909 177.252 202.341 175.711 200.629 173.896C199.18 172.287 198.22 170.297 197.864 168.161C196.863 162.392 193.49 144.972 193.49 144.972L193.507 144.989Z" fill="#967262"/>
<path d="M199.328 138.398C199.251 138.398 199.328 137.696 199.14 136.635C198.886 135.249 198.224 133.97 197.239 132.962C196.461 132.142 195.425 131.613 194.303 131.464C193.603 131.382 192.896 131.542 192.3 131.918L192.215 131.97V131.892C192.103 131.653 192.052 131.516 192.078 131.507C192.103 131.499 192.189 131.593 192.352 131.815H192.232C192.523 131.565 192.862 131.375 193.228 131.257C193.594 131.14 193.98 131.097 194.363 131.131C195.593 131.226 196.743 131.775 197.59 132.671C198.642 133.737 199.311 135.122 199.491 136.609C199.588 137.21 199.532 137.825 199.328 138.398Z" fill="#77574A"/>
<path d="M204.25 131.456C204.327 131.567 203.54 132.243 202.769 133.245C202.353 133.899 201.896 134.525 201.4 135.12C201.578 134.338 201.926 133.604 202.418 132.971C202.911 132.339 203.536 131.821 204.25 131.456Z" fill="#77574A"/>
<path d="M125.156 213.23C125.265 217.045 126.748 220.693 129.333 223.502C131.25 225.579 133.272 227.556 135.393 229.425L150.134 236.033C150.134 236.033 153.977 236.616 157.838 232.858C159.074 231.777 160.091 230.469 160.834 229.006C160.834 229.006 165.251 230.983 166.98 230.906C169.89 230.778 169.428 228.723 169.428 228.723C169.428 228.723 159.695 223.365 157.384 221.293C155.073 219.222 148.413 217.869 143.688 218.477L140.949 217.938L139.956 214.257C139.956 214.257 134.615 206.305 129.684 209.121C124.753 211.937 125.156 213.23 125.156 213.23Z" fill="#967262"/>
</svg>
